<svg id="Layer_1" data-name="Layer 1" xmlns="http://www.w3.org/2000/svg" viewBox="0 0 512 512"><defs><style>.cls-1{fill:#f7f1d9;}</style></defs><title>academy</title><polygon class="cls-1" points="250.08 383.6 246.08 383.71 248.73 378.89 245.37 377.34 242 383.19 238.02 377.68 235.46 380.15 238.19 383.94 233.09 384.09 233.22 387.78 239.37 387.74 236.34 393 239.91 394.98 242.61 390.05 245.8 394.46 248.6 392.34 245.26 387.71 250.28 387.68 250.08 383.6"/><polygon class="cls-1" points="164.53 36.83 169.67 65.64 175.58 65.08 174.76 36.33 164.53 36.83"/><polygon class="cls-1" points="180.74 36.77 183.69 63.91 191.39 63.4 191 39.23 188.3 36.44 180.74 36.77"/><polygon class="cls-1" points="185.12 65.45 183.67 70.49 188.2 73.82 192.35 71.24 191 66.55 185.12 65.45"/><polygon class="cls-1" points="175.3 67.57 176.8 72.42 172.8 74.98 169.36 72.41 170.52 67.39 175.3 67.57"/><polygon class="cls-1" points="304.39 324.7 302.07 328.42 312.66 335.83 312.65 342.11 304.28 347.34 306.8 350.55 318.09 344.53 316.87 333.28 304.39 324.7"/><polygon class="cls-1" points="451.61 203.74 454.03 206.89 446.39 213.31 446.29 221.84 452.99 224.9 451.69 228.86 443.19 225.04 442.87 211.1 451.61 203.74"/><polygon class="cls-1" points="404.15 155 399.42 156.9 389.91 146.22 375.33 137.73 374.37 131.09 375.99 124.8 386.12 123.09 390.73 128.97 390.02 137.13 378.94 143.14 377.48 148.87 381.55 153.19 388.95 151.84 394.54 144.25 395.86 136.76 399.21 136.01 398.9 147.5 391.73 155.28 379.26 157.59 370.98 150.98 375.54 140.98 379.13 137.75 385.45 134.61 386.09 129.53 383.36 126.89 379.66 128.02 378.31 132.07 379.09 135.9 392.15 142.73 404.15 155"/><polygon class="cls-1" points="356.54 113.72 356.92 117.92 346.06 118.93 345.58 114.63 356.54 113.72"/><polygon class="cls-1" points="357.09 120.57 357.77 125.06 346.62 125.97 346.44 121.75 357.09 120.57"/><polygon class="cls-1" points="343.13 122.27 343.37 125.89 332.82 127.06 332.52 122.55 343.13 122.27"/><polygon class="cls-1" points="343.12 114.4 343.68 118.59 332.51 119.31 332.37 115.48 333.36 114.15 343.12 114.4"/><polygon class="cls-1" points="81.5 88.88 84.3 106.48 89.25 106.17 88.22 87.84 81.5 88.88"/><polygon class="cls-1" points="84.33 108.79 85.33 112.6 89.69 112.44 89.62 108.94 84.33 108.79"/><polygon class="cls-1" points="93.88 102.33 94.36 107.22 106.44 106.53 106 100.95 93.88 102.33"/><polygon class="cls-1" points="93.77 93.05 94.17 97.93 105.43 97.35 105.06 91.58 93.77 93.05"/><path class="cls-1" d="M452.89,294l-4.83.73.27-2.64,5.1-.39-.66-5.66-3.83.31.49-4.72-5.88.29,0,4.89-5.24.42v-6.82l-6.83-.36.35,7.69-3.06.25.26,5.59,3.06-.23.17,3.76-2.2.34.36,4,2-.23.18,3.92,5.76-.67v-3.91l5.07-.57v3.17l3.83-.15.37-3.48,5.86-.66Zm-14.59,2.2v-3.34l5.17-.39v3Z"/><polygon class="cls-1" points="344.2 459.78 346.83 461.12 348.15 458.74 351.79 458.33 354.76 461.9 353.38 464.94 349.24 466.62 349.41 473.64 352.48 473.44 352.56 469.05 356.26 468.26 359.05 461.95 353.6 453.9 346.39 454.18 344.2 459.78"/><polygon class="cls-1" points="349.52 475.35 349.36 477.49 351.7 479.55 353.85 477.64 352.48 475.82 349.52 475.35"/><polygon class="cls-1" points="361.9 474 363.89 476.61 367.31 475.56 366.61 471.12 363.68 470.73 361.9 474"/><polygon class="cls-1" points="361.11 456.14 361.14 459.31 363.23 461.15 365.94 460.71 366.33 457.35 363.9 455.53 361.11 456.14"/><polygon class="cls-1" points="26.93 73.4 24.17 77.91 38.29 84.76 29.36 94.2 32.15 96.28 44.7 83.47 26.93 73.4"/><polygon class="cls-1" points="492.75 23.79 496.31 27.1 487.93 35.91 498.27 42.22 495.87 46.21 478.91 36.49 492.75 23.79"/><polygon class="cls-1" points="374.44 211.41 378.31 213.69 366.06 230.47 362.54 228.35 374.44 211.41"/><polygon class="cls-1" points="366.43 211.84 369.87 213.81 358.37 231.27 354.46 228.31 366.43 211.84"/><polygon class="cls-1" points="189.91 439.71 198.55 439.6 198.21 456.58 192.47 456.95 189.91 439.71"/><polygon class="cls-1" points="195.79 458.73 198.45 460.33 197.32 463.51 193.25 463.77 192.71 460.7 195.79 458.73"/><polygon class="cls-1" points="35.82 336.95 39.78 339.91 25.45 358.13 22.55 356.21 35.82 336.95"/><polygon class="cls-1" points="36.77 349.75 39.26 350.69 38.87 354.93 35.19 354.5 34.46 351.89 36.77 349.75"/><polygon class="cls-1" points="24.95 340.21 27.68 341.25 27.79 344.68 24.19 345.57 22.66 342.57 24.95 340.21"/><polygon class="cls-1" points="73.73 459.21 76.48 461.76 70.53 468.06 77.56 473.81 74.91 477.31 65.28 469 73.73 459.21"/><polygon class="cls-1" points="86.17 459.47 88.95 462.62 82.62 467.73 89.81 473.47 87.43 476.51 76.28 468.14 86.17 459.47"/><path class="cls-1" d="M152,411.7l-.27-8.68.43-.28,5.71,2,.85-4.31s-4.47-.85-7.06-1.31l-.08-2.81-4.9,2.48.4,2.66c-2.1,2.11-4.63,4.72-4.63,4.72l2.74,8.48H149l.33,2.23-2.12.24.4,3.15,2.19-.24.28,1.92,2.2-.61-.05-1.6,5.47-.61,1.61-4-4.1-3.22Zm-4.65-.29-.73-5,1.06-.7.86,5.8Zm4.79,5.13-.06-1.92h1l.51,1.77Z"/><polygon class="cls-1" points="450.73 482.19 463.26 490.8 456.45 502 452.93 499.13 457.88 491.71 449.39 485.5 450.73 482.19"/><polygon class="cls-1" points="441.92 484.76 451.45 491.68 446.35 501.77 442.07 499.16 445.67 493.05 439.64 489.01 441.92 484.76"/><polygon class="cls-1" points="277.2 118.41 278.83 121.29 286.15 116.27 293.93 121.75 300.83 116.98 298.56 114.36 294.09 117.31 287.39 111.42 283.32 111.8 277.2 118.41"/><polygon class="cls-1" points="277.46 33.68 274.62 36.91 265.34 30.19 257.54 38.52 254.47 35.07 263.47 23.4 277.46 33.68"/><path class="cls-1" d="M266.71,168.56l-.73,1.83-5.19-1-2.88,6.81,4.69,6.54,3.64-.91,5.26,2.24L278.18,173l-8.33-11.47-12.57,2.05-4.18,13.09,8,10.25,6.25-1.75-.43-2.1-5.07.78-5.5-7.39,3-9.17,10.32-1.68,5.29,7.06L271,180.53l-2.76-1.62.72-9.36Zm-1.17,9.83-1.93.92-3.06-3.17,1.37-3.67,4.28.4Z"/><polygon class="cls-1" points="329.7 371.7 331 393.31 335.04 393.27 334 370.44 329.7 371.7"/><polygon class="cls-1" points="339.24 370.21 340.26 392.61 344.97 392.51 343.71 369.81 339.24 370.21"/><polygon class="cls-1" points="100.74 203.8 106.09 205.72 94.32 227.09 89.46 224.76 100.74 203.8"/><polygon class="cls-1" points="439.68 392.98 439.94 398.88 462.46 398.19 462.21 392.62 460.58 391.08 439.68 392.98"/><polygon class="cls-1" points="203.59 304.62 203.94 307.74 198 308.12 199 324.8 203.11 324.46 203.31 327.51 194.91 327.67 193.15 305.3 203.59 304.62"/><polygon class="cls-1" points="53.98 260.48 53.83 264.01 60.09 263.98 61.35 281.03 56.28 281.89 56.68 284.54 64.64 283.49 63.14 260.27 53.98 260.48"/><polygon class="cls-1" points="376.64 263.59 377.5 265.98 372.14 269.65 374.41 276.41 373.22 278.32 375.43 279.93 374.21 286.83 377.27 288.03 376.12 290.64 370.88 287.92 372.84 281.76 369.81 278.19 371.51 276.16 369.12 268.97 376.64 263.59"/><polygon class="cls-1" points="94.16 42.95 92.76 45.19 97.99 47.77 96.06 53.64 98.1 54.8 96.28 57.07 100.05 62.4 96.27 66.25 98.21 68.36 103.17 62.8 99.54 57.11 101.33 54.16 98.73 52.53 101.83 46.06 94.16 42.95"/><polygon class="cls-1" points="399.96 337.63 403.25 341.24 396.56 347.57 403.53 352.25 401.72 356.42 391.38 348.56 399.96 337.63"/><polygon class="cls-1" points="405.31 341 405.49 345.46 415.26 344.5 414.88 340.27 405.31 341"/><polygon class="cls-1" points="405.94 350.79 406.18 354.48 415.14 354.34 414.76 350.33 405.94 350.79"/><polygon class="cls-1" points="173.49 185.88 173.55 189.12 176.32 190.76 179.52 189.77 179.62 186.65 176.62 183.86 173.49 185.88"/><polygon class="cls-1" points="175.11 197.84 172.91 200.88 174.17 203.01 176.6 203.54 175.64 205.95 176.96 206.56 180.09 203.18 179.99 199.18 178.43 197.35 175.11 197.84"/><polygon class="cls-1" points="365.8 47.1 362.1 47.02 362.08 41.4 358.56 41.36 358.83 46.94 354.31 46.85 354.44 49.8 358.98 50.06 359.23 55.15 362.11 55.56 362.1 50.24 365.74 50.45 365.8 47.1"/><polygon class="cls-1" points="379.43 45.97 374.5 46.04 374.33 40.2 371.23 39.8 371.48 46.09 368.45 46.13 368.5 49.31 371.62 49.36 371.86 55.41 374.77 55.33 374.59 49.4 379.55 49.48 379.43 45.97"/><polygon class="cls-1" points="280.25 277.49 280.99 283.09 259.96 285.7 259.36 280.23 260.5 278.4 280.25 277.49"/><polygon class="cls-1" points="280.88 287.23 281.23 294.49 260.21 295.35 260.05 288.96 280.88 287.23"/><polygon class="cls-1" points="31.42 211.35 27.05 211.56 26.91 206.27 21.75 206.94 21.9 211.8 17.04 212.03 16.61 213.25 16.77 217 22.05 216.72 22.22 222.1 27.31 221.69 27.18 216.44 31.73 216.2 31.42 211.35"/></svg>
