<svg xmlns="http://www.w3.org/2000/svg" xmlns:xlink="http://www.w3.org/1999/xlink" viewBox="0 0 681.76 58.55"><defs><style>.cls-1{fill:url(#linear-gradient);}.cls-2{fill:url(#linear-gradient-2);}.cls-3{fill:#77bcbb;}.cls-4{fill:#5a8f90;}.cls-5{fill:#fff;}</style><linearGradient id="linear-gradient" x1="627.32" y1="33.4" x2="684.32" y2="33.4" gradientTransform="matrix(1, 0, 0, -1, -2.56, 60.72)" gradientUnits="userSpaceOnUse"><stop offset="0" stop-color="#609a99"/><stop offset="1" stop-color="#80cdd2"/></linearGradient><linearGradient id="linear-gradient-2" x1="1595.1" y1="42.7" x2="1633.39" y2="42.7" gradientTransform="matrix(-1.16, 0, 0, 1.16, 1903.45, -18.02)" xlink:href="#linear-gradient"/></defs><title>announcement</title><g id="Banner"><polygon class="cls-1" points="681.76 1.9 646.61 0 625.71 1.9 628.56 28.5 624.76 49.4 650.41 50.35 677.27 54.64 678.75 52.62 650.41 27.55 664.55 15.71 664.17 11.03 668.48 12.9 681.76 1.9"/><polygon class="cls-2" points="40.59 58.55 16.03 44.77 8.88 42.48 17.26 37.33 21.73 34.43 24.25 35.49 23.59 33.52 28.96 30.29 18.45 13.72 0 4.66 22.62 4.46 49.66 10.68 49.89 36.2 40.59 58.55"/><polygon class="cls-3" points="634.76 54.35 619.07 53.69 504.35 54.6 377.32 52.78 375.99 50.25 374.39 52.7 230.43 52.22 74.95 54.77 59.35 54.09 58.43 51.05 56.68 53.94 36.6 50.99 44.01 31.31 42.51 6.27 71.17 6.88 225.38 4.91 496.5 7.09 620.45 5.55 632.76 4.35 629.76 28.35 634.76 54.35"/><polygon class="cls-4" points="40.59 58.55 36.6 50.99 43.31 52.03 40.59 58.55"/><polygon class="cls-4" points="625.71 1.9 632.76 4.35 625.11 5.1 625.71 1.9"/></g><g id="Text"><path class="cls-5" d="M72.06,42.44V25.37h4l4.45,8.48,1.67,3.77h.11l-.3-3a29.71,29.71,0,0,1-.17-3.19v-6h3.66V42.44h-4L77,33.93l-1.68-3.72h-.1c.09.94.19,2,.3,3a31.09,31.09,0,0,1,.17,3.14v6Z" transform="translate(-2.56 -3.17)"/><path class="cls-5" d="M96.41,42.75a8.13,8.13,0,0,1-3.16-.61,6.94,6.94,0,0,1-2.44-1.77,8.23,8.23,0,0,1-1.59-2.8,11.73,11.73,0,0,1-.56-3.75,11.6,11.6,0,0,1,.56-3.73,7.76,7.76,0,0,1,1.59-2.74,6.78,6.78,0,0,1,2.44-1.71,8.31,8.31,0,0,1,3.16-.58,8.22,8.22,0,0,1,3.15.58A6.85,6.85,0,0,1,102,27.36a7.77,7.77,0,0,1,1.58,2.76,11.23,11.23,0,0,1,.57,3.7,11.45,11.45,0,0,1-.57,3.75,8,8,0,0,1-1.58,2.8,7,7,0,0,1-2.45,1.77A8,8,0,0,1,96.41,42.75Zm0-3.32a3.19,3.19,0,0,0,2.77-1.51,7.21,7.21,0,0,0,1-4.1,6.82,6.82,0,0,0-1-4,3.39,3.39,0,0,0-5.55,0,6.82,6.82,0,0,0-1,4,7.21,7.21,0,0,0,1,4.1A3.21,3.21,0,0,0,96.41,39.43Z" transform="translate(-2.56 -3.17)"/><path class="cls-5" d="M108.89,42.44l-3.16-17.07h4l1.18,8c.1.89.22,1.79.34,2.69s.23,1.8.34,2.71h.1c.18-.91.35-1.82.51-2.71l.51-2.69,1.84-8h3.27l1.83,8c.17.88.35,1.76.51,2.66s.34,1.81.51,2.74h.11c.12-.93.24-1.84.35-2.73s.23-1.78.35-2.67l1.18-8h3.69l-3,17.07h-4.85l-1.67-7.75c-.14-.67-.27-1.33-.38-2s-.22-1.33-.3-1.95H116c-.1.62-.21,1.27-.32,1.95s-.24,1.33-.38,2l-1.6,7.75Z" transform="translate(-2.56 -3.17)"/><path class="cls-5" d="M133.89,42.44V25.37h10.68v3.25h-6.83V32h5.81v3.22h-5.81v3.93h7.09v3.25Z" transform="translate(-2.56 -3.17)"/><path class="cls-5" d="M148.24,42.44V25.37h3.95l4.45,8.48,1.67,3.77h.11l-.3-3a29.71,29.71,0,0,1-.17-3.19v-6h3.66V42.44h-4l-4.45-8.51-1.67-3.72h-.11c.09.94.19,2,.3,3a31.09,31.09,0,0,1,.17,3.14v6Z" transform="translate(-2.56 -3.17)"/><path class="cls-5" d="M165.64,42.44V25.37h6.15a12.27,12.27,0,0,1,2.56.26,6,6,0,0,1,2.08.88,4.39,4.39,0,0,1,1.41,1.63,5.52,5.52,0,0,1,.53,2.54,5.4,5.4,0,0,1-.83,3.1,5,5,0,0,1-2.21,1.82l3.87,6.84h-4.32l-3.27-6.16h-2.12v6.16Zm3.85-9.22h2a3.64,3.64,0,0,0,2.32-.64,2.3,2.3,0,0,0,.8-1.9,1.91,1.91,0,0,0-.8-1.75,4.47,4.47,0,0,0-2.32-.5h-2Z" transform="translate(-2.56 -3.17)"/><path class="cls-5" d="M188.63,42.75a8.06,8.06,0,0,1-3.16-.61A7.07,7.07,0,0,1,183,40.37a8.21,8.21,0,0,1-1.58-2.8,11.73,11.73,0,0,1-.56-3.75,11.6,11.6,0,0,1,.56-3.73A7.74,7.74,0,0,1,183,27.35a6.91,6.91,0,0,1,2.45-1.71,8.87,8.87,0,0,1,6.31,0,6.85,6.85,0,0,1,2.45,1.72,7.77,7.77,0,0,1,1.58,2.76,11.23,11.23,0,0,1,.56,3.7,11.46,11.46,0,0,1-.56,3.75,8,8,0,0,1-1.58,2.8,7,7,0,0,1-2.45,1.77A8,8,0,0,1,188.63,42.75Zm0-3.32a3.2,3.2,0,0,0,2.77-1.51,7.21,7.21,0,0,0,1-4.1,6.82,6.82,0,0,0-1-4,3.39,3.39,0,0,0-5.55,0,6.82,6.82,0,0,0-1,4,7.21,7.21,0,0,0,1,4.1A3.21,3.21,0,0,0,188.63,39.43Z" transform="translate(-2.56 -3.17)"/><path class="cls-5" d="M199.59,42.44V25.37h3.85V39.19h6.76v3.25Z" transform="translate(-2.56 -3.17)"/><path class="cls-5" d="M213.15,42.44V25.37H217V39.19h6.75v3.25Z" transform="translate(-2.56 -3.17)"/><path class="cls-5" d="M226.71,42.44V25.37h3.85V42.44Z" transform="translate(-2.56 -3.17)"/><path class="cls-5" d="M234.59,42.44V25.37h3.95L243,33.85l1.68,3.77h.1c-.08-.91-.18-1.92-.3-3s-.17-2.18-.17-3.19v-6H248V42.44h-4l-4.45-8.51-1.67-3.72h-.11c.09.94.19,2,.31,3a31.09,31.09,0,0,1,.17,3.14v6Z" transform="translate(-2.56 -3.17)"/><path class="cls-5" d="M259.54,42.75a9.59,9.59,0,0,1-3.29-.56,7.42,7.42,0,0,1-2.66-1.67,7.66,7.66,0,0,1-1.76-2.73,10.26,10.26,0,0,1-.64-3.78,10.21,10.21,0,0,1,.65-3.79,8.51,8.51,0,0,1,1.79-2.81,7.65,7.65,0,0,1,2.66-1.75,8.69,8.69,0,0,1,3.22-.6,6.86,6.86,0,0,1,3.19.68,8,8,0,0,1,2.18,1.54l-2,2.46a7.56,7.56,0,0,0-1.39-1,3.87,3.87,0,0,0-1.83-.39,4.36,4.36,0,0,0-1.82.38,4,4,0,0,0-1.42,1.09,4.67,4.67,0,0,0-.93,1.72,7.49,7.49,0,0,0-.33,2.31A6.31,6.31,0,0,0,256.33,38a4.37,4.37,0,0,0,3.6,1.46,3.86,3.86,0,0,0,1-.14,1.92,1.92,0,0,0,.81-.39V36h-2.83V32.83h6.23v7.85a7.16,7.16,0,0,1-2.35,1.47A8.58,8.58,0,0,1,259.54,42.75Z" transform="translate(-2.56 -3.17)"/><path class="cls-5" d="M273.93,42.44V25.37h10.76v3.25h-6.91v3.95h5.92v3.24h-5.92v6.63Z" transform="translate(-2.56 -3.17)"/><path class="cls-5" d="M294.32,42.75a8,8,0,0,1-3.15-.61,7,7,0,0,1-2.45-1.77,8,8,0,0,1-1.58-2.8,11.46,11.46,0,0,1-.56-3.75,11.34,11.34,0,0,1,.56-3.73,7.59,7.59,0,0,1,1.58-2.74,6.82,6.82,0,0,1,2.45-1.71,8.87,8.87,0,0,1,6.31,0,6.85,6.85,0,0,1,2.45,1.72,7.92,7.92,0,0,1,1.58,2.76,11.5,11.5,0,0,1,.56,3.7,11.73,11.73,0,0,1-.56,3.75,8.21,8.21,0,0,1-1.58,2.8,7,7,0,0,1-2.45,1.77A8.06,8.06,0,0,1,294.32,42.75Zm0-3.32a3.21,3.21,0,0,0,2.78-1.51,7.21,7.21,0,0,0,1-4.1,6.82,6.82,0,0,0-1-4,3.39,3.39,0,0,0-5.55,0,6.82,6.82,0,0,0-1,4,7.21,7.21,0,0,0,1,4.1A3.19,3.19,0,0,0,294.32,39.43Z" transform="translate(-2.56 -3.17)"/><path class="cls-5" d="M305.29,42.44V25.37h6.15a12.27,12.27,0,0,1,2.56.26,6,6,0,0,1,2.08.88,4.39,4.39,0,0,1,1.41,1.63,5.53,5.53,0,0,1,.52,2.54,5.4,5.4,0,0,1-.82,3.1A5,5,0,0,1,315,35.6l3.87,6.84h-4.32l-3.27-6.16h-2.12v6.16Zm3.85-9.22h2a3.64,3.64,0,0,0,2.32-.64,2.3,2.3,0,0,0,.79-1.9,1.9,1.9,0,0,0-.79-1.75,4.47,4.47,0,0,0-2.32-.5h-2Z" transform="translate(-2.56 -3.17)"/><path class="cls-5" d="M333.51,42.75a8.13,8.13,0,0,1-3.16-.61,6.94,6.94,0,0,1-2.44-1.77,8.23,8.23,0,0,1-1.59-2.8,11.73,11.73,0,0,1-.56-3.75,11.6,11.6,0,0,1,.56-3.73,7.76,7.76,0,0,1,1.59-2.74,6.78,6.78,0,0,1,2.44-1.71,8.31,8.31,0,0,1,3.16-.58,8.22,8.22,0,0,1,3.15.58,6.85,6.85,0,0,1,2.45,1.72,7.77,7.77,0,0,1,1.58,2.76,11.23,11.23,0,0,1,.57,3.7,11.45,11.45,0,0,1-.57,3.75,8,8,0,0,1-1.58,2.8,7,7,0,0,1-2.45,1.77A8,8,0,0,1,333.51,42.75Zm0-3.32a3.19,3.19,0,0,0,2.77-1.51,7.21,7.21,0,0,0,1-4.1,6.82,6.82,0,0,0-1-4,3.39,3.39,0,0,0-5.55,0,6.82,6.82,0,0,0-1,4,7.21,7.21,0,0,0,1,4.1A3.22,3.22,0,0,0,333.51,39.43Z" transform="translate(-2.56 -3.17)"/><path class="cls-5" d="M351.21,42.75a6.45,6.45,0,0,1-5.08-2q-1.75-2-1.76-6.26V25.37h3.88v9.55a6,6,0,0,0,.76,3.51,2.6,2.6,0,0,0,2.2,1,2.68,2.68,0,0,0,2.22-1,5.86,5.86,0,0,0,.78-3.51V25.37h3.72v9.16q0,4.29-1.71,6.26A6.31,6.31,0,0,1,351.21,42.75Z" transform="translate(-2.56 -3.17)"/><path class="cls-5" d="M361.88,42.44V25.37H368a12.24,12.24,0,0,1,2.55.26,5.92,5.92,0,0,1,2.08.88,4.39,4.39,0,0,1,1.41,1.63,5.52,5.52,0,0,1,.53,2.54,5.4,5.4,0,0,1-.83,3.1,4.93,4.93,0,0,1-2.21,1.82l3.87,6.84h-4.32l-3.27-6.16h-2.12v6.16Zm3.85-9.22h2a3.62,3.62,0,0,0,2.32-.64,2.3,2.3,0,0,0,.8-1.9,1.91,1.91,0,0,0-.8-1.75,4.44,4.44,0,0,0-2.32-.5h-2Z" transform="translate(-2.56 -3.17)"/><path class="cls-5" d="M388.37,42.75a9.74,9.74,0,0,1-3.33-.61,8.84,8.84,0,0,1-3-1.85l2.19-2.64a8.58,8.58,0,0,0,2,1.28,5.36,5.36,0,0,0,2.19.5,2.93,2.93,0,0,0,1.79-.45,1.44,1.44,0,0,0,.59-1.2,1.34,1.34,0,0,0-.17-.68,1.43,1.43,0,0,0-.5-.51,4.71,4.71,0,0,0-.78-.42l-1-.44-2.23-.94a6.45,6.45,0,0,1-1.26-.68,5.4,5.4,0,0,1-1.1-1,4.38,4.38,0,0,1-.78-1.31,4.72,4.72,0,0,1-.28-1.69,4.47,4.47,0,0,1,.44-2,5.08,5.08,0,0,1,1.26-1.63,6,6,0,0,1,1.92-1.08,7.36,7.36,0,0,1,2.45-.39,8,8,0,0,1,2.94.57,7.54,7.54,0,0,1,2.56,1.68l-2,2.43a7.83,7.83,0,0,0-1.67-1,4.85,4.85,0,0,0-1.86-.35,2.74,2.74,0,0,0-1.58.41,1.28,1.28,0,0,0-.59,1.13,1.11,1.11,0,0,0,.19.67,2.07,2.07,0,0,0,.55.5,5.34,5.34,0,0,0,.83.42l1,.43,2.2.89a6,6,0,0,1,2.47,1.73,4.43,4.43,0,0,1,.9,2.9,4.84,4.84,0,0,1-.43,2,4.89,4.89,0,0,1-1.26,1.68,6.18,6.18,0,0,1-2,1.15A8,8,0,0,1,388.37,42.75Z" transform="translate(-2.56 -3.17)"/><path class="cls-5" d="M404.45,42.75a6.45,6.45,0,0,1-5.08-2q-1.75-2-1.75-6.26V25.37h3.87v9.55a6,6,0,0,0,.76,3.51,2.6,2.6,0,0,0,2.2,1,2.67,2.67,0,0,0,2.22-1,5.78,5.78,0,0,0,.79-3.51V25.37h3.71v9.16q0,4.29-1.71,6.26A6.28,6.28,0,0,1,404.45,42.75Z" transform="translate(-2.56 -3.17)"/><path class="cls-5" d="M415.13,42.44V25.37h4.21L422.09,33c.17.51.34,1,.5,1.56s.32,1.06.49,1.58h.11c.17-.52.34-1.05.48-1.58s.31-1.05.49-1.56l2.69-7.59H431V42.44h-3.51V36.18c0-.42,0-.88.06-1.39s.08-1,.13-1.53.1-1,.16-1.52.1-.95.15-1.37h-.1l-1.39,4.06-2.43,6.51H422l-2.44-6.51-1.36-4.06h-.11c.06.42.11.88.16,1.37s.11,1,.16,1.52.1,1,.13,1.53.05,1,.05,1.39v6.26Z" transform="translate(-2.56 -3.17)"/><path class="cls-5" d="M435.07,42.44V25.37h4.22L442,33c.17.51.34,1,.49,1.56s.33,1.06.5,1.58h.1c.18-.52.34-1.05.49-1.58s.31-1.05.48-1.56l2.7-7.59H451V42.44h-3.51V36.18c0-.42,0-.88,0-1.39s.08-1,.13-1.53.11-1,.16-1.52.1-.95.16-1.37h-.11l-1.38,4.06-2.44,6.51h-2.12l-2.43-6.51-1.37-4.06H438c.05.42.1.88.16,1.37l.15,1.52c.06.52.1,1,.14,1.53s0,1,0,1.39v6.26Z" transform="translate(-2.56 -3.17)"/><path class="cls-5" d="M455,42.44V25.37H465.7v3.25h-6.83V32h5.81v3.22h-5.81v3.93H466v3.25Z" transform="translate(-2.56 -3.17)"/><path class="cls-5" d="M469.36,42.44V25.37h6.15a12.27,12.27,0,0,1,2.56.26,6,6,0,0,1,2.08.88,4.39,4.39,0,0,1,1.41,1.63,5.53,5.53,0,0,1,.52,2.54,5.4,5.4,0,0,1-.82,3.1,5,5,0,0,1-2.21,1.82l3.87,6.84H478.6l-3.27-6.16h-2.12v6.16Zm3.85-9.22h2a3.64,3.64,0,0,0,2.32-.64,2.3,2.3,0,0,0,.8-1.9,1.91,1.91,0,0,0-.8-1.75,4.47,4.47,0,0,0-2.32-.5h-2Z" transform="translate(-2.56 -3.17)"/><path class="cls-5" d="M497.76,42.75a8.44,8.44,0,0,1-3.06-.56,7.25,7.25,0,0,1-2.53-1.67,7.84,7.84,0,0,1-1.71-2.73,10.47,10.47,0,0,1-.63-3.78,10.21,10.21,0,0,1,.66-3.79,8.59,8.59,0,0,1,1.75-2.81,7.3,7.3,0,0,1,2.57-1.75,8,8,0,0,1,3.08-.6,6.48,6.48,0,0,1,3,.66A8.28,8.28,0,0,1,503,27.28l-2,2.46a6.29,6.29,0,0,0-1.37-1,3.51,3.51,0,0,0-1.64-.38,3.68,3.68,0,0,0-1.63.38A3.78,3.78,0,0,0,495,29.85a5.47,5.47,0,0,0-.89,1.72,7.49,7.49,0,0,0-.33,2.31A6.55,6.55,0,0,0,494.91,38a3.61,3.61,0,0,0,3,1.46,3.84,3.84,0,0,0,1.87-.46,6,6,0,0,0,1.46-1.14l2,2.41A7,7,0,0,1,497.76,42.75Z" transform="translate(-2.56 -3.17)"/><path class="cls-5" d="M511.85,42.75a8.09,8.09,0,0,1-3.16-.61,6.94,6.94,0,0,1-2.44-1.77,8.06,8.06,0,0,1-1.59-2.8,11.73,11.73,0,0,1-.56-3.75,11.6,11.6,0,0,1,.56-3.73,7.61,7.61,0,0,1,1.59-2.74,6.78,6.78,0,0,1,2.44-1.71,8.87,8.87,0,0,1,6.31,0,6.85,6.85,0,0,1,2.45,1.72A7.77,7.77,0,0,1,519,30.12a11.23,11.23,0,0,1,.56,3.7,11.46,11.46,0,0,1-.56,3.75,8,8,0,0,1-1.58,2.8A7,7,0,0,1,515,42.14,8,8,0,0,1,511.85,42.75Zm0-3.32a3.19,3.19,0,0,0,2.77-1.51,7.21,7.21,0,0,0,1-4.1,6.82,6.82,0,0,0-1-4,3.39,3.39,0,0,0-5.55,0,6.82,6.82,0,0,0-1,4,7.21,7.21,0,0,0,1,4.1A3.21,3.21,0,0,0,511.85,39.43Z" transform="translate(-2.56 -3.17)"/><path class="cls-5" d="M522.81,42.44V25.37h3.85v6.57h5.89V25.37h3.88V42.44h-3.88V35.32h-5.89v7.12Z" transform="translate(-2.56 -3.17)"/><path class="cls-5" d="M547.39,42.75a8,8,0,0,1-3.15-.61,7,7,0,0,1-2.45-1.77,8,8,0,0,1-1.58-2.8,11.46,11.46,0,0,1-.56-3.75,11.34,11.34,0,0,1,.56-3.73,7.59,7.59,0,0,1,1.58-2.74,6.82,6.82,0,0,1,2.45-1.71,8.87,8.87,0,0,1,6.31,0A6.93,6.93,0,0,1,553,27.36a7.92,7.92,0,0,1,1.58,2.76,11.5,11.5,0,0,1,.56,3.7,11.73,11.73,0,0,1-.56,3.75,8.21,8.21,0,0,1-1.58,2.8,7.07,7.07,0,0,1-2.45,1.77A8.06,8.06,0,0,1,547.39,42.75Zm0-3.32a3.21,3.21,0,0,0,2.78-1.51,7.21,7.21,0,0,0,1-4.1,6.82,6.82,0,0,0-1-4,3.39,3.39,0,0,0-5.55,0,6.82,6.82,0,0,0-1,4,7.21,7.21,0,0,0,1,4.1A3.19,3.19,0,0,0,547.39,39.43Z" transform="translate(-2.56 -3.17)"/><path class="cls-5" d="M558.36,42.44V25.37h6.15a12.1,12.1,0,0,1,2.55.26,6,6,0,0,1,2.09.88,4.39,4.39,0,0,1,1.41,1.63,5.53,5.53,0,0,1,.52,2.54,5.4,5.4,0,0,1-.82,3.1,5,5,0,0,1-2.21,1.82l3.87,6.84H567.6l-3.27-6.16h-2.12v6.16Zm3.85-9.22h2a3.64,3.64,0,0,0,2.32-.64,2.3,2.3,0,0,0,.79-1.9,1.9,1.9,0,0,0-.79-1.75,4.47,4.47,0,0,0-2.32-.5h-2Z" transform="translate(-2.56 -3.17)"/><path class="cls-5" d="M577.26,42.44V28.62h-4.68V25.37h13.24v3.25h-4.69V42.44Z" transform="translate(-2.56 -3.17)"/><path class="cls-5" d="M590.92,42.75a2.23,2.23,0,0,1-1.66-.69,2.57,2.57,0,0,1,0-3.46,2.35,2.35,0,0,1,3.33,0,2.6,2.6,0,0,1,0,3.46A2.23,2.23,0,0,1,590.92,42.75Zm-1.25-6.36-.55-8L589,24.9h3.87l-.13,3.48-.55,8Z" transform="translate(-2.56 -3.17)"/></g></svg>