<svg xmlns="http://www.w3.org/2000/svg" xmlns:xlink="http://www.w3.org/1999/xlink" viewBox="0 0 690 64"><defs><style>.cls-1{fill:url(#linear-gradient);}.cls-2{fill:url(#linear-gradient-2);}.cls-3{fill:#77bcbb;}.cls-4{fill:#5a8f90;}.cls-5{fill:#fff;}</style><linearGradient id="linear-gradient" x1="627.32" y1="33.4" x2="684.32" y2="33.4" gradientTransform="matrix(1, 0, 0, -1, 0, 63.89)" gradientUnits="userSpaceOnUse"><stop offset="0" stop-color="#609a99"/><stop offset="1" stop-color="#80cdd2"/></linearGradient><linearGradient id="linear-gradient-2" x1="1595.1" y1="42.7" x2="1633.39" y2="42.7" gradientTransform="matrix(-1.16, 0, 0, 1.16, 1906.01, -14.85)" xlink:href="#linear-gradient"/></defs><title>announcement</title><g id="Banner"><polygon class="cls-1" points="684.32 5.07 649.17 3.17 628.27 5.07 631.12 31.67 627.32 52.57 652.97 53.52 679.83 57.81 681.31 55.79 652.97 30.72 667.11 18.88 666.73 14.2 671.04 16.07 684.32 5.07"/><polygon class="cls-2" points="43.15 61.72 18.59 47.94 11.44 45.65 19.82 40.5 24.29 37.6 26.81 38.66 26.15 36.69 31.52 33.46 21.01 16.89 2.56 7.83 25.18 7.63 52.22 13.85 52.45 39.37 43.15 61.72"/><polygon class="cls-3" points="637.32 57.52 621.63 56.86 506.91 57.77 379.88 55.95 378.55 53.42 376.95 55.87 232.99 55.39 77.51 57.94 61.91 57.26 60.99 54.22 59.24 57.11 39.16 54.16 46.57 34.48 45.07 9.44 73.73 10.05 227.94 8.08 499.06 10.26 623.01 8.72 635.32 7.52 632.32 31.52 637.32 57.52"/><polygon class="cls-4" points="43.15 61.72 39.16 54.16 45.87 55.2 43.15 61.72"/><polygon class="cls-4" points="628.27 5.07 635.32 7.52 627.67 8.27 628.27 5.07"/></g><g id="Text"><path class="cls-5" d="M72.06,42.44V25.37h4l4.45,8.48,1.67,3.77h.11l-.3-3a29.71,29.71,0,0,1-.17-3.19v-6h3.66V42.44h-4L77,33.93l-1.68-3.72h-.1c.09.94.19,2,.3,3a31.09,31.09,0,0,1,.17,3.14v6Z"/><path class="cls-5" d="M96.41,42.75a8.13,8.13,0,0,1-3.16-.61,6.94,6.94,0,0,1-2.44-1.77,8.23,8.23,0,0,1-1.59-2.8,11.73,11.73,0,0,1-.56-3.75,11.6,11.6,0,0,1,.56-3.73,7.76,7.76,0,0,1,1.59-2.74,6.78,6.78,0,0,1,2.44-1.71,8.31,8.31,0,0,1,3.16-.58,8.22,8.22,0,0,1,3.15.58A6.85,6.85,0,0,1,102,27.36a7.77,7.77,0,0,1,1.58,2.76,11.23,11.23,0,0,1,.57,3.7,11.45,11.45,0,0,1-.57,3.75,8,8,0,0,1-1.58,2.8,7,7,0,0,1-2.45,1.77A8,8,0,0,1,96.41,42.75Zm0-3.32a3.19,3.19,0,0,0,2.77-1.51,7.21,7.21,0,0,0,1-4.1,6.82,6.82,0,0,0-1-4,3.39,3.39,0,0,0-5.55,0,6.82,6.82,0,0,0-1,4,7.21,7.21,0,0,0,1,4.1A3.21,3.21,0,0,0,96.41,39.43Z"/><path class="cls-5" d="M108.89,42.44l-3.16-17.07h4l1.18,8c.1.89.22,1.79.34,2.69s.23,1.8.34,2.71h.1c.18-.91.35-1.82.51-2.71l.51-2.69,1.84-8h3.27l1.83,8c.17.88.35,1.76.51,2.66s.34,1.81.51,2.74h.11c.12-.93.24-1.84.35-2.73s.23-1.78.35-2.67l1.18-8h3.69l-3,17.07h-4.85l-1.67-7.75c-.14-.67-.27-1.33-.38-2s-.22-1.33-.3-1.95H116c-.1.62-.21,1.27-.32,1.95s-.24,1.33-.38,2l-1.6,7.75Z"/><path class="cls-5" d="M133.89,42.44V25.37h10.68v3.25h-6.83V32h5.81v3.22h-5.81v3.93h7.09v3.25Z"/><path class="cls-5" d="M148.24,42.44V25.37h3.95l4.45,8.48,1.67,3.77h.11l-.3-3a29.71,29.71,0,0,1-.17-3.19v-6h3.66V42.44h-4l-4.45-8.51-1.67-3.72h-.11c.09.94.19,2,.3,3a31.09,31.09,0,0,1,.17,3.14v6Z"/><path class="cls-5" d="M165.64,42.44V25.37h6.15a12.27,12.27,0,0,1,2.56.26,6,6,0,0,1,2.08.88,4.39,4.39,0,0,1,1.41,1.63,5.52,5.52,0,0,1,.53,2.54,5.4,5.4,0,0,1-.83,3.1,5,5,0,0,1-2.21,1.82l3.87,6.84h-4.32l-3.27-6.16h-2.12v6.16Zm3.85-9.22h2a3.64,3.64,0,0,0,2.32-.64,2.3,2.3,0,0,0,.8-1.9,1.91,1.91,0,0,0-.8-1.75,4.47,4.47,0,0,0-2.32-.5h-2Z"/><path class="cls-5" d="M188.63,42.75a8.06,8.06,0,0,1-3.16-.61A7.07,7.07,0,0,1,183,40.37a8.21,8.21,0,0,1-1.58-2.8,11.73,11.73,0,0,1-.56-3.75,11.6,11.6,0,0,1,.56-3.73A7.74,7.74,0,0,1,183,27.35a6.91,6.91,0,0,1,2.45-1.71,8.87,8.87,0,0,1,6.31,0,6.85,6.85,0,0,1,2.45,1.72,7.77,7.77,0,0,1,1.58,2.76,11.23,11.23,0,0,1,.56,3.7,11.46,11.46,0,0,1-.56,3.75,8,8,0,0,1-1.58,2.8,7,7,0,0,1-2.45,1.77A8,8,0,0,1,188.63,42.75Zm0-3.32a3.2,3.2,0,0,0,2.77-1.51,7.21,7.21,0,0,0,1-4.1,6.82,6.82,0,0,0-1-4,3.39,3.39,0,0,0-5.55,0,6.82,6.82,0,0,0-1,4,7.21,7.21,0,0,0,1,4.1A3.21,3.21,0,0,0,188.63,39.43Z"/><path class="cls-5" d="M199.59,42.44V25.37h3.85V39.19h6.76v3.25Z"/><path class="cls-5" d="M213.15,42.44V25.37H217V39.19h6.75v3.25Z"/><path class="cls-5" d="M226.71,42.44V25.37h3.85V42.44Z"/><path class="cls-5" d="M234.59,42.44V25.37h3.95L243,33.85l1.68,3.77h.1c-.08-.91-.18-1.92-.3-3s-.17-2.18-.17-3.19v-6H248V42.44h-4l-4.45-8.51-1.67-3.72h-.11c.09.94.19,2,.31,3a31.09,31.09,0,0,1,.17,3.14v6Z"/><path class="cls-5" d="M259.54,42.75a9.59,9.59,0,0,1-3.29-.56,7.42,7.42,0,0,1-2.66-1.67,7.66,7.66,0,0,1-1.76-2.73,10.26,10.26,0,0,1-.64-3.78,10.21,10.21,0,0,1,.65-3.79,8.51,8.51,0,0,1,1.79-2.81,7.65,7.65,0,0,1,2.66-1.75,8.69,8.69,0,0,1,3.22-.6,6.86,6.86,0,0,1,3.19.68,8,8,0,0,1,2.18,1.54l-2,2.46a7.56,7.56,0,0,0-1.39-1,3.87,3.87,0,0,0-1.83-.39,4.36,4.36,0,0,0-1.82.38,4,4,0,0,0-1.42,1.09,4.67,4.67,0,0,0-.93,1.72,7.49,7.49,0,0,0-.33,2.31A6.31,6.31,0,0,0,256.33,38a4.37,4.37,0,0,0,3.6,1.46,3.86,3.86,0,0,0,1-.14,1.92,1.92,0,0,0,.81-.39V36h-2.83V32.83h6.23v7.85a7.16,7.16,0,0,1-2.35,1.47A8.58,8.58,0,0,1,259.54,42.75Z"/><path class="cls-5" d="M273.93,42.44V25.37h10.76v3.25h-6.91v3.95h5.92v3.24h-5.92v6.63Z"/><path class="cls-5" d="M294.32,42.75a8,8,0,0,1-3.15-.61,7,7,0,0,1-2.45-1.77,8,8,0,0,1-1.58-2.8,11.46,11.46,0,0,1-.56-3.75,11.34,11.34,0,0,1,.56-3.73,7.59,7.59,0,0,1,1.58-2.74,6.82,6.82,0,0,1,2.45-1.71,8.87,8.87,0,0,1,6.31,0,6.85,6.85,0,0,1,2.45,1.72,7.92,7.92,0,0,1,1.58,2.76,11.5,11.5,0,0,1,.56,3.7,11.73,11.73,0,0,1-.56,3.75,8.21,8.21,0,0,1-1.58,2.8,7,7,0,0,1-2.45,1.77A8.06,8.06,0,0,1,294.32,42.75Zm0-3.32a3.21,3.21,0,0,0,2.78-1.51,7.21,7.21,0,0,0,1-4.1,6.82,6.82,0,0,0-1-4,3.39,3.39,0,0,0-5.55,0,6.82,6.82,0,0,0-1,4,7.21,7.21,0,0,0,1,4.1A3.19,3.19,0,0,0,294.32,39.43Z"/><path class="cls-5" d="M305.29,42.44V25.37h6.15a12.27,12.27,0,0,1,2.56.26,6,6,0,0,1,2.08.88,4.39,4.39,0,0,1,1.41,1.63,5.53,5.53,0,0,1,.52,2.54,5.4,5.4,0,0,1-.82,3.1A5,5,0,0,1,315,35.6l3.87,6.84h-4.32l-3.27-6.16h-2.12v6.16Zm3.85-9.22h2a3.64,3.64,0,0,0,2.32-.64,2.3,2.3,0,0,0,.79-1.9,1.9,1.9,0,0,0-.79-1.75,4.47,4.47,0,0,0-2.32-.5h-2Z"/><path class="cls-5" d="M333.51,42.75a8.13,8.13,0,0,1-3.16-.61,6.94,6.94,0,0,1-2.44-1.77,8.23,8.23,0,0,1-1.59-2.8,11.73,11.73,0,0,1-.56-3.75,11.6,11.6,0,0,1,.56-3.73,7.76,7.76,0,0,1,1.59-2.74,6.78,6.78,0,0,1,2.44-1.71,8.31,8.31,0,0,1,3.16-.58,8.22,8.22,0,0,1,3.15.58,6.85,6.85,0,0,1,2.45,1.72,7.77,7.77,0,0,1,1.58,2.76,11.23,11.23,0,0,1,.57,3.7,11.45,11.45,0,0,1-.57,3.75,8,8,0,0,1-1.58,2.8,7,7,0,0,1-2.45,1.77A8,8,0,0,1,333.51,42.75Zm0-3.32a3.19,3.19,0,0,0,2.77-1.51,7.21,7.21,0,0,0,1-4.1,6.82,6.82,0,0,0-1-4,3.39,3.39,0,0,0-5.55,0,6.82,6.82,0,0,0-1,4,7.21,7.21,0,0,0,1,4.1A3.22,3.22,0,0,0,333.51,39.43Z"/><path class="cls-5" d="M351.21,42.75a6.45,6.45,0,0,1-5.08-2q-1.75-2-1.76-6.26V25.37h3.88v9.55a6,6,0,0,0,.76,3.51,2.6,2.6,0,0,0,2.2,1,2.68,2.68,0,0,0,2.22-1,5.86,5.86,0,0,0,.78-3.51V25.37h3.72v9.16q0,4.29-1.71,6.26A6.31,6.31,0,0,1,351.21,42.75Z"/><path class="cls-5" d="M361.88,42.44V25.37H368a12.24,12.24,0,0,1,2.55.26,5.92,5.92,0,0,1,2.08.88,4.39,4.39,0,0,1,1.41,1.63,5.52,5.52,0,0,1,.53,2.54,5.4,5.4,0,0,1-.83,3.1,4.93,4.93,0,0,1-2.21,1.82l3.87,6.84h-4.32l-3.27-6.16h-2.12v6.16Zm3.85-9.22h2a3.62,3.62,0,0,0,2.32-.64,2.3,2.3,0,0,0,.8-1.9,1.91,1.91,0,0,0-.8-1.75,4.44,4.44,0,0,0-2.32-.5h-2Z"/><path class="cls-5" d="M381,42.44l5.34-17.07H391l5.34,17.07h-4.09l-1.05-4.06H386l-1.05,4.06Zm6.18-8.64-.42,1.57h3.64L390,33.8c-.25-.86-.48-1.76-.71-2.72s-.45-1.89-.68-2.78h-.11c-.2.91-.42,1.84-.64,2.79S387.41,32.94,387.17,33.8Z"/><path class="cls-5" d="M398.16,42.44V25.37H404a12.3,12.3,0,0,1,2.64.27,6.06,6.06,0,0,1,2.15.92,4.62,4.62,0,0,1,1.45,1.7,5.73,5.73,0,0,1,.54,2.61,5.85,5.85,0,0,1-.54,2.59,5,5,0,0,1-1.45,1.8,6.28,6.28,0,0,1-2.12,1.05,9.33,9.33,0,0,1-2.57.34H402v5.79ZM402,33.59h1.89c2.09,0,3.14-.91,3.14-2.72A2.09,2.09,0,0,0,406.2,29a4.45,4.45,0,0,0-2.41-.55H402Z"/><path class="cls-5" d="M413.77,42.44V25.37h6.15a12.24,12.24,0,0,1,2.55.26,5.92,5.92,0,0,1,2.08.88A4.39,4.39,0,0,1,426,28.14a5.52,5.52,0,0,1,.53,2.54,5.4,5.4,0,0,1-.83,3.1,4.93,4.93,0,0,1-2.21,1.82l3.88,6.84H423l-3.28-6.16h-2.12v6.16Zm3.84-9.22h2a3.6,3.6,0,0,0,2.32-.64,2.3,2.3,0,0,0,.8-1.9,1.91,1.91,0,0,0-.8-1.75,4.42,4.42,0,0,0-2.32-.5h-2Z"/><path class="cls-5" d="M429.81,42.44V25.37h3.85V42.44Z"/><path class="cls-5" d="M437.69,42.44V25.37h3.85V39.19h6.75v3.25Z"/><path class="cls-5" d="M455.44,42.44v-2.2c1.06-1,2-1.93,2.92-2.79S460,35.77,460.63,35a12.46,12.46,0,0,0,1.49-2.13,3.85,3.85,0,0,0,.54-1.87,2.56,2.56,0,0,0-.63-1.87,2.27,2.27,0,0,0-1.72-.64,2.72,2.72,0,0,0-1.63.51,9.23,9.23,0,0,0-1.33,1.19l-2.1-2.07a9.43,9.43,0,0,1,2.52-2,6.46,6.46,0,0,1,3.06-.67,6.38,6.38,0,0,1,2.24.38A5.14,5.14,0,0,1,464.81,27a4.68,4.68,0,0,1,1.12,1.67,5.65,5.65,0,0,1-.05,4.3,11.36,11.36,0,0,1-1.19,2.17,23.08,23.08,0,0,1-1.7,2.18q-1,1.08-2,2.13c.42,0,.89-.1,1.4-.14s1-.07,1.38-.07h3.35v3.25Z"/><path class="cls-5" d="M474.28,42.75a6.38,6.38,0,0,1-2.86-.6,7.52,7.52,0,0,1-2-1.39l2-2.3a3.65,3.65,0,0,0,1.12.82,3.13,3.13,0,0,0,1.44.36,3.17,3.17,0,0,0,1.31-.27,2.56,2.56,0,0,0,1.06-.87,4.75,4.75,0,0,0,.73-1.6,10,10,0,0,0,.33-2.45,4,4,0,0,1-.73.75,5.07,5.07,0,0,1-.87.55,4.4,4.4,0,0,1-.89.34,3.14,3.14,0,0,1-.83.12,6,6,0,0,1-2-.32,4.26,4.26,0,0,1-1.56-.94,4.42,4.42,0,0,1-1-1.6,6.24,6.24,0,0,1-.38-2.27,5.92,5.92,0,0,1,.44-2.32,5.54,5.54,0,0,1,1.2-1.77,4.84,4.84,0,0,1,1.75-1.11,6,6,0,0,1,2.13-.38,6.16,6.16,0,0,1,2.35.47,5.47,5.47,0,0,1,2,1.47A7.24,7.24,0,0,1,480.47,30a11.54,11.54,0,0,1,.54,3.76,13.07,13.07,0,0,1-.56,4,8.54,8.54,0,0,1-1.49,2.8,5.89,5.89,0,0,1-2.15,1.63A6.15,6.15,0,0,1,474.28,42.75Zm.61-9.27a2.61,2.61,0,0,0,1.32-.38,3.15,3.15,0,0,0,1.16-1.27,4.81,4.81,0,0,0-1-2.7,2.18,2.18,0,0,0-1.61-.75,2,2,0,0,0-1.46.64,2.85,2.85,0,0,0-.63,2.06,2.35,2.35,0,0,0,.63,1.87A2.3,2.3,0,0,0,474.89,33.48Z"/><path class="cls-5" d="M486,33.9a3.07,3.07,0,0,1-1.2-.21,2,2,0,0,1-.81-.6,2.41,2.41,0,0,1-.46-.92,4.94,4.94,0,0,1-.14-1.2V27.91h-1V26.24l1.16-.09.26-2h1.86v2h1.82v1.76h-1.82v3a1.32,1.32,0,0,0,.27.93,1,1,0,0,0,.71.28,1.64,1.64,0,0,0,.37,0,1.51,1.51,0,0,0,.34-.11l.36,1.64-.72.18A4.61,4.61,0,0,1,486,33.9Z"/><path class="cls-5" d="M489,33.72V23h2.24v2.63L491.08,27a5.9,5.9,0,0,1,1-.7,2.59,2.59,0,0,1,1.34-.33,2,2,0,0,1,1.79.81,3.9,3.9,0,0,1,.56,2.24v4.7h-2.24V29.31a2,2,0,0,0-.23-1.13.81.81,0,0,0-.71-.31,1.35,1.35,0,0,0-.73.2,3.59,3.59,0,0,0-.67.54v5.11Z"/><path class="cls-5" d="M511,42.75a8.44,8.44,0,0,1-3.06-.56,7.16,7.16,0,0,1-2.53-1.67,7.84,7.84,0,0,1-1.71-2.73,10.47,10.47,0,0,1-.63-3.78,10.42,10.42,0,0,1,.65-3.79,8.61,8.61,0,0,1,1.76-2.81,7.26,7.26,0,0,1,2.56-1.75,8.1,8.1,0,0,1,3.09-.6,6.48,6.48,0,0,1,3,.66,8.28,8.28,0,0,1,2.17,1.56l-2,2.46a6.34,6.34,0,0,0-1.38-1,3.44,3.44,0,0,0-1.63-.38,3.74,3.74,0,0,0-3,1.47,5.27,5.27,0,0,0-.89,1.72,7.49,7.49,0,0,0-.33,2.31A6.55,6.55,0,0,0,508.19,38a3.61,3.61,0,0,0,3,1.46,3.87,3.87,0,0,0,1.87-.46,6,6,0,0,0,1.45-1.14l2,2.41A6.94,6.94,0,0,1,511,42.75Z"/><path class="cls-5" d="M525.12,42.75a8,8,0,0,1-3.15-.61,7,7,0,0,1-2.45-1.77,8,8,0,0,1-1.58-2.8,11.46,11.46,0,0,1-.56-3.75,11.34,11.34,0,0,1,.56-3.73,7.59,7.59,0,0,1,1.58-2.74A6.82,6.82,0,0,1,522,25.64a8.87,8.87,0,0,1,6.31,0,6.81,6.81,0,0,1,2.44,1.72,7.79,7.79,0,0,1,1.59,2.76,11.5,11.5,0,0,1,.56,3.7,11.73,11.73,0,0,1-.56,3.75,8.06,8.06,0,0,1-1.59,2.8,6.94,6.94,0,0,1-2.44,1.77A8.06,8.06,0,0,1,525.12,42.75Zm0-3.32a3.21,3.21,0,0,0,2.78-1.51,7.21,7.21,0,0,0,1-4.1,6.82,6.82,0,0,0-1-4,3.39,3.39,0,0,0-5.55,0,6.82,6.82,0,0,0-1,4,7.21,7.21,0,0,0,1,4.1A3.19,3.19,0,0,0,525.12,39.43Z"/><path class="cls-5" d="M536.09,42.44V25.37h3.85v6.57h5.89V25.37h3.87V42.44h-3.87V35.32h-5.89v7.12Z"/><path class="cls-5" d="M560.67,42.75a8,8,0,0,1-3.15-.61,6.89,6.89,0,0,1-2.45-1.77,8.23,8.23,0,0,1-1.59-2.8,11.73,11.73,0,0,1-.56-3.75,11.6,11.6,0,0,1,.56-3.73,7.76,7.76,0,0,1,1.59-2.74,6.74,6.74,0,0,1,2.45-1.71,8.84,8.84,0,0,1,6.3,0,6.76,6.76,0,0,1,2.45,1.72,7.94,7.94,0,0,1,1.59,2.76,11.5,11.5,0,0,1,.56,3.7,11.73,11.73,0,0,1-.56,3.75,8.23,8.23,0,0,1-1.59,2.8,6.89,6.89,0,0,1-2.45,1.77A8,8,0,0,1,560.67,42.75Zm0-3.32a3.19,3.19,0,0,0,2.77-1.51,7.21,7.21,0,0,0,1-4.1,6.82,6.82,0,0,0-1-4,3.38,3.38,0,0,0-5.54,0,6.75,6.75,0,0,0-1,4,7.13,7.13,0,0,0,1,4.1A3.19,3.19,0,0,0,560.67,39.43Z"/><path class="cls-5" d="M571.64,42.44V25.37h6.15a12.1,12.1,0,0,1,2.55.26,5.92,5.92,0,0,1,2.08.88,4.33,4.33,0,0,1,1.42,1.63,5.66,5.66,0,0,1,.52,2.54,5.47,5.47,0,0,1-.82,3.1,5,5,0,0,1-2.22,1.82l3.88,6.84h-4.32l-3.27-6.16h-2.12v6.16Zm3.85-9.22h2a3.6,3.6,0,0,0,2.32-.64,2.3,2.3,0,0,0,.8-1.9,1.91,1.91,0,0,0-.8-1.75,4.42,4.42,0,0,0-2.32-.5h-2Z"/><path class="cls-5" d="M590.54,42.44V28.62h-4.69V25.37H599.1v3.25h-4.69V42.44Z"/><path class="cls-5" d="M604.2,42.75a2.21,2.21,0,0,1-1.66-.69,2.57,2.57,0,0,1,0-3.46,2.34,2.34,0,0,1,3.32,0,2.57,2.57,0,0,1,0,3.46A2.21,2.21,0,0,1,604.2,42.75Zm-1.26-6.36-.55-8-.13-3.48h3.88L606,28.38l-.55,8Z"/></g></svg>