<svg xmlns="http://www.w3.org/2000/svg" xmlns:xlink="http://www.w3.org/1999/xlink" viewBox="0 0 690 64"><defs><style>.cls-1{isolation:isolate;}.cls-2{fill:url(#linear-gradient);}.cls-3{fill:url(#linear-gradient-2);}.cls-4{fill:#77bcbb;}.cls-5{fill:#5a8f90;}.cls-6{opacity:0.75;mix-blend-mode:multiply;}.cls-7{fill:gray;}.cls-8{fill:#fff;}</style><linearGradient id="linear-gradient" x1="627.32" y1="30.49" x2="684.32" y2="30.49" gradientUnits="userSpaceOnUse"><stop offset="0" stop-color="#609a99"/><stop offset="1" stop-color="#80cdd2"/></linearGradient><linearGradient id="linear-gradient-2" x1="1507.58" y1="743.19" x2="1545.87" y2="743.19" gradientTransform="translate(1804.49 899.5) rotate(180) scale(1.16)" xlink:href="#linear-gradient"/></defs><title>announcement</title><g class="cls-1"><g id="Layer_1" data-name="Layer 1"><polygon class="cls-2" points="684.32 5.07 649.17 3.17 628.27 5.07 631.12 31.67 627.32 52.57 652.97 53.52 679.83 57.81 681.31 55.79 652.97 30.72 667.11 18.88 666.73 14.2 671.04 16.07 684.32 5.07"/><polygon class="cls-3" points="43.15 61.72 18.59 47.94 11.44 45.65 19.82 40.5 24.29 37.6 26.81 38.66 26.15 36.69 31.52 33.46 21.01 16.89 2.56 7.83 25.18 7.63 52.22 13.85 52.45 39.37 43.15 61.72"/><polygon class="cls-4" points="637.32 57.52 621.63 56.86 506.91 57.77 379.88 55.95 378.55 53.42 376.95 55.87 232.99 55.39 77.51 57.94 61.91 57.26 60.99 54.22 59.24 57.11 39.16 54.16 46.57 34.48 45.07 9.44 73.73 10.05 227.94 8.08 499.06 10.26 623.01 8.72 635.32 7.52 632.32 31.52 637.32 57.52"/><polygon class="cls-5" points="43.15 61.72 39.16 54.16 45.87 55.2 43.15 61.72"/><g class="cls-6"><path class="cls-7" d="M60.33,26h3.84l4.32,8.23,1.63,3.63h.1c-.17-1.75-.47-4.07-.47-6V26h3.56V42.52H69.48l-4.32-8.26-1.64-3.61h-.1c.18,1.83.48,4,.48,6v5.88H60.33Z"/><path class="cls-7" d="M76.44,34.17c0-5.41,3-8.51,7.51-8.51s7.52,3.12,7.52,8.51-3,8.65-7.52,8.65S76.44,39.58,76.44,34.17Zm11.19,0c0-3.32-1.42-5.28-3.68-5.28s-3.68,2-3.68,5.28,1.42,5.42,3.68,5.42S87.63,37.49,87.63,34.17Z"/><path class="cls-7" d="M92.92,26h3.84L97.9,33.7c.22,1.74.46,3.49.68,5.23h.1c.32-1.74.66-3.51,1-5.23L101.45,26h3.17l1.78,7.73c.33,1.68.66,3.46,1,5.23h.11c.21-1.77.44-3.53.66-5.23L109.31,26h3.57l-2.94,16.55h-4.7L103.62,35c-.26-1.28-.48-2.61-.66-3.84h-.1c-.2,1.23-.41,2.56-.67,3.84l-1.57,7.52H96Z"/><path class="cls-7" d="M120.25,26h10.37V29.1H124v3.33h5.64v3.14H124v3.81h6.88v3.14H120.25Z"/><path class="cls-7" d="M134.17,26H138l4.32,8.23L144,37.83h.1c-.18-1.75-.48-4.07-.48-6V26h3.56V42.52h-3.83L139,34.26l-1.63-3.61h-.11c.18,1.83.48,4,.48,6v5.88h-3.56Z"/><path class="cls-7" d="M151.05,26h6c3.51,0,6.39,1.22,6.39,5.15s-2.88,5.44-6.39,5.44h-2.22v6h-3.74Zm5.66,7.62c2,0,3-.84,3-2.47s-1.06-2.18-3-2.18h-1.92v4.65Zm-.38,2,2.58-2.39,5.29,9.34H160Z"/><path class="cls-7" d="M165.83,34.17c0-5.41,3.06-8.51,7.52-8.51s7.51,3.12,7.51,8.51-3.05,8.65-7.51,8.65S165.83,39.58,165.83,34.17Zm11.2,0c0-3.32-1.42-5.28-3.68-5.28s-3.68,2-3.68,5.28,1.42,5.42,3.68,5.42S177,37.49,177,34.17Z"/><path class="cls-7" d="M184,26h3.74V39.38h6.53v3.14H184Z"/><path class="cls-7" d="M197.13,26h3.74V39.38h6.54v3.14H197.13Z"/><path class="cls-7" d="M210.28,26H214V42.52h-3.75Z"/><path class="cls-7" d="M217.93,26h3.83l4.32,8.23,1.63,3.63h.11c-.18-1.75-.48-4.07-.48-6V26h3.56V42.52h-3.83l-4.32-8.26-1.64-3.61H221c.18,1.83.48,4,.48,6v5.88h-3.56Z"/><path class="cls-7" d="M234,34.34c0-5.49,3.65-8.68,8.06-8.68a7.2,7.2,0,0,1,5.23,2.15l-2,2.4a4.26,4.26,0,0,0-3.12-1.32c-2.55,0-4.36,2-4.36,5.32s1.54,5.38,4.66,5.38a3,3,0,0,0,1.75-.49V36.24h-2.74V33.19h6.06v7.63a8,8,0,0,1-5.46,2C237.57,42.82,234,39.91,234,34.34Z"/><path class="cls-7" d="M256.09,26h10.44V29.1h-6.7v3.84h5.72v3.14h-5.72v6.44h-3.74Z"/><path class="cls-7" d="M268.35,34.17c0-5.41,3.06-8.51,7.52-8.51s7.52,3.12,7.52,8.51-3.06,8.65-7.52,8.65S268.35,39.58,268.35,34.17Zm11.2,0c0-3.32-1.42-5.28-3.68-5.28s-3.68,2-3.68,5.28,1.42,5.42,3.68,5.42S279.55,37.49,279.55,34.17Z"/><path class="cls-7" d="M286.5,26h6c3.51,0,6.39,1.22,6.39,5.15s-2.88,5.44-6.39,5.44h-2.21v6H286.5Zm5.66,7.62c2,0,3-.84,3-2.47s-1.05-2.18-3-2.18h-1.91v4.65Zm-.38,2,2.59-2.39,5.28,9.34h-4.19Z"/><path class="cls-7" d="M306.36,34.17c0-5.41,3.06-8.51,7.52-8.51s7.51,3.12,7.51,8.51-3.05,8.65-7.51,8.65S306.36,39.58,306.36,34.17Zm11.2,0c0-3.32-1.42-5.28-3.68-5.28s-3.68,2-3.68,5.28,1.42,5.42,3.68,5.42S317.56,37.49,317.56,34.17Z"/><path class="cls-7" d="M324.42,34.85V26h3.74v9.26c0,3.24,1,4.36,2.87,4.36S334,38.47,334,35.23V26h3.61v8.88c0,5.55-2.26,8-6.54,8S324.42,40.4,324.42,34.85Z"/><path class="cls-7" d="M341.4,26h6c3.51,0,6.38,1.22,6.38,5.15s-2.87,5.44-6.38,5.44h-2.22v6H341.4Zm5.65,7.62c2,0,3-.84,3-2.47s-1.06-2.18-3-2.18h-1.91v4.65Zm-.38,2,2.59-2.39,5.28,9.34h-4.19Z"/><path class="cls-7" d="M360.49,39.83,363,37.94a2.71,2.71,0,0,0,2.31,1.65c1.34,0,2.06-.68,2.06-2.89V26h3.74V37c0,3.18-1.65,5.81-5.31,5.81A5.61,5.61,0,0,1,360.49,39.83Z"/><path class="cls-7" d="M378,26h4.48l5.19,16.55h-4l-2.16-8.39c-.46-1.65-.9-3.61-1.34-5.33h-.11c-.4,1.74-.84,3.68-1.3,5.33l-2.17,8.39h-3.83Zm-1.77,9.7h8v2.9h-8Z"/><path class="cls-7" d="M389.3,26h3.84l4.32,8.23,1.63,3.63h.11c-.18-1.75-.48-4.07-.48-6V26h3.56V42.52h-3.83l-4.32-8.26-1.64-3.61h-.1c.18,1.83.48,4,.48,6v5.88H389.3Z"/><path class="cls-7" d="M406.1,34.85V26h3.74v9.26c0,3.24,1,4.36,2.87,4.36s2.93-1.12,2.93-4.36V26h3.61v8.88c0,5.55-2.26,8-6.54,8S406.1,40.4,406.1,34.85Z"/><path class="cls-7" d="M425.85,26h4.48l5.19,16.55h-4l-2.16-8.39c-.46-1.65-.9-3.61-1.35-5.33H428c-.4,1.74-.84,3.68-1.3,5.33l-2.17,8.39h-3.83Zm-1.77,9.7h8v2.9h-8Z"/><path class="cls-7" d="M437.11,26h6c3.51,0,6.39,1.22,6.39,5.15s-2.88,5.44-6.39,5.44h-2.21v6h-3.75Zm5.66,7.62c2,0,3-.84,3-2.47s-1.05-2.18-3-2.18h-1.91v4.65Zm-.38,2L445,33.18l5.28,9.34h-4.19Z"/><path class="cls-7" d="M455.14,36.61l-5-10.64h4l1.48,3.8c.44,1.24.88,2.39,1.35,3.67h.1c.47-1.28.94-2.43,1.4-3.67L460,26h3.91l-5,10.64v5.91h-3.74Z"/><path class="cls-7" d="M469.06,40.38c4.1-3.88,7-6.64,7-9A2.14,2.14,0,0,0,473.77,29a4.17,4.17,0,0,0-2.87,1.63l-2-2a6.79,6.79,0,0,1,5.4-2.55c3.18,0,5.35,2,5.35,5.13,0,2.72-2.54,5.61-5.18,8.34.83-.09,1.95-.18,2.7-.18h3.25v3.14H469.06Z"/><path class="cls-7" d="M482.58,38.39a4.45,4.45,0,0,1,2.76-4v-.1a4.6,4.6,0,0,1-2.17-3.79c0-2.75,2.16-4.45,5.16-4.45s4.9,1.74,4.9,4.42A4.4,4.4,0,0,1,491.12,34v.1a4.62,4.62,0,0,1,2.79,4.21c0,2.55-2.29,4.47-5.71,4.47C485,42.82,482.58,41,482.58,38.39Zm7.86-.16c0-1.43-1.38-2-3.41-2.81A3.51,3.51,0,0,0,485.8,38a2.29,2.29,0,0,0,2.49,2.26A1.93,1.93,0,0,0,490.44,38.23Zm-.24-7.47a1.88,1.88,0,0,0-2-2.08,1.71,1.71,0,0,0-1.79,1.86c0,1.31,1.12,1.94,2.76,2.59A3.61,3.61,0,0,0,490.2,30.76Z"/><path class="cls-7" d="M498,26.24H495.3V24.41h7.49v1.83h-2.66v7.82H498Z"/><path class="cls-7" d="M504.3,24.41h2.18v3.72h3.33V24.41H512v9.65h-2.18V30h-3.33v4H504.3Z"/><path class="cls-7" d="M519.38,34.34c0-5.49,3.63-8.68,7.82-8.68a7,7,0,0,1,5,2.15l-2,2.4a4.17,4.17,0,0,0-2.92-1.32c-2.27,0-4.06,2-4.06,5.32s1.58,5.38,4,5.38A4.36,4.36,0,0,0,530.46,38l2,2.35a6.82,6.82,0,0,1-5.35,2.43C522.89,42.82,519.38,39.91,519.38,34.34Z"/><path class="cls-7" d="M533.22,34.17c0-5.41,3-8.51,7.52-8.51s7.51,3.12,7.51,8.51-3,8.65-7.51,8.65S533.22,39.58,533.22,34.17Zm11.2,0c0-3.32-1.43-5.28-3.68-5.28s-3.69,2-3.69,5.28,1.43,5.42,3.69,5.42S544.42,37.49,544.42,34.17Z"/><path class="cls-7" d="M551.37,26h3.74v6.37h5.71V26h3.74V42.52h-3.74V35.61h-5.71v6.91h-3.74Z"/><path class="cls-7" d="M567.7,34.17c0-5.41,3-8.51,7.52-8.51s7.51,3.12,7.51,8.51-3.05,8.65-7.51,8.65S567.7,39.58,567.7,34.17Zm11.2,0c0-3.32-1.43-5.28-3.68-5.28s-3.69,2-3.69,5.28,1.43,5.42,3.69,5.42S578.9,37.49,578.9,34.17Z"/><path class="cls-7" d="M585.85,26h6c3.51,0,6.39,1.22,6.39,5.15s-2.88,5.44-6.39,5.44h-2.22v6h-3.74Zm5.65,7.62c2,0,3-.84,3-2.47s-1.06-2.18-3-2.18h-1.91v4.65Zm-.38,2,2.59-2.39L599,42.52h-4.18Z"/><path class="cls-7" d="M604.19,29.1h-4.55V26h12.85V29.1h-4.56V42.52h-3.74Z"/><path class="cls-7" d="M615.19,40.47a2.25,2.25,0,1,1,2.25,2.35A2.26,2.26,0,0,1,615.19,40.47Zm.5-11.59-.12-3.38h3.74l-.13,3.38-.52,7.76h-2.45Z"/></g><path class="cls-8" d="M59.33,25h3.84l4.32,8.23,1.63,3.63h.1c-.17-1.75-.47-4.07-.47-6V25h3.56V41.52H68.48l-4.32-8.26-1.64-3.61h-.1c.18,1.83.48,4,.48,6v5.88H59.33Z"/><path class="cls-8" d="M75.44,33.17c0-5.41,3-8.51,7.51-8.51s7.52,3.12,7.52,8.51-3,8.65-7.52,8.65S75.44,38.58,75.44,33.17Zm11.19,0c0-3.32-1.42-5.28-3.68-5.28s-3.68,2-3.68,5.28,1.42,5.42,3.68,5.42S86.63,36.49,86.63,33.17Z"/><path class="cls-8" d="M91.92,25h3.84L96.9,32.7c.22,1.74.46,3.49.68,5.23h.1c.32-1.74.66-3.51,1-5.23L100.45,25h3.17l1.78,7.73c.33,1.68.66,3.46,1,5.23h.11c.21-1.77.44-3.53.66-5.23L108.31,25h3.57l-2.94,16.55h-4.7L102.62,34c-.26-1.28-.48-2.61-.66-3.84h-.1c-.2,1.23-.41,2.56-.67,3.84l-1.57,7.52H95Z"/><path class="cls-8" d="M119.25,25h10.37V28.1H123v3.33h5.64v3.14H123v3.81h6.88v3.14H119.25Z"/><path class="cls-8" d="M133.17,25H137l4.32,8.23L143,36.83h.1c-.18-1.75-.48-4.07-.48-6V25h3.56V41.52h-3.83L138,33.26l-1.63-3.61h-.11c.18,1.83.48,4,.48,6v5.88h-3.56Z"/><path class="cls-8" d="M150.05,25h6c3.51,0,6.39,1.22,6.39,5.15s-2.88,5.44-6.39,5.44h-2.22v6h-3.74Zm5.66,7.62c2,0,3-.84,3-2.47s-1.06-2.18-3-2.18h-1.92v4.65Zm-.38,2,2.58-2.39,5.29,9.34H159Z"/><path class="cls-8" d="M164.83,33.17c0-5.41,3.06-8.51,7.52-8.51s7.51,3.12,7.51,8.51-3.05,8.65-7.51,8.65S164.83,38.58,164.83,33.17Zm11.2,0c0-3.32-1.42-5.28-3.68-5.28s-3.68,2-3.68,5.28,1.42,5.42,3.68,5.42S176,36.49,176,33.17Z"/><path class="cls-8" d="M183,25h3.74V38.38h6.53v3.14H183Z"/><path class="cls-8" d="M196.13,25h3.74V38.38h6.54v3.14H196.13Z"/><path class="cls-8" d="M209.28,25H213V41.52h-3.75Z"/><path class="cls-8" d="M216.93,25h3.83l4.32,8.23,1.63,3.63h.11c-.18-1.75-.48-4.07-.48-6V25h3.56V41.52h-3.83l-4.32-8.26-1.64-3.61H220c.18,1.83.48,4,.48,6v5.88h-3.56Z"/><path class="cls-8" d="M233,33.34c0-5.49,3.65-8.68,8.06-8.68a7.2,7.2,0,0,1,5.23,2.15l-2,2.4a4.26,4.26,0,0,0-3.12-1.32c-2.55,0-4.36,2-4.36,5.32s1.54,5.38,4.66,5.38a3,3,0,0,0,1.75-.49V35.24h-2.74V32.19h6.06v7.63a8,8,0,0,1-5.46,2C236.57,41.82,233,38.91,233,33.34Z"/><path class="cls-8" d="M255.09,25h10.44V28.1h-6.7v3.84h5.72v3.14h-5.72v6.44h-3.74Z"/><path class="cls-8" d="M267.35,33.17c0-5.41,3.06-8.51,7.52-8.51s7.52,3.12,7.52,8.51-3.06,8.65-7.52,8.65S267.35,38.58,267.35,33.17Zm11.2,0c0-3.32-1.42-5.28-3.68-5.28s-3.68,2-3.68,5.28,1.42,5.42,3.68,5.42S278.55,36.49,278.55,33.17Z"/><path class="cls-8" d="M285.5,25h6c3.51,0,6.39,1.22,6.39,5.15s-2.88,5.44-6.39,5.44h-2.21v6H285.5Zm5.66,7.62c2,0,3-.84,3-2.47s-1.05-2.18-3-2.18h-1.91v4.65Zm-.38,2,2.59-2.39,5.28,9.34h-4.19Z"/><path class="cls-8" d="M305.36,33.17c0-5.41,3.06-8.51,7.52-8.51s7.51,3.12,7.51,8.51-3.05,8.65-7.51,8.65S305.36,38.58,305.36,33.17Zm11.2,0c0-3.32-1.42-5.28-3.68-5.28s-3.68,2-3.68,5.28,1.42,5.42,3.68,5.42S316.56,36.49,316.56,33.17Z"/><path class="cls-8" d="M323.42,33.85V25h3.74v9.26c0,3.24,1,4.36,2.87,4.36S333,37.47,333,34.23V25h3.61v8.88c0,5.55-2.26,8-6.54,8S323.42,39.4,323.42,33.85Z"/><path class="cls-8" d="M340.4,25h6c3.51,0,6.38,1.22,6.38,5.15s-2.87,5.44-6.38,5.44h-2.22v6H340.4Zm5.65,7.62c2,0,3-.84,3-2.47s-1.06-2.18-3-2.18h-1.91v4.65Zm-.38,2,2.59-2.39,5.28,9.34h-4.19Z"/><path class="cls-8" d="M359.49,38.83,362,36.94a2.71,2.71,0,0,0,2.31,1.65c1.34,0,2.06-.68,2.06-2.89V25h3.74V36c0,3.18-1.65,5.81-5.31,5.81A5.61,5.61,0,0,1,359.49,38.83Z"/><path class="cls-8" d="M377,25h4.48l5.19,16.55h-4l-2.16-8.39c-.46-1.65-.9-3.61-1.34-5.33h-.11c-.4,1.74-.84,3.68-1.3,5.33l-2.17,8.39h-3.83Zm-1.77,9.7h8v2.9h-8Z"/><path class="cls-8" d="M388.3,25h3.84l4.32,8.23,1.63,3.63h.11c-.18-1.75-.48-4.07-.48-6V25h3.56V41.52h-3.83l-4.32-8.26-1.64-3.61h-.1c.18,1.83.48,4,.48,6v5.88H388.3Z"/><path class="cls-8" d="M405.1,33.85V25h3.74v9.26c0,3.24,1,4.36,2.87,4.36s2.93-1.12,2.93-4.36V25h3.61v8.88c0,5.55-2.26,8-6.54,8S405.1,39.4,405.1,33.85Z"/><path class="cls-8" d="M424.85,25h4.48l5.19,16.55h-4l-2.16-8.39c-.46-1.65-.9-3.61-1.35-5.33H427c-.4,1.74-.84,3.68-1.3,5.33l-2.17,8.39h-3.83Zm-1.77,9.7h8v2.9h-8Z"/><path class="cls-8" d="M436.11,25h6c3.51,0,6.39,1.22,6.39,5.15s-2.88,5.44-6.39,5.44h-2.21v6h-3.75Zm5.66,7.62c2,0,3-.84,3-2.47s-1.05-2.18-3-2.18h-1.91v4.65Zm-.38,2L444,32.18l5.28,9.34h-4.19Z"/><path class="cls-8" d="M454.14,35.61l-5-10.64h4l1.48,3.8c.44,1.24.88,2.39,1.35,3.67h.1c.47-1.28.94-2.43,1.4-3.67L459,25h3.91l-5,10.64v5.91h-3.74Z"/><path class="cls-8" d="M468.06,39.38c4.1-3.88,7-6.64,7-9A2.14,2.14,0,0,0,472.77,28a4.17,4.17,0,0,0-2.87,1.63l-2-2a6.79,6.79,0,0,1,5.4-2.55c3.18,0,5.35,2,5.35,5.13,0,2.72-2.54,5.61-5.18,8.34.83-.09,1.95-.18,2.7-.18h3.25v3.14H468.06Z"/><path class="cls-8" d="M481.58,37.39a4.45,4.45,0,0,1,2.76-4v-.1a4.6,4.6,0,0,1-2.17-3.79c0-2.75,2.16-4.45,5.16-4.45s4.9,1.74,4.9,4.42A4.4,4.4,0,0,1,490.12,33v.1a4.62,4.62,0,0,1,2.79,4.21c0,2.55-2.29,4.47-5.71,4.47C484,41.82,481.58,40,481.58,37.39Zm7.86-.16c0-1.43-1.38-2-3.41-2.81A3.51,3.51,0,0,0,484.8,37a2.29,2.29,0,0,0,2.49,2.26A1.93,1.93,0,0,0,489.44,37.23Zm-.24-7.47a1.88,1.88,0,0,0-2-2.08,1.71,1.71,0,0,0-1.79,1.86c0,1.31,1.12,1.94,2.76,2.59A3.61,3.61,0,0,0,489.2,29.76Z"/><path class="cls-8" d="M497,25.24H494.3V23.41h7.49v1.83h-2.66v7.82H497Z"/><path class="cls-8" d="M503.3,23.41h2.18v3.72h3.33V23.41H511v9.65h-2.18V29h-3.33v4H503.3Z"/><path class="cls-8" d="M518.38,33.34c0-5.49,3.63-8.68,7.82-8.68a7,7,0,0,1,5,2.15l-2,2.4a4.17,4.17,0,0,0-2.92-1.32c-2.27,0-4.06,2-4.06,5.32s1.58,5.38,4,5.38A4.36,4.36,0,0,0,529.46,37l2,2.35a6.82,6.82,0,0,1-5.35,2.43C521.89,41.82,518.38,38.91,518.38,33.34Z"/><path class="cls-8" d="M532.22,33.17c0-5.41,3-8.51,7.52-8.51s7.51,3.12,7.51,8.51-3,8.65-7.51,8.65S532.22,38.58,532.22,33.17Zm11.2,0c0-3.32-1.43-5.28-3.68-5.28s-3.69,2-3.69,5.28,1.43,5.42,3.69,5.42S543.42,36.49,543.42,33.17Z"/><path class="cls-8" d="M550.37,25h3.74v6.37h5.71V25h3.74V41.52h-3.74V34.61h-5.71v6.91h-3.74Z"/><path class="cls-8" d="M566.7,33.17c0-5.41,3-8.51,7.52-8.51s7.51,3.12,7.51,8.51-3.05,8.65-7.51,8.65S566.7,38.58,566.7,33.17Zm11.2,0c0-3.32-1.43-5.28-3.68-5.28s-3.69,2-3.69,5.28,1.43,5.42,3.69,5.42S577.9,36.49,577.9,33.17Z"/><path class="cls-8" d="M584.85,25h6c3.51,0,6.39,1.22,6.39,5.15s-2.88,5.44-6.39,5.44h-2.22v6h-3.74Zm5.65,7.62c2,0,3-.84,3-2.47s-1.06-2.18-3-2.18h-1.91v4.65Zm-.38,2,2.59-2.39L598,41.52h-4.18Z"/><path class="cls-8" d="M603.19,28.1h-4.55V25h12.85V28.1h-4.56V41.52h-3.74Z"/><path class="cls-8" d="M614.19,39.47a2.25,2.25,0,1,1,2.25,2.35A2.26,2.26,0,0,1,614.19,39.47Zm.5-11.59-.12-3.38h3.74l-.13,3.38-.52,7.76h-2.45Z"/><polygon class="cls-5" points="628.27 5.07 635.32 7.52 627.67 8.27 628.27 5.07"/></g></g></svg>