<svg id="Layer_1" data-name="Layer 1" xmlns="http://www.w3.org/2000/svg" viewBox="0 0 1600 400"><defs><style>.cls-1{fill:#a2dadb;}</style></defs><title>bg</title><polygon class="cls-1" points="913.42 217.45 906.88 217.64 911.21 209.75 905.71 207.22 900.2 216.78 893.69 207.78 889.51 211.82 893.98 218.01 885.63 218.26 885.84 224.29 895.9 224.23 890.94 232.82 896.78 236.07 901.2 228 906.42 235.22 911 231.74 905.54 224.18 913.74 224.13 913.42 217.45"/><polygon class="cls-1" points="263.51 45.37 271.91 92.47 281.58 91.57 280.24 44.55 263.51 45.37"/><polygon class="cls-1" points="290.02 45.26 294.84 89.64 307.44 88.82 306.8 49.28 302.39 44.73 290.02 45.26"/><polygon class="cls-1" points="297.19 92.17 294.81 100.41 302.22 105.85 309 101.64 306.8 93.97 297.19 92.17"/><polygon class="cls-1" points="281.12 95.64 283.58 103.56 277.04 107.75 271.41 103.54 273.31 95.34 281.12 95.64"/><polygon class="cls-1" points="1002.24 121.14 998.44 127.22 1015.76 139.33 1015.74 149.61 1002.05 158.16 1006.18 163.4 1024.63 153.56 1022.64 135.17 1002.24 121.14"/><polygon class="cls-1" points="1493.19 310.9 1497.15 316.05 1484.67 326.54 1484.5 340.5 1495.45 345.5 1493.32 351.98 1479.43 345.74 1478.9 322.93 1493.19 310.9"/><polygon class="cls-1" points="1415.58 231.2 1407.85 234.3 1392.29 216.84 1368.45 202.95 1366.88 192.09 1369.53 181.81 1386.09 179.01 1393.63 188.62 1392.48 201.97 1374.36 211.8 1371.96 221.17 1378.63 228.24 1390.72 226.03 1399.87 213.61 1402.03 201.36 1407.51 200.13 1407 218.92 1395.27 231.65 1374.88 235.43 1361.34 224.62 1368.79 208.26 1374.66 202.98 1385 197.84 1386.05 189.54 1381.58 185.22 1375.54 187.07 1373.33 193.69 1374.6 199.95 1395.96 211.12 1415.58 231.2"/><polygon class="cls-1" points="1337.73 163.69 1338.34 170.56 1320.59 172.2 1319.81 165.17 1337.73 163.69"/><polygon class="cls-1" points="1338.62 174.89 1339.73 182.22 1321.5 183.72 1321.21 176.82 1338.62 174.89"/><polygon class="cls-1" points="1315.8 177.66 1316.18 183.58 1298.93 185.5 1298.45 178.13 1315.8 177.66"/><polygon class="cls-1" points="1315.77 164.79 1316.69 171.65 1298.43 172.83 1298.19 166.57 1299.82 164.38 1315.77 164.79"/><polygon class="cls-1" points="127.73 130.49 132.31 159.27 140.41 158.75 138.72 128.79 127.73 130.49"/><polygon class="cls-1" points="132.36 163.05 134 169.27 141.13 169.01 141.01 163.28 132.36 163.05"/><polygon class="cls-1" points="147.97 152.48 148.76 160.47 168.52 159.35 167.8 150.23 147.97 152.48"/><polygon class="cls-1" points="147.79 137.3 148.45 145.29 166.86 144.34 166.25 134.89 147.79 137.3"/><path class="cls-1" d="M1245.09,70.87l-7.91,1.2.45-4.31,8.34-.64-1.08-9.26-6.27.51.81-7.72-9.62.47-.07,8-8.57.69,0-11.16L1210,48.06l.57,12.58-5,.41.43,9.14,5-.38.28,6.16-3.6.55.59,6.55,3.32-.37.29,6.41,9.42-1.09,0-6.4,8.3-.93,0,5.19,6.26-.25.6-5.7,9.58-1.07Zm-23.87,3.6,0-5.45,8.45-.65,0,4.84Z"/><polygon class="cls-1" points="1067.34 342.04 1071.63 344.22 1073.8 340.34 1079.75 339.66 1084.6 345.5 1082.35 350.48 1075.58 353.22 1075.86 364.7 1080.88 364.38 1081.01 357.19 1087.06 355.9 1091.62 345.59 1082.7 332.42 1070.92 332.88 1067.34 342.04"/><polygon class="cls-1" points="1076.03 367.5 1075.78 371 1079.6 374.36 1083.12 371.25 1080.88 368.27 1076.03 367.5"/><polygon class="cls-1" points="1096.28 365.29 1099.54 369.56 1105.13 367.84 1103.98 360.58 1099.19 359.94 1096.28 365.29"/><polygon class="cls-1" points="1094.99 336.09 1095.04 341.27 1098.46 344.27 1102.89 343.56 1103.52 338.06 1099.55 335.09 1094.99 336.09"/><polygon class="cls-1" points="38.49 105.17 33.98 112.54 57.06 123.75 42.46 139.18 47.02 142.58 67.54 121.63 38.49 105.17"/><polygon class="cls-1" points="1560.47 16.61 1566.29 22.03 1552.59 36.43 1569.5 46.75 1565.58 53.28 1537.85 37.38 1560.47 16.61"/><polygon class="cls-1" points="1366.99 323.44 1373.32 327.17 1353.3 354.62 1347.53 351.14 1366.99 323.44"/><polygon class="cls-1" points="1353.89 324.15 1359.52 327.37 1340.71 355.92 1334.33 351.08 1353.89 324.15"/><polygon class="cls-1" points="815.02 309.22 829.14 309.03 828.59 336.8 819.2 337.41 815.02 309.22"/><polygon class="cls-1" points="824.64 340.31 828.98 342.93 827.14 348.13 820.47 348.56 819.6 343.54 824.64 340.31"/><polygon class="cls-1" points="563.03 141.17 569.5 146 546.06 175.8 541.33 172.66 563.03 141.17"/><polygon class="cls-1" points="564.57 162.09 568.65 163.64 568.01 170.57 561.99 169.87 560.8 165.6 564.57 162.09"/><polygon class="cls-1" points="545.25 146.49 549.71 148.19 549.89 153.8 544 155.27 541.51 150.36 545.25 146.49"/><polygon class="cls-1" points="625.03 341.11 629.52 345.28 619.78 355.57 631.29 364.98 626.95 370.71 611.21 357.12 625.03 341.11"/><polygon class="cls-1" points="645.37 341.53 649.92 346.68 639.56 355.03 651.32 364.43 647.43 369.39 629.2 355.7 645.37 341.53"/><path class="cls-1" d="M753,263.4l-.43-14.19.7-.46,9.33,3.3L764,245s-7.31-1.39-11.55-2.15l-.14-4.6-8,4.06.64,4.35c-3.43,3.45-7.56,7.72-7.56,7.72l4.48,13.87h6.28l.54,3.64-3.47.39.66,5.16,3.57-.4.47,3.15,3.59-1-.08-2.62,8.94-1L765,269l-6.69-5.27Zm-7.6-.47-1.19-8.22,1.73-1.14,1.41,9.48Zm7.84,8.39-.1-3.13h1.55l.84,2.88Z"/><polygon class="cls-1" points="1241.55 378.69 1262.04 392.77 1250.9 411.08 1245.15 406.38 1253.25 394.25 1239.36 384.09 1241.55 378.69"/><polygon class="cls-1" points="1227.14 382.89 1242.73 394.21 1234.38 410.7 1227.39 406.44 1233.27 396.45 1223.42 389.84 1227.14 382.89"/><polygon class="cls-1" points="447.77 178.77 450.43 183.49 462.41 175.28 475.13 184.24 486.41 176.44 482.69 172.15 475.39 176.98 464.43 167.35 457.77 167.97 447.77 178.77"/><polygon class="cls-1" points="448.19 40.21 443.55 45.49 428.37 34.51 415.62 48.13 410.6 42.48 425.32 23.4 448.19 40.21"/><path class="cls-1" d="M430.61,260.78l-1.2,3-8.48-1.65-4.71,11.13,7.67,10.7,5.95-1.48,8.61,3.66L449.37,268l-13.62-18.76-20.56,3.35L408.36,274l13,16.77,10.21-2.86-.69-3.44-8.29,1.27-9-12.08,4.92-15,16.87-2.75,8.66,11.55-6.45,12.9-4.51-2.64,1.18-15.31Zm-1.91,16.09-3.16,1.49-5-5.18,2.24-6,7,.65Z"/><polygon class="cls-1" points="1043.63 198 1045.74 233.34 1052.36 233.27 1050.66 195.93 1043.63 198"/><polygon class="cls-1" points="1059.23 195.56 1060.89 232.18 1068.59 232.03 1066.54 194.91 1059.23 195.56"/><polygon class="cls-1" points="159.19 318.42 167.94 321.55 148.7 356.5 140.74 352.69 159.19 318.42"/><polygon class="cls-1" points="1223.47 232.8 1223.91 242.45 1260.74 241.31 1260.33 232.2 1257.66 229.69 1223.47 232.8"/><polygon class="cls-1" points="837.38 88.3 837.96 93.39 828.25 94.02 829.89 121.3 836.61 120.74 836.93 125.72 823.19 125.98 820.32 89.41 837.38 88.3"/><polygon class="cls-1" points="592.72 16.11 592.47 21.88 602.72 21.84 604.77 49.72 596.49 51.13 597.14 55.46 610.16 53.74 607.7 15.77 592.72 16.11"/><polygon class="cls-1" points="1120.39 21.19 1121.79 25.1 1113.03 31.1 1116.74 42.16 1114.8 45.29 1118.4 47.91 1116.42 59.2 1121.41 61.16 1119.54 65.43 1110.96 60.98 1114.17 50.91 1109.21 45.08 1112 41.75 1108.09 29.99 1120.39 21.19"/><polygon class="cls-1" points="148.43 55.38 146.14 59.03 154.7 63.25 151.53 72.86 154.88 74.75 151.89 78.46 158.07 87.18 151.88 93.48 155.05 96.92 163.17 87.83 157.23 78.53 160.15 73.71 155.9 71.04 160.97 60.46 148.43 55.38"/><polygon class="cls-1" points="1158.52 142.27 1163.9 148.18 1152.96 158.53 1164.36 166.19 1161.4 173 1144.49 160.16 1158.52 142.27"/><polygon class="cls-1" points="1167.27 147.78 1167.57 155.09 1183.55 153.51 1182.92 146.59 1167.27 147.78"/><polygon class="cls-1" points="1168.31 163.79 1168.7 169.84 1183.34 169.61 1182.73 163.04 1168.31 163.79"/><polygon class="cls-1" points="278.16 289.11 278.26 294.41 282.8 297.09 288.03 295.48 288.19 290.37 283.28 285.81 278.16 289.11"/><polygon class="cls-1" points="280.82 308.67 277.22 313.65 279.27 317.13 283.25 318 281.68 321.94 283.83 322.93 288.96 317.4 288.8 310.86 286.25 307.87 280.82 308.67"/><polygon class="cls-1" points="1352.86 54.73 1346.81 54.6 1346.78 45.42 1341.03 45.35 1341.47 54.48 1334.07 54.33 1334.29 59.16 1341.72 59.58 1342.13 67.9 1346.84 68.58 1346.82 59.87 1352.77 60.21 1352.86 54.73"/><polygon class="cls-1" points="1375.16 52.88 1367.1 53 1366.82 43.46 1361.75 42.8 1362.16 53.08 1357.21 53.15 1357.28 58.35 1362.38 58.43 1362.78 68.32 1367.53 68.19 1367.25 58.5 1375.35 58.62 1375.16 52.88"/><polygon class="cls-1" points="962.75 43.93 963.96 53.08 929.58 57.36 928.59 48.4 930.45 45.41 962.75 43.93"/><polygon class="cls-1" points="963.79 59.86 964.35 71.72 929.99 73.13 929.72 62.69 963.79 59.86"/><polygon class="cls-1" points="45.83 330.77 38.68 331.11 38.45 322.46 30.01 323.56 30.26 331.5 22.32 331.88 21.61 333.88 21.87 340 30.51 339.54 30.78 348.35 39.11 347.67 38.89 339.09 46.34 338.69 45.83 330.77"/></svg>