<svg id="Layer_1" data-name="Layer 1" xmlns="http://www.w3.org/2000/svg" viewBox="0 0 512 175"><defs><style>.cls-1{fill:#100e0f;fill-opacity:0.3;}.cls-2{fill:#fff;}</style></defs><title>birds</title><path class="cls-1" d="M105.15,15.16l15.5,1.2,12.51,18s54.05-3.8,67.76,4.6,25.9,28.54,25.9,28.54l-14.3.6s-5.64-14-19.15-18.74S127.2,59.54,127.2,59.54L115.28,42.75,104.55,54.14s-63.48-9.22-73.32-4.79S12.85,74.41,12.85,74.41L2.72,72.61S14.74,42,27.66,35.55s66.16,1.2,66.16,1.2Z"/><path class="cls-2" d="M105.15,5.57l15.5,1.19,12.51,18s54.05-3.8,67.76,4.59,25.9,28.54,25.9,28.54l-14.3.6s-5.64-13.94-19.15-18.74S127.2,49.94,127.2,49.94L115.28,33.15l-10.73,11.4s-63.48-9.23-73.32-4.8S12.85,64.82,12.85,64.82L2.72,63S14.74,32.35,27.66,26s66.16,1.2,66.16,1.2Z"/><path class="cls-1" d="M322.93,86.26l22.65-3,15.5,26.39,37.71-1c21.16-.55,44.3-2.14,65,4.88,26.19,8.88,37.28,30.53,45.21,55.59,0,0-18.45-2.36-18.48-2.4-4.85-7-14.95-20-18-22.4-8.82-7.07-19.88-9.43-31.15-11.36-13.27-2.29-25.18,1.73-38.17,3.68-15.87,2.38-31,6.59-46.91,9l-19.08-27.58-20.86,23.39L268,136.28c-14.57-1.56-32.32-5.55-47.36-2.64-17.54,3.39-33.38,16.79-38.11,29.06L165,161.63c11.13-20,32.09-38.3,34.18-39.18,15.1-6.4,31-12.12,64.6-10.81l41.3,1.61Z"/><path class="cls-2" d="M322.93,76.67l22.65-3,15.5,26.39,37.71-1c21.16-.55,44.3-2.14,65,4.88,26.19,8.87,37.28,30.52,45.21,55.58,0,0-18.45-2.36-18.48-2.4-4.85-7-14.95-20-18-22.39-8.82-7.08-19.88-9.43-31.15-11.37-13.27-2.28-25.18,1.74-38.17,3.69-15.87,2.38-31,6.59-46.91,9l-19.08-27.59-20.86,23.39L268,126.68c-14.57-1.55-32.32-5.55-47.36-2.64-17.54,3.4-33.38,16.8-38.11,29.07L165,152c11.13-20,32.09-38.3,34.18-39.18,15.1-6.4,31-12.11,64.6-10.8l41.3,1.6Z"/></svg>