<svg id="Layer_1" data-name="Layer 1" xmlns="http://www.w3.org/2000/svg" viewBox="0 0 397.3 300"><defs><style>.cls-1{fill:#37352f;opacity:0.3;}.cls-2{fill:#5a9090;}.cls-3{fill:#f7f1d9;}.cls-4{fill:#885780;}.cls-5{fill:#70496c;}.cls-6{fill:#9abadc;}.cls-7{fill:#80cfd3;}.cls-8{fill:#b2d234;}.cls-9{fill:#fff200;}.cls-10{fill:#f9a01b;}.cls-11{fill:#895881;}.cls-12{fill:#d5562b;}</style></defs><title>swag</title><circle class="cls-1" cx="203.18" cy="150.93" r="145.56"/><circle class="cls-2" cx="200.75" cy="148.5" r="145.56"/><circle class="cls-3" cx="200.75" cy="148.5" r="133.56"/><polygon class="cls-1" points="247.16 46.54 241.09 76.9 277.52 93.9 306.67 89.05 316.39 81.76 391.68 118.19 355.25 183.77 313.96 171.63 265.38 237.21 253.24 244.49 260.52 254.21 248.38 259.07 233.81 254.21 197.37 285.79 165.8 254.21 88.07 222.63 39.5 215.35 78.36 166.77 75.93 152.2 85.64 149.77 95.36 147.34 95.36 135.19 107.5 127.91 163.37 91.47 134.22 64.76 141.51 50.18 156.08 25.89 173.08 11.32 210.73 41.68 247.16 46.54"/><polygon class="cls-4" points="245.78 43.63 239.71 73.99 276.15 90.99 305.29 86.13 315.01 78.84 390.3 115.28 353.87 180.86 312.58 168.71 264 234.29 251.86 241.58 259.14 251.29 247 256.15 232.43 251.29 195.99 282.87 164.42 251.29 86.69 219.72 38.12 212.43 76.98 163.85 74.55 149.28 84.27 146.85 93.98 144.42 93.98 132.28 106.13 124.99 161.99 88.56 132.84 61.84 140.13 47.27 154.7 22.98 171.7 8.41 209.35 38.77 245.78 43.63"/><polygon class="cls-5" points="323.51 162.64 308.94 162.64 260.36 230.65 250.64 235.51 231.21 228.22 248.21 247.65 231.21 242.79 219.07 250.08 226.35 235.51 219.07 220.93 233.64 218.5 250.64 230.65 255.5 203.93 277.36 194.22 299.22 160.21 299.22 140.78 313.79 140.78 316.22 152.93 328.37 157.78 323.51 162.64"/><polygon class="cls-5" points="158.35 67.92 189.92 70.34 175.35 99.49 141.34 106.78 170.49 87.35 155.92 75.2 158.35 67.92"/><polygon class="cls-5" points="85.48 150.5 100.05 148.07 102.48 140.78 117.06 152.93 119.48 160.21 95.19 157.78 85.48 150.5"/><polygon class="cls-5" points="311.37 87.35 316.22 92.2 311.37 97.06 274.93 101.92 228.78 80.06 233.64 48.48 240.93 48.48 236.07 75.2 274.93 94.63 306.51 89.78 311.37 87.35"/><path class="cls-6" d="M259.31,136.62s3.54-19.12-11.17-27.66-30,11.32-30,11.32Z"/><polygon class="cls-6" points="189.25 104.59 208.75 114.05 202.93 116.63 264.4 142.29 264.13 147.97 269.55 153.92 255.07 158.94 254.14 178.84 240.33 169.65 243.44 164.09 181.97 138.43 184.95 135.72 171.14 126.53 191.17 124.62 189.25 104.59"/><polygon class="cls-1" points="28.97 160.39 29 165.78 18.66 167.91 24.29 174.3 22.47 185.54 27.98 183.41 27.06 188.56 27.55 200.58 52.23 205.19 74.09 190.98 70.47 182.59 74.08 180.85 69.43 173.61 71.86 164.48 62.34 165.37 56.89 154.63 28.97 160.39"/><polygon class="cls-3" points="28.13 159.96 28.17 165.34 17.82 167.48 23.45 173.86 21.63 185.11 27.14 182.98 26.22 188.13 26.72 200.15 51.39 204.76 73.26 190.55 69.63 182.15 73.24 180.42 68.6 173.18 71.03 164.05 61.51 164.94 56.06 154.2 28.13 159.96"/><polygon class="cls-7" points="29.68 161.62 28.49 184.69 28.38 198.59 51.08 202.84 71.2 189.76 55.38 156.32 29.68 161.62"/><polygon class="cls-8" points="50.06 201.33 55.05 198.05 45.54 200.02 50.06 201.33"/><polygon class="cls-9" points="42.49 199.65 57.71 196.51 64.73 192.09 34.09 197.42 42.49 199.65"/><polygon class="cls-10" points="30.26 191.28 30.09 197.25 68.15 189.4 64.87 183.13 30.26 191.28"/><polygon class="cls-11" points="20.5 168.76 25.72 174.26 23.16 183.12 28.01 181.02 27.94 184.2 62.74 177.62 66.58 181.79 72.28 180.22 67.32 173.48 69.88 165.18 60.81 165.87 59.73 163.26 30.7 171.33 29.89 166.74 20.5 168.76"/><polygon class="cls-12" points="56.37 179.31 58.57 181.46 58.5 184.08 50.6 186.08 49.06 183.42 49.75 180.78 56.37 179.31"/><polygon class="cls-1" points="12.61 165.1 13.85 170.34 4.25 174.74 11.17 179.7 11.92 191.06 16.81 187.75 17.07 192.98 20.25 204.58 45.33 203.53 63.45 184.77 58.03 177.41 61.16 174.9 55.01 168.89 55.33 159.45 46.25 162.45 38.52 153.21 12.61 165.1"/><polygon class="cls-3" points="11.7 164.86 12.94 170.1 3.34 174.5 10.26 179.46 11.01 190.83 15.9 187.52 16.16 192.74 19.34 204.34 44.42 203.3 62.54 184.54 57.12 177.17 60.24 174.67 54.1 168.66 54.41 159.22 45.34 162.22 37.61 152.98 11.7 164.86"/><polygon class="cls-7" points="13.58 166.14 17.59 188.88 20.61 202.46 43.69 201.5 60.36 184.24 37.43 155.2 13.58 166.14"/><polygon class="cls-8" points="42.35 200.25 46.48 195.94 37.65 199.99 42.35 200.25"/><polygon class="cls-9" points="34.6 200.32 48.73 193.84 54.58 187.95 25.91 200.03 34.6 200.32"/><polygon class="cls-10" points="20.81 194.91 21.98 200.76 57.3 184.57 52.7 179.19 20.81 194.91"/><polygon class="cls-11" points="6.23 175.15 12.56 179.34 12.05 188.54 16.3 185.42 16.95 188.53 49.39 174.3 54.06 177.5 59.27 174.69 52.91 169.24 53.55 160.58 44.86 163.29 43.23 160.99 16.75 175.37 14.93 171.07 6.23 175.15"/><polygon class="cls-12" points="43.55 177.38 46.19 178.97 46.71 181.55 39.45 185.27 37.36 183.02 37.43 180.3 43.55 177.38"/></svg>