<?xml version="1.0" encoding="utf-8"?>
<!-- Generator: Adobe Illustrator 23.0.1, SVG Export Plug-In . SVG Version: 6.00 Build 0)  -->
<svg version="1.1" id="Layer_1" xmlns="http://www.w3.org/2000/svg" xmlns:xlink="http://www.w3.org/1999/xlink" x="0px" y="0px"
	 viewBox="0 0 512 512" style="enable-background:new 0 0 512 512;" xml:space="preserve">
<style type="text/css">
	.st0{opacity:0.2;fill:#37362F;}
	.st1{fill:#A3BF3B;}
	.st2{fill:#E4D321;}
	.st3{fill:#D6562B;}
	.st4{fill:#885780;}
	.st5{fill:#77BDBB;}
	.st6{fill:#37362F;}
	.st7{font-family:'SourceSerifPro-Bold';}
	.st8{font-size:43.7649px;}
</style>
<polygon class="st0" points="336.08,177.76 199.33,275.06 414.58,371.34 495.62,241.26 "/>
<polygon class="st0" points="127.16,257.05 299.36,247.83 332.28,415.81 147.42,442.44 110.7,267.29 "/>
<path class="st0" d="M27.13,206.86l141.81-48.14l82.3,195.63c0,0-86.1,38.92-89.9,35.85C157.55,387.13,27.13,206.86,27.13,206.86z"
	/>
<polygon class="st0" points="67.65,37.87 276.23,13.29 377.86,135.17 95.5,239.64 "/>
<path class="st0" d="M328.92,9.9c0,0-99.45,76.68-90.08,78.51c9.37,1.84,86.25,154.6,86.25,154.6l131.64-48.22L328.92,9.9z"/>
<polygon class="st1" points="325.71,181.76 188.96,279.07 404.21,375.34 485.25,245.27 "/>
<polygon class="st2" points="116.78,254.48 288.99,245.27 321.91,413.24 137.04,439.87 100.32,264.73 "/>
<path class="st3" d="M16.75,204.3l141.81-48.14l82.3,195.63c0,0-86.1,38.92-89.9,35.85C147.17,384.56,16.75,204.3,16.75,204.3z"/>
<polygon class="st4" points="57.27,35.3 265.85,10.72 367.49,132.6 85.13,237.07 "/>
<path class="st5" d="M318.54,7.34c0,0-99.45,76.68-90.08,78.51c9.37,1.84,86.25,154.6,86.25,154.6l131.64-48.22L318.54,7.34z"/>
<text transform="matrix(1 0 0 1 18.374 491.2773)" class="st6 st7 st8">Placeholder Illustration</text>
</svg>
