<?xml version="1.0" standalone="no"?>
<!DOCTYPE svg PUBLIC "-//W3C//DTD SVG 20010904//EN"
 "http://www.w3.org/TR/2001/REC-SVG-20010904/DTD/svg10.dtd">
<svg version="1.0" xmlns="http://www.w3.org/2000/svg"
 width="476.000000pt" height="476.000000pt" viewBox="0 0 476.000000 476.000000"
 preserveAspectRatio="xMidYMid meet">
<metadata>
Created by potrace 1.11, written by Peter Selinger 2001-2013
</metadata>
<g transform="translate(0.000000,476.000000) scale(0.100000,-0.100000)"
fill="#000000" stroke="none">
<path d="M2368 4755 c-2 -2 -46 -5 -98 -6 -88 -2 -166 -8 -295 -25 -27 -3 -52
-7 -55 -9 -3 -2 -25 -6 -49 -10 -24 -3 -54 -10 -67 -15 -13 -5 -24 -8 -24 -5
0 2 -46 -12 -102 -31 -252 -87 -715 -356 -924 -537 -109 -94 -134 -117 -189
-177 -71 -76 -98 -115 -192 -270 -192 -320 -312 -657 -350 -980 -16 -135 -9
-464 13 -587 130 -732 474 -1266 1068 -1657 98 -64 280 -162 394 -210 156 -67
479 -169 602 -191 190 -33 405 -43 520 -24 30 5 72 11 92 14 80 12 318 75 408
108 134 49 161 61 285 123 651 326 1112 935 1273 1684 24 111 30 140 37 195 3
22 8 51 10 65 19 110 33 444 21 505 -2 11 -7 47 -11 80 -3 32 -8 62 -10 65 -2
3 -6 21 -9 40 -3 19 -21 89 -40 155 -114 393 -337 781 -595 1035 -314 310
-813 551 -1291 625 -153 23 -162 24 -281 30 -63 4 -119 8 -126 10 -6 2 -13 2
-15 0z"/>
</g>
</svg>
