<svg xmlns="http://www.w3.org/2000/svg" viewBox="0 0 1024 1024"><defs><style>.cls-1{fill:#f36e55;}.cls-2{fill:#b64f41;}.cls-3{fill:#64c3be;}.cls-4{fill:#c1e1df;}.cls-5{fill:#ffe47f;}.cls-6{fill:#036281;}.cls-7{fill:#faa61a;}.cls-8{fill:#f3f3f3;}</style></defs><title>dmds</title><g id="Layer_5" data-name="Layer 5"><rect class="cls-1" width="1024" height="1024"/><path class="cls-2" d="M329.53,693h542.7S914,546.84,830.49,531.19s-104.37,10.43-104.37,10.43,0-146.11-161.76-161.76S407.81,510.32,407.81,510.32,319.1,473.79,303.44,562.5,329.53,693,329.53,693Z"/><circle class="cls-3" cx="900.03" cy="124.16" r="88.71"/><circle class="cls-4" cx="159.04" cy="160.69" r="104.37"/><circle class="cls-5" cx="174.69" cy="854.72" r="130.46"/><circle class="cls-6" cx="811.32" cy="839.07" r="109.58"/><circle class="cls-7" cx="873.94" cy="395.51" r="67.84"/><rect class="cls-3" x="520.33" y="279.55" width="461.96" height="23.19" transform="translate(33.51 657.2) rotate(-48.2)"/><rect class="cls-7" x="524" y="456.97" width="350.25" height="23.19" transform="translate(-131.74 334.4) rotate(-24.66)"/><rect class="cls-6" x="703.19" y="562.48" width="23.19" height="297.49" transform="translate(-286.08 588.65) rotate(-37.87)"/><rect class="cls-5" x="104.6" y="725.71" width="380.22" height="23.19" transform="translate(-443.84 445.72) rotate(-46.67)"/><rect class="cls-4" x="314.43" y="84.14" width="23.19" height="487.06" transform="translate(-136.21 326.51) rotate(-45)"/><path class="cls-8" d="M298.22,672.08h542.7S882.67,526,799.18,510.32s-104.37,10.43-104.37,10.43,0-146.11-161.76-161.76S376.5,489.44,376.5,489.44s-88.71-36.53-104.37,52.18S298.22,672.08,298.22,672.08Z"/></g></svg>