<svg xmlns="http://www.w3.org/2000/svg" viewBox="0 0 1024 1024"><defs><style>.cls-1{fill:#a5c6ac;}.cls-2{fill:#86ad8f;}.cls-3{fill:#668e6e;}</style></defs><title>rbiw</title><g id="Layer_3" data-name="Layer 3"><rect class="cls-1" width="1024" height="1024"/><polygon class="cls-2" points="972 466.74 930.3 77.56 87.1 72.93 125.45 391.28 31.5 387.98 50.03 577.93 257.73 595.4 277.05 939.3 897.87 948.57 902.45 465.97 972 466.74"/><polygon class="cls-2" points="73.04 617.54 227.6 650.08 227.6 739.56 138.12 796.5 40.5 731.42 73.04 617.54"/><polygon class="cls-2" points="220.5 884.42 180.35 904.5 155.25 874.38 175.33 824.19 215.48 834.23 220.5 884.42"/><g id="React_Icon" data-name="React Icon"><path class="cls-3" d="M705.57,717.42c-62.83,37-170-62.83-170-62.83s-101.64,122-186.66,53.59c-46.44-37.35-14.78-173.72-14.78-173.72s-146-20.33-140.46-120.12C197.11,352.09,337.8,301.6,337.8,301.6s-51.74-158.93,33.27-184.81S537.4,187,537.4,187s109-86.86,171.87-66.53S740.69,305.3,740.69,305.3,879.3,351.5,879.3,423.58,737,536.31,737,536.31,768.41,680.46,705.57,717.42ZM470.87,312.69l-61,110.89,64.68,101.64H602.08L664.92,418,594.69,307.15Zm31.41-35.11,68.38-1.85-31.41-40.66Zm142.31,40.66,33.26,57.29,16.64-48ZM679.7,462.39l-33.26,59.14,49.89-9.24ZM500.44,562.18l37,44.36,38.81-46.2Zm-68.38-38.81-37-64.68-20.33,51.75ZM393.25,379.22l42.5-62.83-59.14,9.24Zm223.62-98,85,11.09s35.11-122-9.24-146S557.73,209.2,557.73,209.2Zm-155.24-1.84,53.59-66.53s-86.86-88.71-133.06-66.54-18.48,147.85-18.48,147.85Zm-238.41,146c3.7,46.2,122,73.92,122,73.92l27.72-85L343.35,333S219.53,379.22,223.22,425.43ZM387.7,691.55c57.29,25.87,123.83-62.83,123.83-62.83l-61-70.23-85-11.09S330.41,665.68,387.7,691.55Zm310.48-11.09C737,638,709.27,541.85,709.27,541.85l-96.1,16.64-55.44,70.23S651.08,732.05,698.18,680.46Zm0-262.43,29.57,85s114.58-37,120.13-83.16-118.28-85-118.28-85Z"/><path class="cls-3" d="M592.84,401.4c9.24,44.35-16.63,66.53-51.75,70.23-49.92,5.25-77.09-38.2-62.83-64.69C517.07,334.87,586.71,372,592.84,401.4Z"/></g></g></svg>