<svg xmlns="http://www.w3.org/2000/svg" viewBox="0 0 1024 1024"><defs><style>.cls-1{fill:#ffefe6;}.cls-2{fill:#f2ac1d;}.cls-3{fill:#63b760;}.cls-4{fill:#004e6b;}</style></defs><title>uxdnd</title><g id="Layer_4" data-name="Layer 4"><rect class="cls-1" width="1024" height="1024"/><polygon class="cls-2" points="1024 164.75 837 166.5 823.5 819 846 828 823.5 850.5 823.5 909 1024 904.58 1024 164.75"/><polygon class="cls-2" points="661.5 157.5 688.5 886.5 333 882 315 162 661.5 157.5"/><polygon class="cls-2" points="0 174.11 130.5 175.5 126 724.5 117 756 126 792 126 864 85.5 877.5 0 876.1 0 174.11"/><polygon class="cls-3" points="274.5 441 283.5 468 207 504 274.5 540 261 562.5 180 517.5 180 490.5 274.5 441"/><polygon class="cls-3" points="792 432 796.5 454.5 738 486 796.5 517.5 796.5 540 711 499.5 711 472.5 792 432"/><polygon class="cls-4" points="639 567 643.5 616.5 369 621 364.5 562.5 639 567"/><polygon class="cls-4" points="373.5 657 373.5 720 630 706.5 630 648 373.5 657"/><polygon class="cls-4" points="382.5 765 382.5 841.5 630 832.5 625.5 747 382.5 765"/><path class="cls-4" d="M355.5,234,378,495l229.5-18V234ZM505,370,589.5,267.43V454.5Zm71.84,94.68L414.29,480.19l78.84-95.74ZM491.31,356.31,387,252H577.56ZM375.86,272.08l103.26,99-80.2,97Z"/><polygon class="cls-4" points="85.5 225 90 274.5 0 276.41 0 227.03 85.5 225"/><polygon class="cls-4" points="918 522 918 585 1024 586.28 1024 523.2 918 522"/><polygon class="cls-4" points="900 634.5 900 711 1024 706.72 1024 626.43 900 634.5"/><polygon class="cls-4" points="0 814.37 0 761.45 85.41 756.07 90.75 814.5 0 814.37"/><polygon class="cls-4" points="80.39 720.14 79.47 657.15 0 662.68 0 726.18 80.39 720.14"/><polygon class="cls-4" points="1024 835.75 1024 752.6 899.05 756.07 904.79 841.5 1024 835.75"/><polygon class="cls-4" points="0 329.33 58.5 328.5 58.5 607.5 0 608 0 329.33"/><path class="cls-4" d="M1024,222.8c-3.14-.24-6.3-.36-9.5-.36a123.5,123.5,0,0,0,0,247c3.2,0,6.36-.12,9.5-.36Z"/></g></svg>