<svg id="Layer_2" data-name="Layer 2" xmlns="http://www.w3.org/2000/svg" xmlns:xlink="http://www.w3.org/1999/xlink" viewBox="0 0 1024 1024"><defs><style>.cls-1{fill:url(#linear-gradient);}.cls-2{fill:#5f2c8b;}.cls-3{fill:#3f1e4b;}.cls-4{fill:#252460;}.cls-5{fill:#ebc2db;}.cls-6{fill:#12103a;}.cls-7{fill:#191816;}.cls-8{fill:#5d2c8b;}.cls-9{fill:#61c9de;}.cls-10{fill:#c671ae;}</style><linearGradient id="linear-gradient" x1="512" y1="584.16" x2="512" y2="-14.78" gradientUnits="userSpaceOnUse"><stop offset="0" stop-color="#a8529f"/><stop offset="0.37" stop-color="#643472"/><stop offset="0.72" stop-color="#2a194b"/><stop offset="0.89" stop-color="#130f3c"/></linearGradient></defs><title>wdtd</title><polygon class="cls-1" points="0 0 0 631.83 1024 629.1 1024 0 0 0"/><polygon class="cls-2" points="0 538.4 140.47 534.49 206.5 491.66 369.08 553.98 411.62 522.08 546.3 600.06 640.23 539.8 766.05 507.9 897.19 534.49 1024 465.28 1024 607.45 0 619.64 0 538.4"/><polygon class="cls-3" points="1024 477.46 893.44 572.46 799.74 522.18 676.32 563.32 532.34 549.6 418.07 602.17 280.94 531.32 155.24 574.74 72.96 506.18 0 519.44 0 635.89 1024 634.54 1024 477.46"/><polygon class="cls-4" points="0 633.18 0 876.91 1024 866.08 1024 627.77 0 633.18"/><polygon class="cls-5" points="549.82 642.26 14.06 789.47 18.15 800.38 544.82 646.91 549.82 642.26"/><polygon class="cls-5" points="637.14 649.34 886.17 807.43 905.72 806.58 643.94 646.79 637.14 649.34"/><path class="cls-6" d="M1024,805.15s-486.87-22.38-623.22-18.86S0,816,0,816v208H1024Z"/><path class="cls-7" d="M9.35,792.6s119.47-119.24,305.57-60.33S522.06,970,522.06,970l-48.83,14.73s-24.8-172.51-183.64-206.17S35.65,841,35.65,841Z"/><polygon class="cls-5" points="481.38 711.55 491.58 716.49 466.08 737.74 455.03 732.64 481.38 711.55"/><polygon class="cls-5" points="519 684.87 526.83 686.68 547.92 672.82 541.29 669.81 519 684.87"/><polygon class="cls-5" points="580.7 648.44 584.46 649.95 595 643.54 591.62 642.79 580.7 648.44"/><polygon class="cls-8" points="564.34 640.85 0 760.69 0 642.66 564.34 640.85"/><polygon class="cls-8" points="649.04 635.75 1024 786.19 1024 635.89 649.04 635.75"/><g id="HTML_Icon" data-name="HTML Icon"><polygon class="cls-9" points="260.72 346.28 293.88 380.23 165.25 489.56 318.81 523.41 312.51 559.88 121.81 517.24 102.47 484.95 260.72 346.28"/><polygon class="cls-9" points="399.05 293.22 351.83 586.83 390.13 589.96 436.69 293.86 399.05 293.22"/><polygon class="cls-9" points="462.49 490.33 479.16 512.63 637.26 403.43 473.51 321.47 467.39 368.6 550.18 408 462.49 490.33"/></g><g id="CSS_Icon" data-name="CSS Icon"><polygon class="cls-9" points="480.57 90.72 454.72 88.97 468.64 77.31 461.19 68.36 446.28 79.64 446.28 62.4 426.9 62.4 427.27 78.78 413.49 65.38 400.07 75.82 411.2 86.02 392.61 84.76 389.63 102.65 413.72 104.26 400.07 114.58 413.49 123.52 428.01 111.35 428.39 127.99 446.28 127.99 446.28 118.18 453.73 125.01 465.66 116.07 456.43 107.1 479.08 108.61 480.57 90.72"/><path class="cls-9" d="M619.93,83.15l1.21,29.08s-46-2.42-53.32,4.85c-13.38,13.38-10.9,70.29-10.9,70.29L521.77,200.7l35.15,19.39s-9.48,23.46,2.42,47.26c6.06,12.12,47.26,10.91,47.26,10.91l-3.63,23s-53.33,6.06-71.5-19.39-6.06-55.74-6.06-55.74l-33.94-19.39-1.21-24.24L533.89,174s-7.27-67.87,19.39-81.2S619.93,83.15,619.93,83.15Z"/><path class="cls-9" d="M645.38,84.36,643,111s43.63-6.06,53.32,8.48-1.21,71.5-1.21,71.5l18.18,9.7L693.86,214s8.48,44.84-7.27,48.47a242,242,0,0,1-31.51,4.85l-1.22,19.39s49.69,4.85,55.75-8.48,6.06-58.17,6.06-58.17l17-13.33V191l-21.82-8.48s21.82-75.14,3.64-86S645.38,84.36,645.38,84.36Z"/></g><g id="JavaScript_Icon" data-name="JavaScript Icon"><path class="cls-9" d="M797.85,387.06l-14.07,16s55.62,39.58,53.71,63.57-12.19,61.8-18.31,73.51S761.06,562,761.06,562l2.42,24.1s68.24-12.54,72.63-28.12,32.36-81.68,27.8-100.16C855.47,423.57,797.85,387.06,797.85,387.06Z"/><path class="cls-9" d="M748.77,380.36l6.38,25.86S731,413,712.83,423.73c-23.25,13.78-30.12,71.71-24.09,91.39s39.49,37.69,39.49,37.69l-11.32,19.25s-49.57-27.74-54.57-55.91,5.83-95.51,23.87-109.76S748.77,380.36,748.77,380.36Z"/><polygon class="cls-9" points="913.06 428.59 905.28 469.66 944.63 478.53 957.72 440.13 913.06 428.59"/><path class="cls-9" d="M887.31,542.31,876,579.63l15.46,3.48-16.63,21.36s30.78,1,35.67-14.11,13.72-41.22,13.72-41.22Z"/></g><polygon class="cls-10" points="497.79 1024 494.48 995.69 467.49 933.91 450.1 920.72 438.7 879.33 438.7 842.75 415.91 801.36 412.31 786.97 430.31 781.57 458.5 798.36 476.49 833.15 497.48 803.16 501.08 793.57 528.07 800.76 535.87 826.55 555.06 830.75 564.06 850.54 576.65 855.94 576.65 878.13 591.05 891.93 583.25 932.72 570.65 951.31 580.85 986.7 596.6 1024 497.79 1024"/><polygon class="cls-10" points="0 904.29 67.18 820.25 106.17 817.25 137.35 801.66 140.35 780.07 176.94 757.88 208.13 738.08 214.73 720.69 199.73 707.49 167.3 718.63 150.69 730.08 140.8 709.91 112.72 698.5 93.34 703.19 74.75 698.5 51.01 710.31 32.72 716.84 7.5 758.17 0 778.22 0 904.29"/></svg>