<svg id="Layer_1" data-name="Layer 1" xmlns="http://www.w3.org/2000/svg" viewBox="0 0 2880 1144"><defs><style>.cls-1{fill:#37352f;opacity:0.5;isolation:isolate;}.cls-2{fill:#f7f1d9;}.cls-3{fill:#c5a7b4;}.cls-4{fill:#606060;}.cls-5{fill:#885780;}</style></defs><title>banner</title><polygon class="cls-1" points="2520.5 654.9 2661.4 300 2633.6 270.8 2359.8 293.9 2356.5 173 2008.3 178 1992 201.1 1974.2 177.9 581.1 176.4 587.7 92.1 165.6 99.9 232.2 208.6 261 213.6 245.3 230 367 428.8 209.3 824.8 475.8 813.1 453.1 976 854 960.7 866.2 934.2 888.2 961 2306.9 969.4 2312 1058.3 2721.2 1029.4 2520.5 654.9"/><polygon class="cls-2" points="573.3 205.2 579.3 366.8 2274.4 378.7 2258.4 211.2 573.3 205.2"/><polygon class="cls-3" points="264.2 240.4 371.9 440.6 220.3 802.6 487.6 791.5 475.6 945.1 828.6 943.1 854.5 915.2 886.4 943.1 2318.3 947.1 2318.3 1036.8 2679.2 1004.9 2487.8 651.9 2567.5 472.5 2531.6 434.6 2354.1 422.6 2334.2 366.8 519.5 360.8 501.5 251.1 264.2 240.4"/><path class="cls-4" d="M767.2,485.4c-.3-2-33.8-14.5-37-15.3-35.5-8.8-74.6-.8-96.4,30.4-24.1,34.4-11.8,82,24.6,103.2,16.5,9.6,43.3,10.9,55.9,27.7,8.8,11.8,4.7,25.2-7.2,32.7-14.8,9.3-29.5,4.4-44.5-1.4-13.1-5.1-26.3-10-39.4-15,0,0-1.4,47.6-1.4,47.7,0,1.6,24.3,10.4,27,11.5,30.3,12.4,64.9,11.6,95.4.3,26.9-9.9,29.6-42,30.5-67,.1-6.3-1.7-12.5-3.5-18.6-8.7-29.2-20.1-31.2-45.6-43.9-11.6-5.8-23.9-10.6-34.2-18.6-7.7-5.9-14.5-15.3-14.7-25.4-.3-18.8,22.4-26.7,35.1-26,7.7.4,35.1,12.3,53,23-.2,0,2.3-43.4,2.4-45.3"/><path class="cls-4" d="M808.1,466.3s54.1,9.2,57.5,9.8c1.4.2-5.3,72-5.7,77.5-1.7,23.1-5.9,47.7-.5,70.5,4.6,19.4,32,56.8,50.5,26.7,16.8-27.3,16.4-72.1,17.9-103,.2-4.7,2.1-71,3.5-71.1l50.9-3.9c.6,26.3,2.2,69.1,2.5,85.4,1.6,76.9-10.3,155.2-104.6,155.2-46.6,0-75.2-52.5-74.5-93.5,0,.1,2.5-153.6,2.5-153.6"/><path class="cls-4" d="M1022.7,719.2l-.9-249.3,48.1-3.7,63.2,120.4,8.6-111.6,54.2,1.6-2.3,243.9-64.5.2-55.8-135.1,1.6,133.6Z"/><path class="cls-4" d="M1398.2,670.6c1.1,12.7,2.1,25.5,3.2,38.2a4.15,4.15,0,0,1-.5,3.1,4.45,4.45,0,0,1-2.5,1.4c-25,7.4-51.3,12.4-77.2,9-41.8-5.4-78.5-37.3-85.1-79.8-5-32-9.8-65.9,2.3-96,13.8-34.6,36.7-50.8,71.7-63.7,28.1-10.3,66.6-3.8,94.1,3.5-.8,15.4-1.6,30.7-2.4,46.1-27.7-12.5-97.5-20.3-112.7,15.8-7.3,17.2-6.4,42.6-5.5,61,2.3,52,69.9,79.6,114.6,61.4"/><path class="cls-4" d="M1737.8,609l32,9-13.9-70.1Zm-6.7-124.7,51.3,1.8L1852,728.3l-50.9,3.9-19.7-72.5-48.3.8-22.9,72.9-57.4-7Z"/><path class="cls-4" d="M1533.3,677.7c11.7,2,23.4.4,33.1-8.1,14.2-12.4,18.9-33.7,18.5-51.8-.5-25.9-13.6-54.4-33.7-71.1-10.7-8.9-26.1-13.6-39-8.1-11.6,5-18.4,16.9-23.8,28.3-7.3,15.4-13.5,31.9-13.7,48.9-.2,22.9,12.1,40.6,31.6,51.7,8.1,4.6,17.5,8.6,27,10.2m-72-165.1a102.5,102.5,0,0,1,35-22.6,108,108,0,0,1,88.3,5.2c67.5,35.8,73.6,129.5,33.2,187.9-15.5,22.5-37.9,39.9-64.9,45.8-79.4,17.3-136.4-62.4-129.1-134.9,3.1-29.7,16-60.4,37.5-81.4"/><path class="cls-4" d="M2017.6,496s1.3,46.9,1.3,47c-14.3-6.9-41.1-13.2-48.9-13.5-15.4-.5-30.5.5-39.6,15.8-4,6.8-1.9,15.8,3,22,12.6,16,36.2,20.6,53.7,29.1,40.7,19.8,59.1,67.4,34.4,107.6-16.5,26.9-47.6,24.9-75.8,23.3-6.5-.4-63.5-6.7-63.6-12.4,0,0-.1-41.7-.1-42.1,13.2,4.7,33.3,8.5,40.6,9.7,16.8,2.9,22.6,4.4,39.1-.8,4.3-1.4,9.4-5,12.9-7.9,9.2-7.4,7-17.7.6-26.1-3.8-5-9.3-8.5-14.9-11.4-13.7-7.1-28.8-11.3-43-17.3-32.9-14-50.4-40.1-44.6-76.4,4.7-29.4,17.3-53.8,48.2-61.5,16-4,34-3.1,49.9.9,4.3,1,46.7,11.9,46.8,14"/><path class="cls-4" d="M2067.9,495.9l1.9,50.3,56.3-4.2,11.2,196.1,53.3-7.7-5.2-194.1,51.3-1.7,1.1-51.7Z"/><path class="cls-4" d="M650.5,855.5c10-4.3,16.1-15.4,16.1-26.2,0-26.3-18.7-29.4-39.2-33.6v62.6c0,.7,21.6-2.1,23.1-2.8m-50,23.8s3.3-102.8,3.4-105.5c0-.3,33.7-.8,36.5-.7,23.1,1,47.5,17.4,50.1,41.7,3.9,36.4-10.8,52.9-44.6,61-3.3.9-45.5,9.6-45.4,3.5"/><path class="cls-4" d="M721.4,772.5,716.7,861l7.6,18.4,63.3,2.8,3.1-22-46.5-.3V835.2l40.9,1.6,3.9-24-44.7-1.3-1.2-16,46.3-1.6,4.1-21.2Z"/><path class="cls-4" d="M813.5,775l25.5-2,23.4,70.3L882,776.4l23.6-.9L869.1,881.6l-22.9-2Z"/><path class="cls-4" d="M920.7,775.3l-.7,90.1-.7,16.2,76.1,2.8-.6-19.9-50.7-5.6,2.2-21,44.5-1.5-2.4-18.8-39-1.8-1.7-22.6,46.6,2.1,1.6-16.2Z"/><path class="cls-4" d="M1016.5,775.7l23.9,2.9-.5,80.6,46.8,4-.4,19.9-57.1-2.3-14.1-11.3Z"/><path class="cls-4" d="M1129.5,811a31.44,31.44,0,0,0-7.8,15.4c-4.2,21.8,16.8,46.6,38.9,39.4,14-4.5,25.7-17,26.9-31.6,1.9-21.4-15.8-30.5-33.8-32.6-9.3-1.1-18.1,2.8-24.2,9.4M1115,796.1c10.7-11.4,21-21.6,37.9-18.4,25.9,4.8,51.2,12.1,57.1,41.7,2.7,13.5,3.1,34.3-5.7,45.7-3.5,4.5-8.3,7.6-13.1,10.6-19.4,12.3-45.7,19.1-66.6,4.6a25.59,25.59,0,0,1-4.6-4.7c-8.2-10.1-16.5-20.8-19.5-33.5-4.5-19.1,3.1-33.7,14.5-46"/><path class="cls-4" d="M1260.1,799.8l.7,21.8c13.4,2.5,28.8,1.4,30.2-8s-11.8-14.5-30.9-13.8m28.8-14.1c11.1,4.2,20.8,15,21.4,19.3,4.3,28.1-26.2,39.4-50.7,38.5l-2.6,41-24-3.9s3.5-100.8,3.7-100.8c19.8.1,30.3-2.4,52.2,5.9"/><path class="cls-4" d="M1330.9,782.1l-1.3,108.2,16.1-.3,57.7-2.5-1.8-23.6-46.4.7-.7-21.8,45.7,2.2.2-22.8-41.9-2.5-2-14.1,48.4.1,2.8-25.8Z"/><path class="cls-4" d="M1465.4,806l1.9,24.5c.6,7.7,29.7-2.6,29-12.1-.8-11.1-30.8-11.1-30.9-12.4m40.8-15.2c12.9,5.7,16,14.4,15.7,29.4-.1,2.7-3.9,23.8-22.8,27.3l27.6,42-27.3,3-22.9-39-10.4.8,2.1,39.7-24.9-2.9s-.4-108.2-.4-108.3c20,.6,39.3,1.2,42.8,1.7,5.8.8,15.8,4.3,20.5,6.3"/><path class="cls-4" d="M1628,786.1l1.6,21.7c-19.9-3.8-48.3-16.2-51.1,1s45.4,18.8,53.1,46.1c5.1,18-6.4,29.6-20.8,31.1-5.4.5-40.5.2-58.4-6.9,0,0,1.3-19,1.3-20,0,.7,20.3,7.9,22.3,8.3,10.3,1.7,32,1.8,31.3-8.1-1-12.7-32.9-22.9-34.9-24-5.5-3.1-11.3-6.3-14.9-11.5-6-8.6-4.6-20.8,1.4-29.4,15.7-22.1,47.1-11.3,69.1-8.3"/><path class="cls-4" d="M1848.9,786.4l-.2,22.8c.8-3.8-37.4-5-42.1-3.2-14.5,5.5-28.2,26.3-23.4,42,2.9,9.5,14,18.4,22.7,21.1,1.9.6,21.6,1.7,21.7-1.4l.6-17.1-24.8-1.9-.5-18.9,50.5,2.8.9,49.2c-.2,3.5-27.3,7.5-30.4,8a54,54,0,0,1-45.5-14.2c-13.4-12.8-24.5-38.6-18.1-56.9,5.6-15.8,26.5-33.1,42.5-37.1,4-1.1,46.1.7,46.1,4.8"/><path class="cls-4" d="M1901.2,788.1l27.8,4.5c-.1,10.9-.2,21.7-.3,32.6-.1,11.2-1.5,22.8,1.1,33.9,2.7,11.9,16.2,18.5,26.4,10.3s11-23.5,11.6-35.4c.2-3.6-.7-45.1-1.1-45.1h24.7c-.3,14.3-.5,28.6-.8,43-.3,17.1,3,39.2-10.6,52.5-12.7,12.4-33.5,14.9-50,10-14.7-4.3-24.5-22.5-25.1-37.3-.4-9.2-.9-18.3-1.4-27.5-.9-13.9-1.6-27.7-2.3-41.5"/><path class="cls-4" d="M2038.5,786l-.7,103.6,25.6-.1,1.8-101.6Z"/><path class="cls-4" d="M2112.1,781.5l26.9,4.6-2.5,78.9,46.8,5-.5,19-59.1-4-13.2-11.3Z"/><path class="cls-4" d="M2246.9,807.3s-1.1,60.6-1.1,60.8c0,3.5,23.7-.8,26-2,14.8-7.3,18.4-27.7,12-41.8-7.8-17-21.1-16.3-36.9-17m38.6-19.5c18.1,8.7,28.6,28.7,27.8,50.2-1.1,30.8-25.7,53.5-55.9,56-3.1.3-36.3-.9-36.3-.3l1.2-109.2c.1-3.1,40.2-1.4,44-1.3a49.3,49.3,0,0,1,19.2,4.6"/><path class="cls-5" d="M1675.5,327c6.9.2,13-5,15.7-11.4s2.2-13.5.9-20.3-4.1-14-10.2-17.4c-5.8-3.3-10.3-1.9-13.8,1.7-6.8,7.1-9.4,23-8.6,29.9C1660.4,318.2,1666.8,326.8,1675.5,327Z"/><path class="cls-5" d="M2509.4,649.4l140.9-354.9-27.8-29.2-273.7,23.1-3.3-120.9-348.3,5-16.3,23.1-17.8-23.1L570,170.9l6.6-84.3L154.5,94.4l66.6,108.7,28.8,4.9-15.7,16.5L355.9,423.3l-157.7,396,266.5-11.7L442,970.5l400.9-15.3,12.2-26.5L877,955.5l1418.7,8.4,5,88.9,409.3-28.9ZM2155,255.4a30.36,30.36,0,0,1,23.7-8.4c15.1,1.2,25.6,15.7,30.9,29.8,4.6,12.1,7.1,25.4,4.7,38.1s-10.4,24.8-22.2,30.1c-17.1,7.5-38.5-1.5-48-17.5C2133.1,309.1,2137,272.1,2155,255.4Zm-241.3.6,24.1-.4,1.9,99.4-27,.6ZM1639,286.7c4.7-19.9,16.8-38.1,36.2-37.6,12.2.3,22,10.2,28.4,20.5,8.6,14,13.7,30.8,10.6,47s-15.6,31-31.8,33.7c-17.6,3-35.5-9.2-42.3-25.7C1636.1,314.9,1635.8,300.4,1639,286.7Zm-200.4-34.9-2.8,94.1-21.2,1.6-1.9-99.4Zm-290.8,11a39.45,39.45,0,0,1,25.8-16.3c11.5-2,24.2,2,31.3,11.3,5.1,6.6,7,15,8,23.3,2.2,18,.1,37.6-11.1,51.9s-33.6,20.5-48.3,9.9c-8.5-6.1-13-16.4-15-26.7C1135,298.7,1137.4,277.4,1147.8,262.8ZM911.5,245.5l29.5-5.1-7,114.3-24.9-9.5Zm-248.8-3.3a39.86,39.86,0,0,1,17.1-3.3c5.2,0,10.5,1.2,14.7,4.2a28.65,28.65,0,0,1,7,8.1c14.9,23.9,12,57.5-6.6,78.6-4.4,5-9.8,9.4-16.3,10.7-12.3,2.5-24-6.9-30.5-17.6C632.7,298.1,635.1,254.5,662.7,242.2ZM457.4,474.4l-.9,299.7L241.8,793.3,394,437.5,295.4,262.9l172,3.8ZM880.3,923.9l-21.7-24-29.4,25-324.9-2.5L514.8,398l1798.4,9.9,12,263,31.4,252.8ZM2350.2,973l51.4-31.4-34-273.8-5.9-205.3,164.6-2.1,21.9,26.8L2472.8,655l172.6,331-298.2,32.9Z"/><path class="cls-5" d="M666.1,317c5,3.2,12,2.2,16.7-1.5s7.4-9.4,8.6-15.3a40.59,40.59,0,0,0-4.9-28.7c-2.6-4.3-6.2-8.3-10.9-10-6.9-2.5-11.3-.3-14.2,4.3-5.9,9.4-4.6,28.7-3.2,36.3C659.4,307.8,661.3,313.9,666.1,317Z"/><path class="cls-5" d="M1166.3,328.9c4,3.2,10.1,1.1,14.1-2.1,9.3-7.4,13.7-19.7,13.6-31.6,0-6.5-1.5-13.3-6-18a17.22,17.22,0,0,0-23.6-.8c-11.3,10.3-6.8,36.3-1.3,47.9A12.33,12.33,0,0,0,1166.3,328.9Z"/><path class="cls-5" d="M2173.7,325.6c26.1,10.5,25.5-31.7,17.2-45-1.9-3.1-4.5-6-7.9-7.1-14.8-4.8-25.9,17.5-22.8,32.7C2161.8,313.6,2166.2,322.6,2173.7,325.6Z"/><path class="cls-2" d="M761.3,476.8c-.3-2-33.8-14.5-37-15.3-35.5-8.8-74.6-.8-96.4,30.4-24.1,34.4-11.8,82,24.6,103.2,16.5,9.6,43.3,10.9,55.9,27.7,8.8,11.8,4.7,25.2-7.2,32.7-14.8,9.3-29.5,4.4-44.5-1.4-13.1-5.1-26.3-10-39.4-15,0,0-1.4,47.6-1.4,47.7,0,1.6,24.3,10.4,27,11.5,30.3,12.4,64.9,11.6,95.4.3,26.9-9.9,29.6-42,30.5-67,.1-6.3-1.7-12.5-3.5-18.6-8.7-29.2-20.1-31.2-45.6-43.9-11.6-5.8-23.9-10.6-34.2-18.6-7.7-5.9-14.5-15.3-14.7-25.4-.3-18.8,22.4-26.7,35.1-26,7.7.4,35.1,12.3,53,23-.1,0,2.3-43.4,2.4-45.3"/><path class="cls-2" d="M802.2,457.6s54.1,9.2,57.5,9.8c1.4.2-5.3,72-5.7,77.5-1.7,23.1-5.9,47.7-.5,70.5,4.6,19.4,32,56.8,50.5,26.7,16.8-27.3,16.4-72.1,17.9-103,.2-4.7,2.1-71,3.5-71.1l50.9-3.9c.6,26.3,2.2,69.1,2.5,85.4,1.6,76.9-10.3,155.2-104.6,155.2-46.6,0-75.2-52.5-74.5-93.5,0,.2,2.5-153.6,2.5-153.6"/><path class="cls-2" d="M1016.8,710.6l-.9-249.3,48.1-3.7L1127.2,578l8.6-111.6L1190,468l-2.3,243.9-64.5.2L1067.4,577l1.6,133.6Z"/><path class="cls-2" d="M1392.3,662c1.1,12.7,2.1,25.5,3.2,38.2a4.15,4.15,0,0,1-.5,3.1,4.45,4.45,0,0,1-2.5,1.4c-25,7.4-51.3,12.4-77.2,9-41.8-5.4-78.5-37.3-85.1-79.8-5-32-9.8-65.9,2.3-96,13.8-34.6,36.7-50.8,71.7-63.7,28.1-10.3,66.6-3.8,94.1,3.5-.8,15.4-1.6,30.7-2.4,46.1-27.7-12.5-97.5-20.3-112.7,15.8-7.3,17.2-6.4,42.6-5.5,61,2.3,52,70,79.6,114.6,61.4"/><path class="cls-2" d="M1731.9,600.4l32,9L1750,539.3Zm-6.6-124.7,51.3,1.8,69.6,242.2-50.9,3.9-19.7-72.5-48.3.8-22.9,72.9-57.4-7Z"/><path class="cls-2" d="M1527.4,669.1c11.7,2,23.4.4,33.1-8.1,14.2-12.4,18.9-33.7,18.5-51.8-.5-25.9-13.6-54.4-33.7-71.1-10.7-8.9-26.1-13.6-39-8.1-11.6,5-18.4,16.9-23.8,28.3-7.3,15.4-13.5,31.9-13.7,48.9-.2,22.9,12.1,40.6,31.6,51.7a87.17,87.17,0,0,0,27,10.2M1455.5,504a102.5,102.5,0,0,1,35-22.6,108,108,0,0,1,88.3,5.2c67.5,35.8,73.6,129.5,33.2,187.9-15.5,22.5-37.9,39.9-64.9,45.8-79.4,17.3-136.4-62.4-129.1-134.9,3.1-29.7,15.9-60.4,37.5-81.4"/><path class="cls-2" d="M2011.7,487.4s1.3,46.9,1.3,47c-14.3-6.9-41.1-13.2-48.9-13.5-15.4-.5-30.5.5-39.6,15.8-4,6.8-1.9,15.8,3,22,12.6,16,36.2,20.6,53.7,29.1,40.7,19.8,59.1,67.4,34.4,107.6-16.5,26.9-47.6,24.9-75.8,23.3-6.5-.4-63.5-6.7-63.6-12.4,0,0-.1-41.7-.1-42.1,13.2,4.7,33.3,8.5,40.6,9.7,16.8,2.9,22.6,4.4,39.1-.8,4.3-1.4,9.4-5,12.9-7.9,9.2-7.4,7-17.7.6-26.1-3.8-5-9.3-8.5-14.9-11.4-13.7-7.1-28.8-11.3-43-17.3-32.9-14-50.4-40.1-44.6-76.4,4.7-29.4,17.3-53.8,48.2-61.5,16-4,34-3.1,49.9.9,4.3,1,46.8,11.9,46.8,14"/><path class="cls-2" d="M2062.1,487.3l1.9,50.3,56.3-4.2,11.2,196.1,53.3-7.7-5.2-194.1,51.3-1.7,1.1-51.7Z"/><path class="cls-2" d="M644.7,846.9c10-4.3,16.1-15.4,16.1-26.2,0-26.3-18.7-29.4-39.2-33.6v62.6c-.1.7,21.6-2.1,23.1-2.8m-50,23.8s3.3-102.8,3.4-105.5c0-.3,33.7-.8,36.5-.7,23.1,1,47.5,17.4,50.1,41.7,3.9,36.4-10.8,52.9-44.6,61-3.4.9-45.6,9.6-45.4,3.5"/><path class="cls-2" d="M715.5,763.9l-4.7,88.5,7.6,18.4,63.3,2.8,3.1-22-46.5-.3V826.6l40.9,1.6,3.9-24-44.7-1.3-1.2-16,46.3-1.6,4.1-21.2Z"/><path class="cls-2" d="M807.7,766.3l25.5-1.9,23.4,70.3,19.6-66.9,23.6-.9L863.3,873l-22.9-2Z"/><path class="cls-2" d="M914.9,766.7l-.7,90.1-.7,16.2,76.1,2.8-.6-19.9-50.7-5.6,2.2-21,44.5-1.5L982.6,809l-39-1.8-1.7-22.6,46.6,2.1,1.6-16.2Z"/><path class="cls-2" d="M1010.7,767l23.9,2.9-.5,80.6,46.8,4-.4,19.9-57.1-2.3-14.1-11.3Z"/><path class="cls-2" d="M1123.6,802.4a31.44,31.44,0,0,0-7.8,15.4c-4.2,21.8,16.8,46.6,38.9,39.4,14-4.5,25.7-17,26.9-31.6,1.9-21.4-15.8-30.5-33.8-32.6-9.3-1.1-18.1,2.8-24.2,9.4m-14.4-15c10.7-11.4,21-21.6,37.9-18.4,25.9,4.8,51.2,12.1,57.1,41.7,2.7,13.5,3.1,34.3-5.7,45.7-3.5,4.5-8.3,7.6-13.1,10.6-19.4,12.3-45.7,19.1-66.6,4.6a25.59,25.59,0,0,1-4.6-4.7c-8.2-10.1-16.5-20.8-19.5-33.5-4.5-19,3-33.7,14.5-46"/><path class="cls-2" d="M1254.3,791.2l.7,21.8c13.4,2.5,28.8,1.4,30.2-8s-11.8-14.5-30.9-13.8m28.7-14.1c11.1,4.2,20.8,15,21.4,19.3,4.3,28.1-26.2,39.4-50.7,38.5l-2.6,41-24-3.9s3.5-100.8,3.7-100.8c19.8.1,30.4-2.4,52.2,5.9"/><path class="cls-2" d="M1325,773.5l-1.3,108.2,16.1-.3,57.7-2.5-1.8-23.6-46.4.7-.7-21.8,45.7,2.2.2-22.8-41.9-2.5-2-14.1,48.4.1,2.8-25.8Z"/><path class="cls-2" d="M1459.6,797.4l1.9,24.5c.6,7.7,29.7-2.6,29-12.1-.9-11.1-30.9-11.1-30.9-12.4m40.8-15.2c12.9,5.7,16,14.4,15.7,29.4-.1,2.7-3.9,23.8-22.8,27.3l27.6,42-27.3,3-22.9-39-10.4.8,2.1,39.7-24.9-2.9s-.4-108.2-.4-108.3c20,.6,39.3,1.2,42.8,1.7,5.7.8,15.8,4.2,20.5,6.3"/><path class="cls-2" d="M1622.1,777.5l1.6,21.7c-19.9-3.8-48.3-16.2-51.1,1s45.4,18.8,53.1,46.1c5.1,18-6.4,29.6-20.8,31.1-5.4.5-40.5.2-58.4-6.9,0,0,1.3-19,1.3-20,0,.7,20.3,7.9,22.3,8.3,10.3,1.7,32,1.8,31.3-8.1-1-12.7-32.9-22.9-34.9-24-5.5-3.1-11.3-6.3-14.9-11.5-6-8.6-4.6-20.8,1.4-29.4,15.8-22.1,47.1-11.3,69.1-8.3"/><path class="cls-2" d="M1843,777.8l-.2,22.8c.8-3.8-37.4-5-42.1-3.2-14.5,5.5-28.2,26.3-23.4,42,2.9,9.5,14,18.4,22.7,21.1,1.9.6,21.6,1.7,21.7-1.4l.6-17.1-24.8-1.9-.5-18.9,50.5,2.8.9,49.2c-.2,3.5-27.3,7.5-30.4,8a54,54,0,0,1-45.5-14.2c-13.4-12.8-24.5-38.6-18.1-56.9,5.6-15.8,26.5-33.1,42.5-37.1,4.1-1.1,46.2.7,46.1,4.8"/><path class="cls-2" d="M1895.3,779.5l27.8,4.5c-.1,10.9-.2,21.7-.3,32.6-.1,11.2-1.5,22.8,1.1,33.9,2.7,11.9,16.2,18.5,26.4,10.3s11-23.5,11.6-35.4c.2-3.6-.7-45.1-1.1-45.1h24.7c-.3,14.3-.5,28.6-.8,43-.3,17.1,3,39.2-10.6,52.5-12.7,12.4-33.5,14.9-50,10-14.7-4.3-24.5-22.5-25.1-37.3-.4-9.2-.9-18.3-1.4-27.5-.8-13.9-1.6-27.7-2.3-41.5"/><path class="cls-2" d="M2032.7,777.3,2032,881l25.6-.1,1.8-101.6Z"/><path class="cls-2" d="M2106.3,772.9l26.9,4.6-2.5,78.9,46.8,5-.5,19-59.1-4-13.2-11.3Z"/><path class="cls-2" d="M2241,798.7s-1.1,60.6-1.1,60.8c0,3.5,23.7-.8,26-2,14.8-7.3,18.4-27.7,12-41.8-7.7-17-21.1-16.3-36.9-17m38.7-19.5c18.1,8.7,28.6,28.7,27.8,50.2-1.1,30.8-25.7,53.5-55.9,56-3.1.3-36.3-.9-36.3-.3l1.2-109.2c.1-3.1,40.2-1.4,44-1.3a49.74,49.74,0,0,1,19.2,4.6"/></svg>