<svg id="Layer_1" data-name="Layer 1" xmlns="http://www.w3.org/2000/svg" viewBox="0 0 2880 1144"><defs><style>.cls-1{fill:#231f20;}</style></defs><title>banner-mono</title><path class="cls-1" d="M1696.8,305c7.5.2,14.2-5.5,17.1-12.4s2.4-14.8,1-22.1-4.5-15.2-11.1-19c-6.3-3.6-11.3-2.1-15.1,1.9-7.4,7.8-10.2,25.1-9.4,32.6C1680.3,295.3,1687.4,304.7,1696.8,305Z"/><path class="cls-1" d="M2605.5,656.3,2759,269.5l-30.3-31.8-298.3,25.1L2426.8,131l-379.5,5.5-17.7,25.1-19.4-25.2L492.1,134.8l7.2-91.9-460,8.5,72.5,118.5,31.4,5.4L126,193.2,258.6,409.8,86.9,841.4l290.4-12.8-24.7,177.6,436.9-16.7,13.3-28.9,23.9,29.2,1546.1,9.1,5.5,96.9,446-31.5ZM2219.3,226.9c6.8-6.3,15.4-10,25.8-9.1,16.4,1.3,27.8,17.1,33.7,32.5,5,13.2,7.7,27.7,5.1,41.5s-11.3,27.1-24.2,32.8c-18.6,8.2-42-1.6-52.3-19.1C2195.5,285.5,2199.8,245.1,2219.3,226.9Zm-262.8.7,26.3-.4,2,108.3-29.4.7ZM1657.1,261c5.1-21.7,18.3-41.6,39.5-41,13.3.4,23.9,11.1,30.9,22.4,9.4,15.2,14.9,33.6,11.5,51.2s-17,33.7-34.6,36.7c-19.2,3.2-38.7-10-46.1-28C1653.9,291.8,1653.6,276,1657.1,261Zm-218.4-38-3.1,102.5-23.1,1.8-2-108.3Zm-316.9,12.1a43.08,43.08,0,0,1,28.1-17.7c12.5-2.2,26.4,2.2,34.2,12.3,5.5,7.2,7.6,16.4,8.7,25.3,2.4,19.6.1,41-12.1,56.5s-36.6,22.4-52.6,10.8c-9.2-6.7-14.2-17.9-16.4-29C1107.8,274.2,1110.4,250.9,1121.8,235.1ZM864.3,216.2l32.1-5.5-7.6,124.6L861.7,325Zm-271.2-3.6a43.2,43.2,0,0,1,18.6-3.6c5.6,0,11.5,1.3,16,4.6a32.22,32.22,0,0,1,7.6,8.8c16.2,26.1,13.1,62.7-7.2,85.7-4.8,5.4-10.7,10.3-17.8,11.7-13.4,2.7-26.1-7.5-33.2-19.1C560.5,273.5,563,226,593.1,212.6Zm-223.7,253-1,326.6-234,20.9L300.2,425.4,192.8,235.1l187.4,4.2ZM830.3,955.5l-23.7-26.1-32,27.2-354-2.7L432,382.4l1959.8,10.8,13.1,286.6,34.3,275.5ZM2432,1008.9l56-34.3-37-298.4-6.4-223.7,179.3-2.3,23.9,29.2-82.2,182.9L2753.7,1023l-325,35.8Z"/><path class="cls-1" d="M596.9,294.1c5.5,3.5,13.1,2.4,18.2-1.6s8.1-10.3,9.4-16.7a44.48,44.48,0,0,0-5.3-31.3c-2.8-4.7-6.8-9-11.9-10.9-7.5-2.7-12.4-.3-15.4,4.6-6.4,10.2-5,31.3-3.5,39.6C589.5,284.1,591.6,290.7,596.9,294.1Z"/><path class="cls-1" d="M1141.9,307c4.4,3.5,11,1.2,15.4-2.3,10.1-8.1,14.9-21.5,14.8-34.4-.1-7.1-1.6-14.5-6.6-19.6a18.94,18.94,0,0,0-25.7-.9c-12.3,11.2-7.4,39.5-1.4,52.2A12.91,12.91,0,0,0,1141.9,307Z"/><path class="cls-1" d="M2239.7,303.4c28.4,11.4,27.8-34.5,18.8-49-2.1-3.4-4.9-6.6-8.6-7.8-16.1-5.2-28.2,19-24.8,35.6C2226.7,290.3,2231.6,300.1,2239.7,303.4Z"/><path class="cls-1" d="M700.6,468.2c-.4-2.1-36.8-15.8-40.3-16.7-38.7-9.5-81.3-.9-105.1,33.2C529,522.2,542.3,574,582,597.1c18,10.5,47.2,11.8,60.9,30.2,9.6,12.8,5.1,27.5-7.9,35.6-16.1,10.1-32.1,4.8-48.4-1.5-14.3-5.5-28.6-10.9-42.9-16.4l-1.5,51.9c0,1.8,26.4,11.3,29.4,12.5,33,13.5,70.7,12.6,103.9.4,29.3-10.8,32.3-45.8,33.2-73,.2-6.9-1.8-13.6-3.8-20.2-9.4-31.9-21.9-34-49.7-47.8-12.6-6.3-26-11.6-37.3-20.2-8.4-6.5-15.9-16.7-16-27.7-.3-20.5,24.4-29.1,38.2-28.3,8.4.5,38.2,13.4,57.7,25.1,0-.2,2.7-47.4,2.8-49.5"/><path class="cls-1" d="M745.2,447.3s59,10.1,62.6,10.7c1.6.3-5.7,78.5-6.2,84.5-1.9,25.1-6.5,51.9-.5,76.9,5.1,21.2,34.9,62,55,29.1,18.3-29.8,17.8-78.6,19.5-112.2.2-5.1,2.3-77.3,3.8-77.4l55.5-4.2c.6,28.6,2.4,75.3,2.7,93.1,1.7,83.8-11.3,169.2-114,169.1-50.8,0-81.9-57.2-81.2-101.9,0-.1,2.8-167.7,2.8-167.7"/><path class="cls-1" d="M979,723l-1-271.7,52.4-4,68.9,131.2,9.4-121.6,59,1.7-2.5,265.8-70.3.2-60.8-147.3,1.8,145.6Z"/><path class="cls-1" d="M1388.2,670.1c1.2,13.9,2.3,27.8,3.5,41.6a5,5,0,0,1-.5,3.4,5.15,5.15,0,0,1-2.7,1.5c-27.3,8.1-55.9,13.5-84.2,9.8-45.5-5.9-85.5-40.7-92.7-86.9-5.4-34.9-10.6-71.8,2.5-104.6,15-37.7,40-55.4,78.1-69.4,30.6-11.3,72.5-4.2,102.6,3.8-.9,16.7-1.8,33.5-2.6,50.2-30.2-13.6-106.2-22.1-122.9,17.3-7.9,18.8-6.9,46.4-6,66.4,2.5,56.6,76.3,86.7,124.9,66.9"/><path class="cls-1" d="M1758.3,602.9l34.8,9.8L1778,536.3ZM1751.1,467l55.9,2,75.8,263.9-55.5,4.2-21.5-79-52.6.9-25,79.4-62.6-7.6Z"/><path class="cls-1" d="M1535.5,677.7c12.7,2.2,25.5.4,36.1-8.8,15.5-13.5,20.6-36.8,20.2-56.5-.6-28.2-14.8-59.3-36.8-77.5-11.7-9.7-28.5-14.8-42.5-8.8-12.6,5.5-20.1,18.4-26,30.8-8,16.8-14.7,34.7-14.9,53.3-.2,25,13.2,44.2,34.4,56.3,8.9,5.1,19.1,9.5,29.5,11.2m-78.4-179.9a113.62,113.62,0,0,1,38.2-24.6,117.93,117.93,0,0,1,96.2,5.7c73.6,39,80.2,141.1,36.2,204.8-16.9,24.5-41.3,43.5-70.8,49.9-86.5,18.8-148.7-68-140.6-147,3.3-32.4,17.3-65.9,40.8-88.8"/><path class="cls-1" d="M2063.2,479.7s1.4,51.1,1.4,51.2c-15.6-7.5-44.8-14.4-53.3-14.7-16.8-.6-33.2.5-43.1,17.2-4.4,7.4-2.1,17.2,3.2,23.9,13.8,17.5,39.4,22.5,58.5,31.7,44.4,21.6,64.4,73.4,37.5,117.2-18,29.3-51.9,27.1-82.6,25.4-7.1-.4-69.2-7.3-69.3-13.5,0,0-.1-45.4-.1-45.9,14.3,5.1,36.3,9.2,44.2,10.6,18.3,3.2,24.6,4.7,42.6-.9,4.7-1.5,10.2-5.5,14-8.6,10-8.1,7.7-19.2.7-28.4-4.1-5.5-10.1-9.2-16.2-12.4-15-7.7-31.3-12.3-46.9-18.9-35.8-15.2-54.9-43.7-48.6-83.3,5.1-32.1,18.8-58.6,52.5-67,17.4-4.3,37-3.4,54.4.9,4.8,1.4,51.1,13.2,51.1,15.5"/><path class="cls-1" d="M2118.1,479.7l2.1,54.8,61.4-4.6,12.2,213.7,58.1-8.4-5.6-211.6,55.9-1.9,1.2-56.4Z"/><path class="cls-1" d="M573.5,871.6c10.9-4.7,17.5-16.7,17.5-28.6,0-28.7-20.4-32-42.7-36.6v68.2c0,.8,23.5-2.3,25.2-3M519,897.5s3.6-112,3.7-114.9c0-.3,36.8-.9,39.7-.8,25.2,1,51.8,19,54.6,45.4,4.2,39.7-11.8,57.7-48.6,66.5-3.6.9-49.6,10.4-49.4,3.8"/><path class="cls-1" d="M650.7,781l-5.1,96.5,8.2,20,68.9,3,3.3-24-50.7-.3V849.3l44.6,1.8,4.2-26.2-48.7-1.5-1.3-17.5,50.5-1.8L729,781Z"/><path class="cls-1" d="M751.1,783.8l27.7-2.1,25.5,76.6,21.3-72.9,25.8-.9L811.6,900.2l-25-2.2Z"/><path class="cls-1" d="M867.9,784.2l-.8,98.2-.7,17.6,82.9,3-.6-21.7-55.2-6.1,2.4-22.9,48.4-1.6-2.6-20.5-42.5-1.9-1.9-24.7,50.8,2.3,1.8-17.7Z"/><path class="cls-1" d="M972.3,784.5l26.1,3.2-.6,87.9,51,4.4-.4,21.7-62.2-2.5-15.4-12.3Z"/><path class="cls-1" d="M1095.4,823.1a35.38,35.38,0,0,0-8.5,16.8c-4.5,23.8,18.3,50.7,42.4,42.9,15.2-4.9,28-18.5,29.4-34.4,2-23.3-17.2-33.2-36.9-35.6-10.2-1.2-19.8,3.1-26.4,10.3m-15.7-16.4c11.6-12.5,22.9-23.5,41.3-20.1,28.3,5.3,55.8,13.1,62.2,45.4,3,14.7,3.4,37.4-6.2,49.8-3.8,4.9-9.1,8.2-14.3,11.5-21.2,13.4-49.8,20.8-72.6,5.1a24.18,24.18,0,0,1-5-5.1c-9-11-18-22.7-21.3-36.5-4.9-20.7,3.4-36.7,15.9-50.1"/><path class="cls-1" d="M1237.8,810.8l.8,23.7c14.6,2.7,31.4,1.5,32.9-8.7s-12.9-15.7-33.7-15m31.3-15.3c12.1,4.6,22.6,16.3,23.3,21,4.7,30.6-28.5,42.9-55.2,41.9l-2.8,44.6-26.2-4.2S1212,789,1212.3,789c21.5.2,33-2.5,56.8,6.5"/><path class="cls-1" d="M1314.9,791.5l-1.4,117.9,17.5-.3,62.8-2.7-2-25.7-50.6.7-.8-23.7,49.8,2.4.2-24.8-45.7-2.7-2.2-15.3,52.7.1,3-28.1Z"/><path class="cls-1" d="M1461.5,817.6l2,26.7c.6,8.4,32.3-2.8,31.6-13.1-.8-12.2-33.5-12.2-33.6-13.6m44.5-16.5c14.1,6.2,17.5,15.7,17.2,32-.1,2.9-4.2,25.9-24.9,29.8l30.1,45.8-29.7,3.3-24.9-42.5-11.3.9,2.2,43.2-27.1-3.1s-.4-117.9-.4-118c21.8.7,42.8,1.3,46.6,1.9,6.1.7,17.1,4.4,22.2,6.7"/><path class="cls-1" d="M1638.6,795.9l1.8,23.6c-21.6-4.1-52.6-17.7-55.7,1.1s49.4,20.5,57.9,50.3c5.6,19.6-7,32.3-22.6,33.9-5.8.6-44.2.3-63.6-7.6,0,0,1.4-20.7,1.4-21.8-.1.8,22.2,8.6,24.3,9,11.2,1.9,34.9,1.9,34.1-8.8-1.1-13.9-35.8-24.9-38.1-26.2-6-3.4-12.3-6.9-16.2-12.6-6.5-9.3-5-22.7,1.6-32,17-23.9,51.2-12.1,75.1-8.9"/><path class="cls-1" d="M1879.4,796.2l-.2,24.8c.8-4.2-40.8-5.4-45.9-3.5-15.8,6-30.7,28.6-25.5,45.7,3.2,10.4,15.3,20,24.7,23,2,.7,23.5,1.8,23.6-1.5l.7-18.7-27-2.1-.5-20.6,55,3.1s1,53.6,1,53.7c-.2,3.8-29.8,8.2-33.2,8.7a59.18,59.18,0,0,1-49.6-15.4c-14.6-13.9-26.7-42.1-19.7-62.1,6.1-17.3,28.9-36.1,46.3-40.5,4.5-1,50.4.9,50.3,5.4"/><path class="cls-1" d="M1936.4,798.1l30.3,4.9c-.1,11.8-.2,23.7-.4,35.5-.1,12.2-1.6,24.8,1.2,36.9,3,13,17.6,20.2,28.7,11.3s12-25.6,12.7-38.6c.2-4-.8-49.2-1.2-49.2h26.9l-.9,46.8c-.4,18.7,3.3,42.7-11.6,57.2-13.8,13.5-36.5,16.2-54.5,10.9-16-4.7-26.8-24.5-27.4-40.7-.4-10-1-20-1.5-30-.7-14.9-1.5-30-2.3-45"/><path class="cls-1" d="M2086,795.7l-.7,112.9,27.9-.1,1.9-110.7Z"/><path class="cls-1" d="M2166.3,790.9l29.3,5-2.8,86,51,5.4-.5,20.7-64.4-4.4-14.4-12.3Z"/><path class="cls-1" d="M2313.1,819s-1.2,66.1-1.2,66.2c0,3.8,25.8-.9,28.3-2.1,16.2-8,20-30.2,13.1-45.5-8.4-18.6-23-17.8-40.2-18.6m42.1-21.2c19.7,9.5,31.2,31.2,30.3,54.7-1.3,33.6-28,58.3-60.9,61-3.3.3-39.5-1-39.5-.3q.6-59.55,1.3-118.9c.1-3.4,43.8-1.5,47.9-1.4a49.08,49.08,0,0,1,20.9,4.9"/></svg>