<?xml version="1.0" encoding="utf-8"?>
<!-- Generator: Adobe Illustrator 22.1.0, SVG Export Plug-In . SVG Version: 6.00 Build 0)  -->
<svg version="1.1" id="Layer_1" xmlns="http://www.w3.org/2000/svg" xmlns:xlink="http://www.w3.org/1999/xlink" x="0px" y="0px"
	 viewBox="0 0 2880 1144" style="enable-background:new 0 0 2880 1144;" xml:space="preserve">
<style type="text/css">
	.st0{opacity:0.5;fill:#37352F;enable-background:new    ;}
	.st1{fill:#F7F1D9;}
	.st2{fill:#C5A7B4;}
	.st3{fill:#606060;}
	.st4{fill:#885780;}
</style>
<title>banner</title>
<polygon class="st0" points="2520.5,654.9 2661.4,300 2633.6,270.8 2359.8,293.9 2356.5,173 2008.3,178 1992,201.1 1974.2,177.9 
	581.1,176.4 587.7,92.1 165.6,99.9 232.2,208.6 261,213.6 245.3,230 367,428.8 209.3,824.8 475.8,813.1 453.1,976 854,960.7 
	866.2,934.2 888.2,961 2306.9,969.4 2312,1058.3 2721.2,1029.4 "/>
<polygon class="st1" points="573.3,205.2 579.3,366.8 2274.4,378.7 2258.4,211.2 "/>
<polygon class="st2" points="264.2,240.4 371.9,440.6 220.3,802.6 487.6,791.5 475.6,945.1 828.6,943.1 854.5,915.2 886.4,943.1 
	2318.3,947.1 2318.3,1036.8 2679.2,1004.9 2487.8,651.9 2567.5,472.5 2531.6,434.6 2354.1,422.6 2334.2,366.8 519.5,360.8 
	501.5,251.1 "/>
<path class="st3" d="M767.2,485.4c-0.3-2-33.8-14.5-37-15.3c-35.5-8.8-74.6-0.8-96.4,30.4c-24.1,34.4-11.8,82,24.6,103.2
	c16.5,9.6,43.3,10.9,55.9,27.7c8.8,11.8,4.7,25.2-7.2,32.7c-14.8,9.3-29.5,4.4-44.5-1.4c-13.1-5.1-26.3-10-39.4-15
	c0,0-1.4,47.6-1.4,47.7c0,1.6,24.3,10.4,27,11.5c30.3,12.4,64.9,11.6,95.4,0.3c26.9-9.9,29.6-42,30.5-67c0.1-6.3-1.7-12.5-3.5-18.6
	c-8.7-29.2-20.1-31.2-45.6-43.9c-11.6-5.8-23.9-10.6-34.2-18.6c-7.7-5.9-14.5-15.3-14.7-25.4c-0.3-18.8,22.4-26.7,35.1-26
	c7.7,0.4,35.1,12.3,53,23C764.6,530.7,767.1,487.3,767.2,485.4"/>
<path class="st3" d="M808.1,466.3c0,0,54.1,9.2,57.5,9.8c1.4,0.2-5.3,72-5.7,77.5c-1.7,23.1-5.9,47.7-0.5,70.5
	c4.6,19.4,32,56.8,50.5,26.7c16.8-27.3,16.4-72.1,17.9-103c0.2-4.7,2.1-71,3.5-71.1l50.9-3.9c0.6,26.3,2.2,69.1,2.5,85.4
	c1.6,76.9-10.3,155.2-104.6,155.2c-46.6,0-75.2-52.5-74.5-93.5C805.6,620,808.1,466.3,808.1,466.3"/>
<path class="st3" d="M1022.7,719.2l-0.9-249.3l48.1-3.7l63.2,120.4l8.6-111.6l54.2,1.6l-2.3,243.9l-64.5,0.2l-55.8-135.1l1.6,133.6
	L1022.7,719.2z"/>
<path class="st3" d="M1398.2,670.6c1.1,12.7,2.1,25.5,3.2,38.2c0.2,1.1,0.1,2.2-0.5,3.1c-0.7,0.7-1.5,1.2-2.5,1.4
	c-25,7.4-51.3,12.4-77.2,9c-41.8-5.4-78.5-37.3-85.1-79.8c-5-32-9.8-65.9,2.3-96c13.8-34.6,36.7-50.8,71.7-63.7
	c28.1-10.3,66.6-3.8,94.1,3.5c-0.8,15.4-1.6,30.7-2.4,46.1c-27.7-12.5-97.5-20.3-112.7,15.8c-7.3,17.2-6.4,42.6-5.5,61
	C1285.9,661.2,1353.5,688.8,1398.2,670.6"/>
<path class="st3" d="M1737.8,609l32,9l-13.9-70.1L1737.8,609z M1731.1,484.3l51.3,1.8l69.6,242.2l-50.9,3.9l-19.7-72.5l-48.3,0.8
	l-22.9,72.9l-57.4-7L1731.1,484.3z"/>
<path class="st3" d="M1533.3,677.7c11.7,2,23.4,0.4,33.1-8.1c14.2-12.4,18.9-33.7,18.5-51.8c-0.5-25.9-13.6-54.4-33.7-71.1
	c-10.7-8.9-26.1-13.6-39-8.1c-11.6,5-18.4,16.9-23.8,28.3c-7.3,15.4-13.5,31.9-13.7,48.9c-0.2,22.9,12.1,40.6,31.6,51.7
	C1514.4,672.1,1523.8,676.1,1533.3,677.7 M1461.3,512.6c10-9.8,21.9-17.5,35-22.6c28.8-11,61-9.1,88.3,5.2
	c67.5,35.8,73.6,129.5,33.2,187.9c-15.5,22.5-37.9,39.9-64.9,45.8c-79.4,17.3-136.4-62.4-129.1-134.9
	C1426.9,564.3,1439.8,533.6,1461.3,512.6"/>
<path class="st3" d="M2017.6,496c0,0,1.3,46.9,1.3,47c-14.3-6.9-41.1-13.2-48.9-13.5c-15.4-0.5-30.5,0.5-39.6,15.8
	c-4,6.8-1.9,15.8,3,22c12.6,16,36.2,20.6,53.7,29.1c40.7,19.8,59.1,67.4,34.4,107.6c-16.5,26.9-47.6,24.9-75.8,23.3
	c-6.5-0.4-63.5-6.7-63.6-12.4c0,0-0.1-41.7-0.1-42.1c13.2,4.7,33.3,8.5,40.6,9.7c16.8,2.9,22.6,4.4,39.1-0.8c4.3-1.4,9.4-5,12.9-7.9
	c9.2-7.4,7-17.7,0.6-26.1c-3.8-5-9.3-8.5-14.9-11.4c-13.7-7.1-28.8-11.3-43-17.3c-32.9-14-50.4-40.1-44.6-76.4
	c4.7-29.4,17.3-53.8,48.2-61.5c16-4,34-3.1,49.9,0.9C1975.1,483,2017.5,493.9,2017.6,496"/>
<path class="st3" d="M2067.9,495.9l1.9,50.3l56.3-4.2l11.2,196.1l53.3-7.7l-5.2-194.1l51.3-1.7l1.1-51.7L2067.9,495.9z"/>
<path class="st3" d="M650.5,855.5c10-4.3,16.1-15.4,16.1-26.2c0-26.3-18.7-29.4-39.2-33.6v62.6C627.4,859,649,856.2,650.5,855.5
	 M600.5,879.3c0,0,3.3-102.8,3.4-105.5c0-0.3,33.7-0.8,36.5-0.7c23.1,1,47.5,17.4,50.1,41.7c3.9,36.4-10.8,52.9-44.6,61
	C642.6,876.7,600.4,885.4,600.5,879.3"/>
<path class="st3" d="M721.4,772.5l-4.7,88.5l7.6,18.4l63.3,2.8l3.1-22l-46.5-0.3v-24.7l40.9,1.6l3.9-24l-44.7-1.3l-1.2-16l46.3-1.6
	l4.1-21.2L721.4,772.5z"/>
<path class="st3" d="M813.5,775l25.5-2l23.4,70.3l19.6-66.9l23.6-0.9l-36.5,106.1l-22.9-2L813.5,775z"/>
<path class="st3" d="M920.7,775.3l-0.7,90.1l-0.7,16.2l76.1,2.8l-0.6-19.9l-50.7-5.6l2.2-21l44.5-1.5l-2.4-18.8l-39-1.8l-1.7-22.6
	l46.6,2.1l1.6-16.2L920.7,775.3z"/>
<path class="st3" d="M1016.5,775.7l23.9,2.9l-0.5,80.6l46.8,4l-0.4,19.9l-57.1-2.3l-14.1-11.3L1016.5,775.7z"/>
<path class="st3" d="M1129.5,811c-4,4.3-6.7,9.6-7.8,15.4c-4.2,21.8,16.8,46.6,38.9,39.4c14-4.5,25.7-17,26.9-31.6
	c1.9-21.4-15.8-30.5-33.8-32.6C1144.4,800.5,1135.6,804.4,1129.5,811 M1115,796.1c10.7-11.4,21-21.6,37.9-18.4
	c25.9,4.8,51.2,12.1,57.1,41.7c2.7,13.5,3.1,34.3-5.7,45.7c-3.5,4.5-8.3,7.6-13.1,10.6c-19.4,12.3-45.7,19.1-66.6,4.6
	c-1.7-1.4-3.3-2.9-4.6-4.7c-8.2-10.1-16.5-20.8-19.5-33.5C1096,823,1103.6,808.4,1115,796.1"/>
<path class="st3" d="M1260.1,799.8l0.7,21.8c13.4,2.5,28.8,1.4,30.2-8S1279.2,799.1,1260.1,799.8 M1288.9,785.7
	c11.1,4.2,20.8,15,21.4,19.3c4.3,28.1-26.2,39.4-50.7,38.5l-2.6,41l-24-3.9c0,0,3.5-100.8,3.7-100.8
	C1256.5,779.9,1267,777.4,1288.9,785.7"/>
<path class="st3" d="M1330.9,782.1l-1.3,108.2l16.1-0.3l57.7-2.5l-1.8-23.6l-46.4,0.7l-0.7-21.8l45.7,2.2l0.2-22.8l-41.9-2.5
	l-2-14.1l48.4,0.1l2.8-25.8L1330.9,782.1z"/>
<path class="st3" d="M1465.4,806l1.9,24.5c0.6,7.7,29.7-2.6,29-12.1C1495.5,807.3,1465.5,807.3,1465.4,806 M1506.2,790.8
	c12.9,5.7,16,14.4,15.7,29.4c-0.1,2.7-3.9,23.8-22.8,27.3l27.6,42l-27.3,3l-22.9-39l-10.4,0.8l2.1,39.7l-24.9-2.9
	c0,0-0.4-108.2-0.4-108.3c20,0.6,39.3,1.2,42.8,1.7C1491.5,785.3,1501.5,788.8,1506.2,790.8"/>
<path class="st3" d="M1628,786.1l1.6,21.7c-19.9-3.8-48.3-16.2-51.1,1s45.4,18.8,53.1,46.1c5.1,18-6.4,29.6-20.8,31.1
	c-5.4,0.5-40.5,0.2-58.4-6.9c0,0,1.3-19,1.3-20c0,0.7,20.3,7.9,22.3,8.3c10.3,1.7,32,1.8,31.3-8.1c-1-12.7-32.9-22.9-34.9-24
	c-5.5-3.1-11.3-6.3-14.9-11.5c-6-8.6-4.6-20.8,1.4-29.4C1574.6,772.3,1606,783.1,1628,786.1"/>
<path class="st3" d="M1848.9,786.4l-0.2,22.8c0.8-3.8-37.4-5-42.1-3.2c-14.5,5.5-28.2,26.3-23.4,42c2.9,9.5,14,18.4,22.7,21.1
	c1.9,0.6,21.6,1.7,21.7-1.4l0.6-17.1l-24.8-1.9l-0.5-18.9l50.5,2.8l0.9,49.2c-0.2,3.5-27.3,7.5-30.4,8c-16.5,2.6-33.4-2.7-45.5-14.2
	c-13.4-12.8-24.5-38.6-18.1-56.9c5.6-15.8,26.5-33.1,42.5-37.1C1806.8,780.5,1848.9,782.3,1848.9,786.4"/>
<path class="st3" d="M1901.2,788.1l27.8,4.5c-0.1,10.9-0.2,21.7-0.3,32.6c-0.1,11.2-1.5,22.8,1.1,33.9c2.7,11.9,16.2,18.5,26.4,10.3
	s11-23.5,11.6-35.4c0.2-3.6-0.7-45.1-1.1-45.1h24.7c-0.3,14.3-0.5,28.6-0.8,43c-0.3,17.1,3,39.2-10.6,52.5
	c-12.7,12.4-33.5,14.9-50,10c-14.7-4.3-24.5-22.5-25.1-37.3c-0.4-9.2-0.9-18.3-1.4-27.5C1902.6,815.7,1901.9,801.9,1901.2,788.1"/>
<path class="st3" d="M2038.5,786l-0.7,103.6l25.6-0.1l1.8-101.6L2038.5,786z"/>
<path class="st3" d="M2112.1,781.5l26.9,4.6l-2.5,78.9l46.8,5l-0.5,19l-59.1-4l-13.2-11.3L2112.1,781.5z"/>
<path class="st3" d="M2246.9,807.3c0,0-1.1,60.6-1.1,60.8c0,3.5,23.7-0.8,26-2c14.8-7.3,18.4-27.7,12-41.8
	C2276,807.3,2262.7,808,2246.9,807.3 M2285.5,787.8c18.1,8.7,28.6,28.7,27.8,50.2c-1.1,30.8-25.7,53.5-55.9,56
	c-3.1,0.3-36.3-0.9-36.3-0.3l1.2-109.2c0.1-3.1,40.2-1.4,44-1.3C2272.9,783.4,2279.5,785,2285.5,787.8"/>
<path class="st4" d="M1675.5,327c6.9,0.2,13-5,15.7-11.4s2.2-13.5,0.9-20.3s-4.1-14-10.2-17.4c-5.8-3.3-10.3-1.9-13.8,1.7
	c-6.8,7.1-9.4,23-8.6,29.9C1660.4,318.2,1666.8,326.8,1675.5,327z"/>
<path class="st4" d="M2509.4,649.4l140.9-354.9l-27.8-29.2l-273.7,23.1l-3.3-120.9l-348.3,5l-16.3,23.1l-17.8-23.1L570,170.9
	l6.6-84.3l-422.1,7.8l66.6,108.7l28.8,4.9l-15.7,16.5l121.7,198.8l-157.7,396l266.5-11.7L442,970.5l400.9-15.3l12.2-26.5l21.9,26.8
	l1418.7,8.4l5,88.9l409.3-28.9L2509.4,649.4z M2155,255.4c6.3-6.1,15-9.2,23.7-8.4c15.1,1.2,25.6,15.7,30.9,29.8
	c4.6,12.1,7.1,25.4,4.7,38.1s-10.4,24.8-22.2,30.1c-17.1,7.5-38.5-1.5-48-17.5C2133.1,309.1,2137,272.1,2155,255.4z M1913.7,256
	l24.1-0.4l1.9,99.4l-27,0.6L1913.7,256z M1639,286.7c4.7-19.9,16.8-38.1,36.2-37.6c12.2,0.3,22,10.2,28.4,20.5
	c8.6,14,13.7,30.8,10.6,47s-15.6,31-31.8,33.7c-17.6,3-35.5-9.2-42.3-25.7C1636.1,314.9,1635.8,300.4,1639,286.7z M1438.6,251.8
	l-2.8,94.1l-21.2,1.6l-1.9-99.4L1438.6,251.8z M1147.8,262.8c6.1-8.7,15.4-14.5,25.8-16.3c11.5-2,24.2,2,31.3,11.3
	c5.1,6.6,7,15,8,23.3c2.2,18,0.1,37.6-11.1,51.9s-33.6,20.5-48.3,9.9c-8.5-6.1-13-16.4-15-26.7
	C1135,298.7,1137.4,277.4,1147.8,262.8L1147.8,262.8z M911.5,245.5l29.5-5.1l-7,114.3l-24.9-9.5L911.5,245.5z M662.7,242.2
	c5.4-2.3,11.2-3.5,17.1-3.3c5.2,0,10.5,1.2,14.7,4.2c2.8,2.2,5.2,5,7,8.1c14.9,23.9,12,57.5-6.6,78.6c-4.4,5-9.8,9.4-16.3,10.7
	c-12.3,2.5-24-6.9-30.5-17.6C632.7,298.1,635.1,254.5,662.7,242.2z M457.4,474.4l-0.9,299.7l-214.7,19.2L394,437.5l-98.6-174.6
	l172,3.8L457.4,474.4z M880.3,923.9l-21.7-24l-29.4,25l-324.9-2.5L514.8,398l1798.4,9.9l12,263l31.4,252.8L880.3,923.9z M2350.2,973
	l51.4-31.4l-34-273.8l-5.9-205.3l164.6-2.1l21.9,26.8L2472.8,655l172.6,331l-298.2,32.9L2350.2,973z"/>
<path class="st4" d="M666.1,317c5,3.2,12,2.2,16.7-1.5s7.4-9.4,8.6-15.3c2-9.8,0.2-20.1-4.9-28.7c-2.6-4.3-6.2-8.3-10.9-10
	c-6.9-2.5-11.3-0.3-14.2,4.3c-5.9,9.4-4.6,28.7-3.2,36.3C659.4,307.8,661.3,313.9,666.1,317z"/>
<path class="st4" d="M1166.3,328.9c4,3.2,10.1,1.1,14.1-2.1c9.3-7.4,13.7-19.7,13.6-31.6c0-6.5-1.5-13.3-6-18
	c-6.4-6.5-16.8-6.8-23.6-0.8c-11.3,10.3-6.8,36.3-1.3,47.9C1163.8,326.1,1164.9,327.6,1166.3,328.9z"/>
<path class="st4" d="M2173.7,325.6c26.1,10.5,25.5-31.7,17.2-45c-1.9-3.1-4.5-6-7.9-7.1c-14.8-4.8-25.9,17.5-22.8,32.7
	C2161.8,313.6,2166.2,322.6,2173.7,325.6z"/>
<path class="st1" d="M761.3,476.8c-0.3-2-33.8-14.5-37-15.3c-35.5-8.8-74.6-0.8-96.4,30.4c-24.1,34.4-11.8,82,24.6,103.2
	c16.5,9.6,43.3,10.9,55.9,27.7c8.8,11.8,4.7,25.2-7.2,32.7c-14.8,9.3-29.5,4.4-44.5-1.4c-13.1-5.1-26.3-10-39.4-15
	c0,0-1.4,47.6-1.4,47.7c0,1.6,24.3,10.4,27,11.5c30.3,12.4,64.9,11.6,95.4,0.3c26.9-9.9,29.6-42,30.5-67c0.1-6.3-1.7-12.5-3.5-18.6
	c-8.7-29.2-20.1-31.2-45.6-43.9c-11.6-5.8-23.9-10.6-34.2-18.6c-7.7-5.9-14.5-15.3-14.7-25.4c-0.3-18.8,22.4-26.7,35.1-26
	c7.7,0.4,35.1,12.3,53,23C758.8,522.1,761.2,478.7,761.3,476.8"/>
<path class="st1" d="M802.2,457.6c0,0,54.1,9.2,57.5,9.8c1.4,0.2-5.3,72-5.7,77.5c-1.7,23.1-5.9,47.7-0.5,70.5
	c4.6,19.4,32,56.8,50.5,26.7c16.8-27.3,16.4-72.1,17.9-103c0.2-4.7,2.1-71,3.5-71.1l50.9-3.9c0.6,26.3,2.2,69.1,2.5,85.4
	c1.6,76.9-10.3,155.2-104.6,155.2c-46.6,0-75.2-52.5-74.5-93.5C799.7,611.4,802.2,457.6,802.2,457.6"/>
<path class="st1" d="M1016.8,710.6l-0.9-249.3l48.1-3.7l63.2,120.4l8.6-111.6l54.2,1.6l-2.3,243.9l-64.5,0.2L1067.4,577l1.6,133.6
	H1016.8z"/>
<path class="st1" d="M1392.3,662c1.1,12.7,2.1,25.5,3.2,38.2c0.2,1.1,0.1,2.2-0.5,3.1c-0.7,0.7-1.5,1.2-2.5,1.4
	c-25,7.4-51.3,12.4-77.2,9c-41.8-5.4-78.5-37.3-85.1-79.8c-5-32-9.8-65.9,2.3-96c13.8-34.6,36.7-50.8,71.7-63.7
	c28.1-10.3,66.6-3.8,94.1,3.5c-0.8,15.4-1.6,30.7-2.4,46.1c-27.7-12.5-97.5-20.3-112.7,15.8c-7.3,17.2-6.4,42.6-5.5,61
	C1280,652.6,1347.7,680.2,1392.3,662"/>
<path class="st1" d="M1731.9,600.4l32,9l-13.9-70.1L1731.9,600.4z M1725.3,475.7l51.3,1.8l69.6,242.2l-50.9,3.9l-19.7-72.5
	l-48.3,0.8l-22.9,72.9l-57.4-7L1725.3,475.7z"/>
<path class="st1" d="M1527.4,669.1c11.7,2,23.4,0.4,33.1-8.1c14.2-12.4,18.9-33.7,18.5-51.8c-0.5-25.9-13.6-54.4-33.7-71.1
	c-10.7-8.9-26.1-13.6-39-8.1c-11.6,5-18.4,16.9-23.8,28.3c-7.3,15.4-13.5,31.9-13.7,48.9c-0.2,22.9,12.1,40.6,31.6,51.7
	C1508.8,663.8,1517.9,667.2,1527.4,669.1 M1455.5,504c10-9.8,21.9-17.5,35-22.6c28.8-11,61-9.1,88.3,5.2
	c67.5,35.8,73.6,129.5,33.2,187.9c-15.5,22.5-37.9,39.9-64.9,45.8c-79.4,17.3-136.4-62.4-129.1-134.9
	C1421.1,555.7,1433.9,525,1455.5,504"/>
<path class="st1" d="M2011.7,487.4c0,0,1.3,46.9,1.3,47c-14.3-6.9-41.1-13.2-48.9-13.5c-15.4-0.5-30.5,0.5-39.6,15.8
	c-4,6.8-1.9,15.8,3,22c12.6,16,36.2,20.6,53.7,29.1c40.7,19.8,59.1,67.4,34.4,107.6c-16.5,26.9-47.6,24.9-75.8,23.3
	c-6.5-0.4-63.5-6.7-63.6-12.4c0,0-0.1-41.7-0.1-42.1c13.2,4.7,33.3,8.5,40.6,9.7c16.8,2.9,22.6,4.4,39.1-0.8c4.3-1.4,9.4-5,12.9-7.9
	c9.2-7.4,7-17.7,0.6-26.1c-3.8-5-9.3-8.5-14.9-11.4c-13.7-7.1-28.8-11.3-43-17.3c-32.9-14-50.4-40.1-44.6-76.4
	c4.7-29.4,17.3-53.8,48.2-61.5c16-4,34-3.1,49.9,0.9C1969.2,474.4,2011.7,485.3,2011.7,487.4"/>
<path class="st1" d="M2062.1,487.3l1.9,50.3l56.3-4.2l11.2,196.1l53.3-7.7l-5.2-194.1l51.3-1.7l1.1-51.7L2062.1,487.3z"/>
<path class="st1" d="M644.7,846.9c10-4.3,16.1-15.4,16.1-26.2c0-26.3-18.7-29.4-39.2-33.6v62.6C621.5,850.4,643.2,847.6,644.7,846.9
	 M594.7,870.7c0,0,3.3-102.8,3.4-105.5c0-0.3,33.7-0.8,36.5-0.7c23.1,1,47.5,17.4,50.1,41.7c3.9,36.4-10.8,52.9-44.6,61
	C636.7,868.1,594.5,876.8,594.7,870.7"/>
<path class="st1" d="M715.5,763.9l-4.7,88.5l7.6,18.4l63.3,2.8l3.1-22l-46.5-0.3v-24.7l40.9,1.6l3.9-24l-44.7-1.3l-1.2-16l46.3-1.6
	l4.1-21.2L715.5,763.9z"/>
<path class="st1" d="M807.7,766.3l25.5-1.9l23.4,70.3l19.6-66.9l23.6-0.9L863.3,873l-22.9-2L807.7,766.3z"/>
<path class="st1" d="M914.9,766.7l-0.7,90.1l-0.7,16.2l76.1,2.8l-0.6-19.9l-50.7-5.6l2.2-21l44.5-1.5l-2.4-18.8l-39-1.8l-1.7-22.6
	l46.6,2.1l1.6-16.2L914.9,766.7z"/>
<path class="st1" d="M1010.7,767l23.9,2.9l-0.5,80.6l46.8,4l-0.4,19.9l-57.1-2.3l-14.1-11.3L1010.7,767z"/>
<path class="st1" d="M1123.6,802.4c-4,4.3-6.7,9.6-7.8,15.4c-4.2,21.8,16.8,46.6,38.9,39.4c14-4.5,25.7-17,26.9-31.6
	c1.9-21.4-15.8-30.5-33.8-32.6C1138.5,791.9,1129.7,795.8,1123.6,802.4 M1109.2,787.4c10.7-11.4,21-21.6,37.9-18.4
	c25.9,4.8,51.2,12.1,57.1,41.7c2.7,13.5,3.1,34.3-5.7,45.7c-3.5,4.5-8.3,7.6-13.1,10.6c-19.4,12.3-45.7,19.1-66.6,4.6
	c-1.7-1.4-3.3-2.9-4.6-4.7c-8.2-10.1-16.5-20.8-19.5-33.5C1090.2,814.4,1097.7,799.7,1109.2,787.4"/>
<path class="st1" d="M1254.3,791.2l0.7,21.8c13.4,2.5,28.8,1.4,30.2-8S1273.4,790.5,1254.3,791.2 M1283,777.1
	c11.1,4.2,20.8,15,21.4,19.3c4.3,28.1-26.2,39.4-50.7,38.5l-2.6,41l-24-3.9c0,0,3.5-100.8,3.7-100.8
	C1250.6,771.3,1261.2,768.8,1283,777.1"/>
<path class="st1" d="M1325,773.5l-1.3,108.2l16.1-0.3l57.7-2.5l-1.8-23.6l-46.4,0.7l-0.7-21.8l45.7,2.2l0.2-22.8l-41.9-2.5l-2-14.1
	l48.4,0.1l2.8-25.8L1325,773.5z"/>
<path class="st1" d="M1459.6,797.4l1.9,24.5c0.6,7.7,29.7-2.6,29-12.1C1489.6,798.7,1459.6,798.7,1459.6,797.4 M1500.4,782.2
	c12.9,5.7,16,14.4,15.7,29.4c-0.1,2.7-3.9,23.8-22.8,27.3l27.6,42l-27.3,3l-22.9-39l-10.4,0.8l2.1,39.7l-24.9-2.9
	c0,0-0.4-108.2-0.4-108.3c20,0.6,39.3,1.2,42.8,1.7C1485.6,776.7,1495.7,780.1,1500.4,782.2"/>
<path class="st1" d="M1622.1,777.5l1.6,21.7c-19.9-3.8-48.3-16.2-51.1,1s45.4,18.8,53.1,46.1c5.1,18-6.4,29.6-20.8,31.1
	c-5.4,0.5-40.5,0.2-58.4-6.9c0,0,1.3-19,1.3-20c0,0.7,20.3,7.9,22.3,8.3c10.3,1.7,32,1.8,31.3-8.1c-1-12.7-32.9-22.9-34.9-24
	c-5.5-3.1-11.3-6.3-14.9-11.5c-6-8.6-4.6-20.8,1.4-29.4C1568.8,763.7,1600.1,774.5,1622.1,777.5"/>
<path class="st1" d="M1843,777.8l-0.2,22.8c0.8-3.8-37.4-5-42.1-3.2c-14.5,5.5-28.2,26.3-23.4,42c2.9,9.5,14,18.4,22.7,21.1
	c1.9,0.6,21.6,1.7,21.7-1.4l0.6-17.1l-24.8-1.9l-0.5-18.9l50.5,2.8l0.9,49.2c-0.2,3.5-27.3,7.5-30.4,8c-16.5,2.6-33.4-2.7-45.5-14.2
	c-13.4-12.8-24.5-38.6-18.1-56.9c5.6-15.8,26.5-33.1,42.5-37.1C1801,771.9,1843.1,773.7,1843,777.8"/>
<path class="st1" d="M1895.3,779.5l27.8,4.5c-0.1,10.9-0.2,21.7-0.3,32.6c-0.1,11.2-1.5,22.8,1.1,33.9c2.7,11.9,16.2,18.5,26.4,10.3
	s11-23.5,11.6-35.4c0.2-3.6-0.7-45.1-1.1-45.1h24.7c-0.3,14.3-0.5,28.6-0.8,43c-0.3,17.1,3,39.2-10.6,52.5
	c-12.7,12.4-33.5,14.9-50,10c-14.7-4.3-24.5-22.5-25.1-37.3c-0.4-9.2-0.9-18.3-1.4-27.5C1896.8,807.1,1896,793.3,1895.3,779.5"/>
<path class="st1" d="M2032.7,777.3L2032,881l25.6-0.1l1.8-101.6L2032.7,777.3z"/>
<path class="st1" d="M2106.3,772.9l26.9,4.6l-2.5,78.9l46.8,5l-0.5,19l-59.1-4l-13.2-11.3L2106.3,772.9z"/>
<path class="st1" d="M2241,798.7c0,0-1.1,60.6-1.1,60.8c0,3.5,23.7-0.8,26-2c14.8-7.3,18.4-27.7,12-41.8
	C2270.2,798.7,2256.8,799.4,2241,798.7 M2279.7,779.2c18.1,8.7,28.6,28.7,27.8,50.2c-1.1,30.8-25.7,53.5-55.9,56
	c-3.1,0.3-36.3-0.9-36.3-0.3l1.2-109.2c0.1-3.1,40.2-1.4,44-1.3C2267.1,774.8,2273.7,776.4,2279.7,779.2"/>
</svg>
