<svg id="Layer_1" data-name="Layer 1" xmlns="http://www.w3.org/2000/svg" viewBox="0 0 505.75 452.31"><defs><style>.cls-1{fill:#5a9191;}.cls-2{fill:#81d0d3;}.cls-3{fill:#76bdbc;}.cls-4{fill:#d6562b;}.cls-5{fill:#231f20;fill-opacity:0.3;}.cls-6{fill:#895881;}.cls-7{fill:#c6a9b5;}.cls-8{fill:#fff200;}.cls-9{fill:#f9a01b;}.cls-10{fill:#fff;}.cls-11{fill:#b2d235;}.cls-12{fill:#f7f2da;}.cls-13{fill:#df8b26;}.cls-14{fill:#e4d41d;}.cls-15{fill:#a4bf3a;}</style></defs><title>bouy-academy</title><g id="Layer_2" data-name="Layer 2"><polygon class="cls-1" points="94.72 8.95 104.48 0 393.62 2.25 452.94 297.12 463.6 350.83 470.92 371.18 245.89 452.31 21.62 371.18 22.96 350.51 29.28 348.21 39.04 293.68 94.72 8.95"/><polygon class="cls-2" points="102.18 15.83 113.47 7.61 386.73 9.14 444.13 293.87 48.22 293.11 102.18 15.83"/><polygon class="cls-3" points="387.78 15.83 386.73 9.14 113.47 7.61 102.18 15.83 48.22 293.11 53.67 293.11 106.2 18.7 114.81 12.1 387.78 15.83"/><path class="cls-4" d="M209.25,293.68,349,294s4.59-15.21,4.88-25.26-8.32-31.48-8.32-31.48L225,227.66s-13.49,12.06-16.64,21-5.17,18.65-4.31,26.4S209.25,293.68,209.25,293.68Z"/><polygon class="cls-5" points="85.53 58.03 52.24 225.37 129.93 227.66 131.08 224.98 133.37 227.66 448.06 250.63 409.59 82.71 85.53 58.03"/><polygon class="cls-6" points="2.3 38.8 88.98 38.8 84.96 60.61 366.07 82.27 369.31 87.21 372.95 82.8 424.23 87.02 427.1 112.28 497.71 111.13 502.88 117.44 469.01 186.9 505.75 259.81 446.62 264.98 442.6 247.18 134.91 223.64 130.89 217.9 128.02 223.07 42.48 219.05 53.96 187.48 0 185.76 37.89 108.26 16.38 66.28 19.8 63.19 14.06 61.76 2.3 38.8"/><polygon class="cls-7" points="28.13 74.96 70.61 73.24 66.59 123.18 52.81 180.59 9.19 181.16 45.35 111.7 28.13 74.96"/><polygon class="cls-7" points="82.67 106.53 57.41 211.01 125.72 216.75 132.03 212.16 136.05 217.33 445.47 239.14 431.5 188.44 423.47 136.96 82.67 106.53"/><polygon class="cls-7" points="475.32 149.02 479.34 154.76 461.55 187.48 494.84 254.64 454.08 257.9 452.94 247.18 458.68 243.16 440.11 188.44 434.18 148.44 475.32 149.02"/><polygon class="cls-8" points="31.57 355.87 30.81 368.12 140.26 406.39 351.52 404.86 462.5 368.88 457.91 355.1 31.57 355.87"/><polygon class="cls-9" points="45.08 300.88 38.19 348.25 454.85 346.69 442.6 301.52 45.08 300.88"/><path class="cls-5" d="M195.76,244.17l3.73.28,3,4.31s13-.91,16.31,1.1,6.24,6.83,6.24,6.83l-3.44.14a8.6,8.6,0,0,0-4.61-4.48c-3.26-1.15-15.93,2.44-15.93,2.44l-2.87-4-2.59,2.73s-15.28-2.21-17.65-1.15-4.43,6-4.43,6l-2.44-.43s2.9-7.34,6-8.87,15.93.28,15.93.28Z"/><path class="cls-5" d="M256.75,261.1l5.45-.71,3.73,6.31,9.08-.23c5.1-.14,10.67-.52,15.65,1.16,6.31,2.13,9,7.31,10.89,13.31l-4.45-.58a43.75,43.75,0,0,0-4.33-5.36c-2.12-1.69-4.79-2.26-7.5-2.72-3.19-.54-6.06.42-9.19.88-3.82.57-7.47,1.58-11.29,2.15l-4.6-6.6-5,5.6-11.69-1.24c-3.51-.37-7.79-1.33-11.41-.63-4.22.81-8,4-9.17,7l-4.22-.25a34.51,34.51,0,0,1,8.23-9.38c3.63-1.53,7.46-2.9,15.55-2.58l9.94.38Z"/><path class="cls-10" d="M195.76,241.87l3.73.29,3,4.3s13-.9,16.31,1.1,6.24,6.83,6.24,6.83l-3.44.15a8.65,8.65,0,0,0-4.61-4.49c-3.26-1.15-15.93,2.44-15.93,2.44l-2.87-4-2.59,2.73S180.32,249,178,250.07s-4.43,6-4.43,6l-2.44-.43s2.9-7.34,6-8.87,15.93.29,15.93.29Z"/><path class="cls-10" d="M256.75,258.81l5.45-.72,3.73,6.31,9.08-.23c5.1-.13,10.67-.51,15.65,1.17,6.31,2.12,9,7.3,10.89,13.3l-4.45-.58a44.42,44.42,0,0,0-4.33-5.35c-2.12-1.7-4.79-2.26-7.5-2.72-3.19-.55-6.06.41-9.19.88-3.82.57-7.47,1.57-11.29,2.14l-4.6-6.6-5,5.6-11.69-1.23c-3.51-.38-7.79-1.33-11.41-.64-4.22.82-8,4-9.17,7l-4.22-.26a34.47,34.47,0,0,1,8.23-9.37c3.63-1.54,7.46-2.9,15.55-2.59l9.94.38Z"/><polygon class="cls-11" points="161.94 410.79 162.28 417.57 246.66 445.42 340.59 411.47 161.94 410.79"/><path class="cls-6" d="M121.19,127.56c0-.4-6.59-3.44-7.24-3.65-7-2.32-15-1.31-19.92,4.66-5.39,6.58-3.65,16.36,3.38,21.2,3.19,2.19,8.57,2.85,10.85,6.44,1.6,2.51.56,5.16-2,6.49-3.13,1.65-6,.44-9-1-2.57-1.22-5.15-2.42-7.72-3.63l-1,9.59c0,.33,4.73,2.47,5.26,2.74A26.81,26.81,0,0,0,113.12,172c5.59-1.6,6.63-8,7.19-13.06a12.5,12.5,0,0,0-.42-3.8c-1.29-6-3.57-6.6-8.52-9.56a41.52,41.52,0,0,1-6.62-4.27,7.12,7.12,0,0,1-2.58-5.36c.23-3.8,4.93-5,7.48-4.7,1.55.21,6.89,3,10.33,5.45C120,136.67,121.13,128,121.19,127.56Z"/><path class="cls-6" d="M129.74,124.33l11.45,2.86c.28.08-2.17,14.46-2.34,15.56-.7,4.63-1.93,9.53-1.17,14.22.64,4,5.58,12,9.77,6.17,3.8-5.25,4.41-14.29,5.19-20.5.11-.94,1.5-14.29,1.78-14.29h10.34c-.29,5.31-.62,14-.81,17.27-.86,15.55-4.46,31.17-23.48,29.72-9.41-.71-14.37-11.74-13.6-20Z"/><polygon class="cls-6" points="169.16 178.68 172.79 128.35 182.55 128.35 193.46 153.61 196.9 131.22 207.81 132.37 203.6 181.55 190.59 180.59 181.4 152.46 179.68 179.44 169.16 178.68"/><path class="cls-6" d="M245.68,174.63l.06,7.76a.9.9,0,0,1-.14.62.94.94,0,0,1-.52.23c-5.17,1.11-10.55,1.71-15.72.63-8.35-1.73-15.27-8.73-16-17.4-.52-6.54-1-13.44,1.92-19.33,3.32-6.77,8.2-9.69,15.44-11.76,5.83-1.65,13.5.25,18.95,2.16l-1.2,9.27c-5.39-2.94-19.36-5.6-23,1.46-1.73,3.37-1.94,8.51-2.05,12.22C223.16,171,236.39,177.61,245.68,174.63Z"/><path class="cls-6" d="M315.73,142.13l10.34,1.15,10.33,49.94H326.07l-2.87-14.93-9.76-.57-5.74,14.35-11.48-2.29Zm-.57,25.26,6.34,2.29-1.73-14.35Z"/><path class="cls-6" d="M260.86,143.7a20.92,20.92,0,0,1,7.41-4A21.88,21.88,0,0,1,286,142.11c13.08,8.25,12.86,27.26,3.82,38.43a21.93,21.93,0,0,1-13.8,8.24c-16.28,2.26-26.58-14.69-24-29.2A27.27,27.27,0,0,1,260.86,143.7Zm12,34.42a7.77,7.77,0,0,0,6.8-1.12c3-2.29,4.32-6.52,4.53-10.18A20.17,20.17,0,0,0,278.5,152c-2-2-5.07-3.15-7.74-2.23-2.41.84-4,3.13-5.24,5.34a24.06,24.06,0,0,0-3.51,9.66c-.38,4.63,1.83,8.38,5.58,10.91a17.28,17.28,0,0,0,5.25,2.46Z"/><path class="cls-6" d="M373.36,148.88s-.46,9.47-.46,9.49a36.82,36.82,0,0,0-9.66-3.47c-3.11-.34-6.16-.37-8.23,2.59a4.06,4.06,0,0,0,.26,4.48c2.3,3.42,7,4.71,10.38,6.7,7.92,4.62,10.9,14.5,5.3,22.23-3.75,5.18-10,4.29-15.65,3.54-1.3-.18-12.71-2.33-12.64-3.48,0,0,.62-8.42.63-8.5a60.62,60.62,0,0,0,8,2.58c3.35.85,4.49,1.22,7.89.43a9.21,9.21,0,0,0,2.72-1.39c2-1.35,1.69-3.45.53-5.25a8.56,8.56,0,0,0-2.83-2.52c-2.66-1.65-5.63-2.72-8.41-4.16-6.42-3.32-9.56-8.87-7.83-16.1,1.39-5.87,4.3-10.6,10.67-11.67a21.43,21.43,0,0,1,10.05.94C365,145.61,373.38,148.45,373.36,148.88Z"/><polygon class="cls-6" points="383.52 149.63 383.14 159.81 394.57 159.81 393.82 199.57 404.7 198.83 406.64 159.57 417.02 160.01 418.04 149.59 383.52 149.63"/><path class="cls-6" d="M81.5,204.51l2.29-21.23c0-.06,6.82.35,7.37.41,4.66.55,9.33,4.25,9.48,9.19.22,7.4-3,10.52-9.94,11.63C90,204.62,81.39,205.74,81.5,204.51Zm10.45-4a5.8,5.8,0,0,0,3.64-5c.4-5.31-3.32-6.21-7.4-7.38l-1,12.63a29.93,29.93,0,0,0,4.73-.23Z"/><polygon class="cls-6" points="107.54 184.8 105.25 202.59 106.49 206.42 119.21 207.95 120.17 203.55 110.79 202.79 111.18 197.81 119.41 198.77 120.55 193.98 111.56 193.03 111.56 189.77 120.94 190.16 122.08 185.95 107.54 184.8"/><polygon class="cls-6" points="126.1 186.71 131.27 186.71 134.91 201.25 139.88 188.05 144.66 188.24 135.67 209.1 131.08 208.34 126.1 186.71"/><polygon class="cls-6" points="147.72 188.44 146.19 206.61 145.81 209.87 161.12 211.59 161.31 207.57 151.17 205.66 151.94 201.45 160.93 201.83 160.74 198 152.89 197.05 152.89 192.45 162.27 193.6 162.84 190.35 147.72 188.44"/><polygon class="cls-6" points="167.05 189.97 171.84 190.92 170.5 207.19 179.87 208.72 179.49 212.74 168.01 211.4 165.33 208.91 167.05 189.97"/><path class="cls-6" d="M186.62,195.59c2.33-2.14,4.57-4,7.94-3.14,5.16,1.37,10.14,3.22,10.89,9.29.33,2.77.09,7-1.86,9.13a9.84,9.84,0,0,1-2.81,1.93c-4.1,2.18-9.51,3.16-13.51-.08a4.84,4.84,0,0,1-.86-1c-1.51-2.17-3-4.46-3.43-7.07C182.37,200.74,184.12,197.9,186.62,195.59Zm2.69,3.25a6.35,6.35,0,0,0-1.8,3c-1.18,4.34,2.67,9.65,7.25,8.54a7.79,7.79,0,0,0,5.92-6c.7-4.29-2.72-6.39-6.33-7.1A5.73,5.73,0,0,0,189.31,198.84Z"/><path class="cls-6" d="M221.87,196.17c2.17,1,4,3.34,4,4.23.43,5.74-5.89,7.54-10.81,7l-1.15,8.23-4.78-1.15s2.25-20.29,2.3-20.28C215.42,194.51,217.58,194.17,221.87,196.17Zm-6,2.41-.19,4.4c2.67.7,5.79.72,6.22-1.15s-2.19-3.1-6.05-3.25Z"/><polygon class="cls-6" points="230.39 196.09 228.48 217.9 231.73 218.09 243.4 218.48 243.4 213.69 234.03 213.12 234.22 208.72 243.4 209.87 243.78 205.27 235.37 204.13 235.17 201.25 244.93 202.02 245.89 196.85 230.39 196.09"/><path class="cls-6" d="M265.65,200.54c2.51,1.35,3,3.16,2.72,6.17-.05.54-1.14,4.74-5,5.17l4.93,8.89-5.55.2-4-8.23h-2.1l-.19,8-5-1L253,198c4,.43,7.9.85,8.61,1A20.66,20.66,0,0,1,265.65,200.54ZM257.18,203v5c0,1.56,6-.06,6-2C263.23,203.71,257.17,203.23,257.18,203Z"/><path class="cls-6" d="M290.28,201.45v4.4c-3.95-1.07-9.49-4-10.32-.58s8.87,4.5,10,10.13a4.67,4.67,0,0,1-4.67,6c-1.09,0-8.18-.58-11.67-2.3l.57-4a33.75,33.75,0,0,0,4.37,2c2.06.51,6.44.85,6.44-1.15,0-2.59-6.28-5.12-6.68-5.39A8.6,8.6,0,0,1,275.5,208a5.32,5.32,0,0,1,.74-5.91C279.73,197.85,285.9,200.51,290.28,201.45Z"/><path class="cls-6" d="M334.87,204.89l-.37,4.59c.21-.76-7.48-1.58-8.46-1.29-3,.9-6.09,4.87-5.37,8.11a7.63,7.63,0,0,0,4.26,4.62c.37.15,4.33.67,4.4.05l.38-3.45-5-.76.19-3.83L335,214.27l-.57,10c-.1.71-5.63,1.09-6.26,1.15a11,11,0,0,1-9-3.56c-2.5-2.78-4.35-8.17-2.77-11.77,1.36-3.11,5.85-6.28,9.14-6.84C326.5,203.06,334.94,204.07,334.87,204.89Z"/><path class="cls-6" d="M345.39,206l5.55,1.34-.56,6.57c-.19,2.26-.64,4.57-.3,6.85a3.33,3.33,0,0,0,3.63,3,3.27,3.27,0,0,0,1.53-.53c2.18-1.5,2.59-4.57,2.89-7,.09-.73.54-9.12.47-9.12l5,.38-.82,8.66c-.33,3.45,0,8-2.95,10.44-2.75,2.3-7,2.49-10.24,1.25-2.9-1.1-4.61-4.91-4.5-7.91.07-1.86.09-3.71.13-5.57Z"/><polygon class="cls-6" points="373.14 207.71 371.42 228.62 376.58 229 378.5 208.53 373.14 207.71"/><polygon class="cls-6" points="388.07 207.95 393.42 209.29 391.7 225.18 401.08 226.9 400.69 230.72 388.83 229 386.34 226.51 388.07 207.95"/><path class="cls-6" d="M423,211.88a10.61,10.61,0,0,1,4.85,10.55c-.71,6.21-6,10.4-12.15,10.45-.62,0-7.3-.74-7.31-.62q1-11,1.91-22c.07-.63,8.14.34,8.89.41A9.52,9.52,0,0,1,423,211.88Zm-8.1,3.35s-1.15,12.21-1.15,12.24c0,.7,4.79.2,5.27,0,3.11-1.25,4.13-5.31,3.06-8.24C420.74,215.67,418,215.61,414.86,215.23Z"/><path class="cls-12" d="M118.89,125.27c0-.4-6.59-3.45-7.24-3.66-7-2.31-15-1.31-19.92,4.67-5.39,6.58-3.64,16.36,3.39,21.19,3.18,2.2,8.56,2.86,10.85,6.45,1.59,2.51.56,5.16-2,6.49-3.12,1.64-6,.43-9-1-2.56-1.22-5.14-2.42-7.72-3.63l-1,9.6c0,.33,4.74,2.47,5.26,2.73a26.88,26.88,0,0,0,19.25,1.53c5.58-1.59,6.62-8,7.18-13.06a12.49,12.49,0,0,0-.41-3.8c-1.3-6-3.58-6.59-8.53-9.56a40.3,40.3,0,0,1-6.5-4.24,7.12,7.12,0,0,1-2.58-5.35c.23-3.81,4.93-5,7.48-4.71,1.56.21,6.89,3,10.33,5.46C117.68,134.37,118.84,125.66,118.89,125.27Z"/><path class="cls-12" d="M127.44,122l11.45,2.86c.29.07-2.16,14.45-2.33,15.55-.71,4.63-1.93,9.53-1.18,14.23.64,4,5.59,12,9.78,6.17,3.79-5.26,4.41-14.3,5.18-20.51.12-.93,1.51-14.29,1.79-14.29H162.5c-.29,5.31-.62,14-.8,17.28-.86,15.55-4.47,31.16-23.49,29.72-9.41-.72-14.36-11.74-13.6-20Z"/><polygon class="cls-12" points="166.86 176.38 170.5 126.05 180.26 126.05 191.16 151.31 194.61 128.92 205.51 130.07 201.3 179.25 188.29 178.29 179.11 150.16 177.38 177.15 166.86 176.38"/><path class="cls-12" d="M243.39,172.33l.06,7.76a1,1,0,0,1-.15.62.91.91,0,0,1-.52.23c-5.16,1.11-10.55,1.72-15.72.64-8.34-1.74-15.27-8.74-15.95-17.41-.51-6.54-1-13.44,1.93-19.33,3.31-6.76,8.19-9.69,15.44-11.75,5.82-1.66,13.49.24,18.94,2.15-.4,3.09-.79,6.18-1.19,9.27-5.4-2.94-19.36-5.59-23,1.47-1.73,3.36-1.93,8.5-2,12.21C220.87,168.71,234.1,175.32,243.39,172.33Z"/><path class="cls-12" d="M313.44,139.83,323.77,141l10.33,49.94H323.77L320.9,176l-9.76-.58-5.74,14.38-11.48-2.3Zm-.58,25.26,6.32,2.3L317.5,153Z"/><path class="cls-12" d="M258.56,141.4a21.05,21.05,0,0,1,7.42-4,21.92,21.92,0,0,1,17.74,2.41c13.07,8.26,12.86,27.27,3.82,38.43a21.87,21.87,0,0,1-13.81,8.24c-16.28,2.27-26.58-14.69-24-29.2A27.27,27.27,0,0,1,258.56,141.4Zm12,34.42a7.74,7.74,0,0,0,6.8-1.12c3.06-2.29,4.33-6.52,4.53-10.17a20.13,20.13,0,0,0-5.72-14.87c-2-2-5.06-3.15-7.73-2.23-2.41.83-4,3.12-5.25,5.34a23.75,23.75,0,0,0-3.5,9.66c-.39,4.63,1.82,8.37,5.58,10.91a17,17,0,0,0,5.23,2.48Z"/><path class="cls-12" d="M371.06,146.58s-.45,9.47-.45,9.5a36.88,36.88,0,0,0-9.67-3.47c-3.11-.35-6.15-.37-8.23,2.58a4.1,4.1,0,0,0,.26,4.48c2.31,3.43,7,4.72,10.38,6.7,7.92,4.62,10.9,14.5,5.3,22.23-3.75,5.18-10,4.29-15.64,3.54-1.31-.18-12.71-2.33-12.65-3.48,0,0,.63-8.41.63-8.5a58.73,58.73,0,0,0,8,2.58c3.35.85,4.49,1.23,7.89.43a9.36,9.36,0,0,0,2.73-1.38c2-1.36,1.68-3.46.52-5.26A8.56,8.56,0,0,0,357.3,174c-2.66-1.64-5.63-2.72-8.41-4.16-6.42-3.32-9.55-8.86-7.83-16.1,1.4-5.87,4.31-10.6,10.67-11.67a21.43,21.43,0,0,1,10,.94C362.69,143.31,371.08,146.16,371.06,146.58Z"/><polygon class="cls-12" points="381.22 147.34 380.84 157.51 392.27 157.52 391.52 197.27 402.41 196.53 404.34 157.27 414.73 157.72 415.74 147.29 381.22 147.34"/><path class="cls-12" d="M79.22,202.21,81.5,181s6.82.35,7.37.42c4.65.55,9.32,4.24,9.47,9.18.22,7.4-3,10.52-9.93,11.64C87.74,202.33,79.09,203.44,79.22,202.21Zm10.45-4a5.8,5.8,0,0,0,3.65-5c.4-5.32-3.33-6.22-7.4-7.38l-1,12.63a31.39,31.39,0,0,0,4.75-.28Z"/><polygon class="cls-12" points="105.25 182.5 102.95 200.3 104.19 204.13 116.92 205.66 117.87 201.25 108.5 200.49 108.88 195.51 117.11 196.47 118.26 191.69 109.26 190.73 109.26 187.48 118.64 187.86 119.79 183.65 105.25 182.5"/><polygon class="cls-12" points="123.81 184.42 128.97 184.42 132.61 198.96 137.58 185.76 142.37 185.95 133.37 206.81 128.78 206.04 123.81 184.42"/><polygon class="cls-12" points="145.43 186.14 143.9 204.32 143.52 207.57 158.82 209.29 159.01 205.27 148.87 203.36 149.64 199.15 158.63 199.53 158.44 195.71 150.6 194.75 150.6 190.16 159.97 191.31 160.55 188.05 145.43 186.14"/><polygon class="cls-12" points="164.76 187.67 169.54 188.63 168.2 204.89 177.58 206.42 177.19 210.44 165.71 209.1 163.03 206.61 164.76 187.67"/><path class="cls-12" d="M184.33,193.3c2.32-2.15,4.56-4,7.93-3.14,5.17,1.37,10.15,3.21,10.89,9.29.34,2.77.1,7-1.86,9.12a9.69,9.69,0,0,1-2.8,1.94c-4.11,2.18-9.52,3.15-13.52-.09a4.84,4.84,0,0,1-.86-1c-1.51-2.17-3-4.46-3.43-7.07C180.08,198.45,181.83,195.6,184.33,193.3Zm2.68,3.24a6.57,6.57,0,0,0-1.8,3c-1.18,4.34,2.68,9.65,7.25,8.55a7.79,7.79,0,0,0,5.92-6c.7-4.29-2.72-6.4-6.33-7.11a5.73,5.73,0,0,0-5,1.56Z"/><path class="cls-12" d="M219.57,193.87c2.17,1,4,3.34,4,4.23.43,5.74-5.89,7.55-10.81,7l-1.15,8.23-4.79-1.15s2.25-20.28,2.3-20.28C213.12,192.22,215.28,191.87,219.57,193.87Zm-6,2.41-.19,4.4c2.67.71,5.79.72,6.22-1.15s-2.19-3.1-6-3.25Z"/><polygon class="cls-12" points="228.09 193.79 226.18 215.61 229.43 215.8 241.11 216.18 241.11 211.4 231.73 210.82 231.92 206.42 241.11 207.57 241.49 202.98 233.07 201.83 232.88 198.96 242.64 199.72 243.59 194.56 228.09 193.79"/><path class="cls-12" d="M263.35,198.24c2.52,1.36,3,3.16,2.73,6.17-.05.55-1.15,4.74-5,5.17l4.92,8.9-5.55.19-4-8.23h-2.11l-.19,8-5-1s1.58-21.84,1.58-21.86c4,.43,7.91.85,8.61,1A20.67,20.67,0,0,1,263.35,198.24Zm-8.47,2.44v5c0,1.55,6-.06,6-2C260.93,201.41,254.88,201,254.88,200.68Z"/><path class="cls-12" d="M288,199.15v4.4c-3.95-1.06-9.5-4-10.32-.57s8.86,4.49,10,10.12a4.67,4.67,0,0,1-3.21,5.77,4.5,4.5,0,0,1-1.46.18c-1.09,0-8.18-.57-11.67-2.29l.57-4a37.54,37.54,0,0,0,4.38,2c2,.5,6.44.85,6.44-1.16,0-2.58-6.29-5.12-6.69-5.38a8.68,8.68,0,0,1-2.83-2.56,5.32,5.32,0,0,1,.75-5.91C277.44,195.56,283.6,198.22,288,199.15Z"/><path class="cls-12" d="M332.57,202.6l-.38,4.59c.21-.76-7.48-1.58-8.46-1.29-3,.89-6.08,4.87-5.36,8.11a7.65,7.65,0,0,0,4.25,4.61c.37.15,4.34.67,4.4,0l.39-3.44-5-.77.19-3.83L332.77,212l-.58,10c-.09.71-5.63,1.1-6.26,1.15a11,11,0,0,1-9-3.55c-2.51-2.79-4.35-8.18-2.78-11.77,1.36-3.11,5.85-6.29,9.14-6.85C324.17,200.76,332.64,201.77,332.57,202.6Z"/><path class="cls-12" d="M343.1,203.74l5.55,1.34-.57,6.57c-.19,2.27-.64,4.58-.3,6.85a3.33,3.33,0,0,0,3.63,3,3.27,3.27,0,0,0,1.53-.53c2.18-1.49,2.59-4.56,2.89-7,.1-.73.55-9.12.47-9.13l5,.39-.8,8.73c-.33,3.46,0,8-2.95,10.44-2.75,2.31-7,2.49-10.24,1.26-2.9-1.1-4.61-4.92-4.5-7.92.07-1.85.09-3.71.14-5.57Z"/><polygon class="cls-12" points="370.84 205.42 369.12 226.32 374.29 226.71 376.2 206.23 370.84 205.42"/><polygon class="cls-12" points="385.77 205.66 391.13 207 389.41 222.88 398.78 224.6 398.4 228.43 386.54 226.71 384.05 224.22 385.77 205.66"/><path class="cls-12" d="M420.66,209.58a10.61,10.61,0,0,1,4.84,10.56c-.71,6.2-6,10.39-12.14,10.44-.63,0-7.31-.74-7.32-.62L408,208c.06-.62,8.14.34,8.89.42A9.5,9.5,0,0,1,420.66,209.58Zm-8.1,3.35s-1.15,12.22-1.15,12.25c0,.7,4.79.19,5.27,0,3.11-1.26,4.13-5.32,3.06-8.25-1.24-3.56-4-3.62-7.18-4Z"/><polygon class="cls-13" points="49.76 306.92 444.56 308.82 442.6 301.52 45.08 300.88 38.19 348.25 44.2 348.21 49.76 306.92"/><polygon class="cls-14" points="36.62 360.81 36.18 369.57 30.81 368.12 31.57 355.87 457.91 355.1 460.25 362.12 36.62 360.81"/><polygon class="cls-15" points="167.05 414.42 167.05 419.02 162.28 417.57 161.94 410.79 340.59 411.47 331.43 415 167.05 414.42"/></g><g id="Layer_3" data-name="Layer 3"><path class="cls-7" d="M149.19,97.13l-.21,4.39a.41.41,0,0,1-.12.35.77.77,0,0,1-.36.12,32.23,32.23,0,0,1-10.91-.09c-5.72-1.21-10.29-5.37-10.49-10.3-.15-3.72-.24-7.64,2-10.89,2.51-3.74,6-5.26,11.06-6.23,4.09-.77,9.34.52,13,1.76-.37,1.73-.75,3.47-1.12,5.21-3.64-1.82-13.23-3.71-16,.18-1.3,1.86-1.61,4.77-1.8,6.87C133.71,94.44,142.66,98.56,149.19,97.13Z"/><polygon class="cls-7" points="382.05 96.97 381.46 102.72 389.38 103.04 387.6 125.53 395.16 125.42 397.74 103.24 404.92 103.78 405.96 97.91 382.05 96.97"/><path class="cls-7" d="M187.5,107.56l5.3-28c0-.07,11,.91,11.91,1,7.5,1,14.79,6.23,14.66,12.79-.19,9.82-5.63,13.73-17,14.76C201.33,108.27,187.23,109.18,187.5,107.56Zm17.23-4.66A8.18,8.18,0,0,0,211,96.46c1-7-4.92-8.45-11.44-10.26l-2.49,16.67a61.66,61.66,0,0,0,7.69,0Z"/><polygon class="cls-7" points="228.55 81.73 223.82 103.72 225.44 108.56 244.69 111.25 246.45 105.83 232.25 104.3 233.17 98.14 245.62 99.84 247.7 93.96 234.09 92.21 234.32 88.17 248.55 89.22 250.59 84.06 228.55 81.73"/><path class="cls-7" d="M107.75,72l7.12.94,5.56,28.57-7.15-.29-1.51-8.53-6.74-.6-4.43,8-7.88-1.62Zm-1.2,14.28,4.3,1.48-.74-8.17Z"/><path class="cls-7" d="M169.32,76l7.12.94L182,105.56l-7.16-.29-2.08-11.78-5-.41-5.63,11-5.82-1.2Zm-1.2,14.29,4.2.34-.63-7Z"/><polygon class="cls-7" points="255.25 112.91 260.15 85.65 266.38 86.16 271.35 91.51 275.17 85.51 282.04 86.07 283.44 114.61 276.21 114.02 276.76 93.93 270.43 102.02 264.04 92.99 261.06 113.31 255.25 112.91"/><polygon class="cls-7" points="292.18 87.18 297.71 85.7 303.86 96.5 309.39 87.84 316.03 89.13 306.44 102.22 304.4 119.57 298.06 119.05 300.03 101.32 292.18 87.18"/><path class="cls-7" d="M364.5,93.05h6.93l5.75,29.51-7.15-.29-1.53-8.53-6.74-.6-3,8-8.38-.53Zm-1.2,14.28,4.17.07-.61-6.76Z"/></g></svg>