<svg id="Layer_1" data-name="Layer 1" xmlns="http://www.w3.org/2000/svg" viewBox="0 0 512 512"><defs><style>.cls-1{fill:#5a9191;}.cls-2{fill:#d6562b;}.cls-3{fill:#f9a01b;}.cls-4{fill:#fff200;}.cls-5{fill:#b2d235;}.cls-6{fill:#100f0f;fill-opacity:0.3;}.cls-7{fill:#fff;}</style></defs><title>button</title><path class="cls-1" d="M485,174.3C468.38,136.75,434,80.22,401.67,59.19c-67.54-44-138.83-61.81-227.92-28.27-112,42.19-143,150.76-145.2,156.83C18,217.26,11.21,249.63,14.21,275.32,28.07,394.28,121.68,495,274.55,498.48c56.68,1.28,133.17-38.59,165-77.53C517.13,325.88,501.6,211.85,485,174.3Z"/><path class="cls-2" d="M454.65,161.54C439.76,127.6,414,98.85,385.11,79.84,324.6,40.05,260.73,24,180.91,54.29,80.52,92.42,52.76,190.57,50.82,196.06,41.41,222.73,35.43,252,38,275.22s15.4,55.92,15.4,55.92l410.37.72s10.06-46.6,10.92-76.71S469.54,195.48,454.65,161.54Z"/><path class="cls-3" d="M462,339.72l-404.39-1.8s4.75,12.83,7.42,18.2c1.21,2.44,8.76,16,8.76,16l370.84,1.2s6.59-9.59,10.78-16.79S462,339.72,462,339.72Z"/><path class="cls-4" d="M442.6,379.59s-11.44,15.14-16.21,21.74-21.6,21.13-21.6,21.13l-292-3.59S100,408.71,92,399.87c-8.28-9.17-15.78-22.22-15.78-22.22Z"/><path class="cls-5" d="M397.24,430.39S335.66,480,261.17,477s-141.62-50.61-141.62-50.61Z"/><path class="cls-6" d="M120,183l14.55,1.13L146.29,201s50.72-3.56,63.59,4.32,24.31,26.78,24.31,26.78l-13.43.56s-5.29-13.08-18-17.59-62.09,9.57-62.09,9.57l-11.19-15.76-10.07,10.7s-59.57-8.59-68.8-4.47-17.25,23.53-17.25,23.53L23.85,237s11.29-28.78,23.41-34.78,62.09,1.12,62.09,1.12Z"/><path class="cls-7" d="M120,174l14.55,1.12L146.29,192s50.72-3.57,63.59,4.31,24.31,26.79,24.31,26.79l-13.43.56s-5.29-13.09-18-17.59-62.09,9.57-62.09,9.57l-11.19-15.76-10.07,10.69s-59.58-8.66-68.81-4.5S33.35,229.6,33.35,229.6l-9.5-1.6s11.29-28.78,23.41-34.79,62.09,1.13,62.09,1.13Z"/><path class="cls-6" d="M324.36,249.77,345.61,247l14.55,24.77,35.39-.92c19.86-.52,41.57-2,61,4.58,24.58,8.33,35,28.65,42.43,52.16,0,0-17.32-2.21-17.34-2.25-4.56-6.6-14-18.73-16.88-21-8.27-6.63-18.66-8.85-29.23-10.66-12.46-2.14-23.63,1.63-35.82,3.46-14.9,2.23-29.13,6.18-44,8.42l-17.9-25.89L318.2,301.55l-45.42-4.85c-13.68-1.45-30.34-5.2-44.46-2.47C211.87,297.41,197,310,192.56,321.5l-16.45-1c10.44-18.77,30.11-35.94,32.08-36.78,14.17-6,29.09-11.36,60.62-10.13l38.76,1.5Z"/><path class="cls-7" d="M324.36,240.76,345.61,238l14.55,24.76,35.39-.92c19.86-.51,41.57-2,61,4.59,24.58,8.33,35,28.64,42.43,52.16,0,0-17.32-2.22-17.34-2.25-4.56-6.6-14-18.74-16.88-21-8.27-6.64-18.66-8.85-29.23-10.67-12.46-2.14-23.63,1.63-35.82,3.46-14.9,2.24-29.13,6.19-44,8.42l-17.9-25.89-19.58,22-45.42-4.84c-13.68-1.46-30.34-5.21-44.46-2.47C211.87,288.41,197,301,192.56,312.5l-16.45-1c10.44-18.76,30.11-35.94,32.08-36.77,14.17-6,29.09-11.37,60.62-10.14l38.76,1.51Z"/></svg>